<svg xmlns="http://www.w3.org/2000/svg" width="180.191" height="180.191" viewBox="0 0 180.191 180.191">
  <g id="Grupo_9979" data-name="Grupo 9979" transform="translate(-271.432 -2125.019)">
    <circle id="Elipse_150" data-name="Elipse 150" cx="90.096" cy="90.096" r="90.096" transform="translate(271.432 2125.019)" fill="#5fc6ff"/>
    <path id="Trazado_11470" data-name="Trazado 11470" d="M271.432,2215.114a90.213,90.213,0,0,0,3.146,23.663h16.329a25.239,25.239,0,0,0,25.209-24.019l1.129-23.349a6.865,6.865,0,0,1,6.864-6.865h15.417a11.939,11.939,0,0,0,11.747-9.068,11.7,11.7,0,0,0-5.38-12.642l-1.511-.906c-8.179-4.909-13.691-19.6-15.246-30.905A90.124,90.124,0,0,0,271.432,2215.114Z" fill="#ffcec0"/>
    <path id="Trazado_11471" data-name="Trazado 11471" d="M314.954,2179.965h-9.36a11.228,11.228,0,0,1-6.228-20.574l9.742-6.5,2.54,3.807-9.745,6.5a6.654,6.654,0,0,0,3.691,12.192h7.3a11.44,11.44,0,0,1,22.649,2.288h-4.577a6.865,6.865,0,0,0-13.729,0,2.28,2.28,0,0,1-2.283,2.285Zm0,0" fill="#fdb0a0"/>
    <path id="Trazado_11472" data-name="Trazado 11472" d="M425.511,2189.173a23.215,23.215,0,0,0-8.354-17.836l-4.7-3.913H382.015l-4.7,3.913a23.211,23.211,0,0,0-8.354,17.836" fill="#e7e4dd"/>
    <path id="Trazado_11473" data-name="Trazado 11473" d="M405.938,2158.725h-17.4v-10.874a2.176,2.176,0,0,1,2.175-2.175h13.049a2.176,2.176,0,0,1,2.175,2.175Zm0,0" fill="#e7e4dd"/>
    <path id="Trazado_11474" data-name="Trazado 11474" d="M382.015,2167.424v-4.349a4.349,4.349,0,0,1,4.349-4.35h21.749a4.349,4.349,0,0,1,4.349,4.35v4.349" fill="#758190"/>
    <path id="Trazado_11475" data-name="Trazado 11475" d="M425.511,2197.872v67.419c0,3.6-12.658,6.525-28.273,6.525s-28.272-2.921-28.272-6.525v-67.419" fill="#243242"/>
    <path id="Trazado_11476" data-name="Trazado 11476" d="M355.917,2217.445v47.846c0,3.6-12.658,6.525-28.273,6.525s-28.272-2.921-28.272-6.525v-47.846" fill="#e7e4dd"/>
    <path id="Trazado_11477" data-name="Trazado 11477" d="M299.372,2226.145v-8.7h56.545v8.7c0,3.6-12.658,6.524-28.273,6.524s-28.272-2.921-28.272-6.524Zm0,0" fill="#243242"/>
    <path id="Trazado_11478" data-name="Trazado 11478" d="M342.868,2247.893c0,4.8-6.816,8.7-15.224,8.7s-15.223-3.9-15.223-8.7,6.816-8.7,15.223-8.7a22.2,22.2,0,0,1,10.765,2.549c2.855,1.631,4.459,3.844,4.459,6.151Zm0,0" fill="#78b75b"/>
    <path id="Trazado_11479" data-name="Trazado 11479" d="M299.372,2256.592c0,3.6,12.658,6.524,28.272,6.524s28.273-2.921,28.273-6.524v8.7c0,3.6-12.658,6.525-28.273,6.525s-28.272-2.921-28.272-6.525Zm0,0" fill="#243242"/>
    <path id="Trazado_11480" data-name="Trazado 11480" d="M355.917,2217.445c0,3.6-12.658,6.525-28.273,6.525s-28.272-2.921-28.272-6.525,12.658-6.524,28.272-6.524,28.273,2.921,28.273,6.524Zm0,0" fill="#758190"/>
    <path id="Trazado_11481" data-name="Trazado 11481" d="M345.043,2222.589v-.794c0-2.4-7.79-4.35-17.4-4.35s-17.4,1.947-17.4,4.35v.794a110.3,110.3,0,0,0,34.8,0Zm0,0" fill="#f2c351"/>
    <path id="Trazado_11482" data-name="Trazado 11482" d="M331.994,2247.893c0,2.825-1.947,5.116-4.35,5.116s-4.349-2.291-4.349-5.116,1.946-5.117,4.349-5.117,4.35,2.291,4.35,5.117Zm0,0" fill="#f2c351"/>
    <path id="Trazado_11483" data-name="Trazado 11483" d="M425.511,2197.872H368.966a4.349,4.349,0,1,1,0-8.7h56.545a4.349,4.349,0,1,1,0,8.7Zm0,0" fill="#758190"/>
    <rect id="Rect치ngulo_3237" data-name="Rect치ngulo 3237" width="6.523" height="4.35" transform="translate(388.536 2150.026)" fill="#cbc3b6"/>
    <path id="Trazado_11484" data-name="Trazado 11484" d="M382.015,2206.571h30.447v19.574l-15.224,13.048-15.223-13.048Zm0,0" fill="#d5cec2"/>
    <rect id="Rect치ngulo_3238" data-name="Rect치ngulo 3238" width="39.147" height="8.699" transform="translate(377.665 2245.718)" fill="#e39854"/>
    <path id="Trazado_11485" data-name="Trazado 11485" d="M403.763,2219.62a6.525,6.525,0,1,1-6.525-6.524,6.525,6.525,0,0,1,6.525,6.524Zm0,0" fill="#669e4f"/>
    <path id="Trazado_11486" data-name="Trazado 11486" d="M353.739,2208.743H349.39v-4.35a7.369,7.369,0,0,1,2.174-5.248l1.273-1.273a3.073,3.073,0,0,0,0-4.35l-2.812-2.812,3.077-3.076,2.812,2.812a7.432,7.432,0,0,1,0,10.5l-1.272,1.273a3.049,3.049,0,0,0-.9,2.174Zm0,0" fill="#d5cec2"/>
    <path id="Trazado_11487" data-name="Trazado 11487" d="M342.868,2210.916h-4.35v-4.345a7.377,7.377,0,0,1,2.172-5.251l1.273-1.273a3.066,3.066,0,0,0,0-4.35l-2.809-2.812,3.077-3.075,2.809,2.812a7.425,7.425,0,0,1,0,10.5l-1.272,1.273a3.044,3.044,0,0,0-.9,2.175Zm0,0" fill="#d5cec2"/>
  </g>
</svg>
