<svg xmlns="http://www.w3.org/2000/svg" width="180.191" height="180.191" viewBox="0 0 180.191 180.191">
  <g id="Grupo_9980" data-name="Grupo 9980" transform="translate(-622.052 -2125.019)">
    <circle id="Elipse_151" data-name="Elipse 151" cx="90.096" cy="90.096" r="90.096" transform="translate(622.052 2125.019)" fill="#5fc6ff"/>
    <path id="Trazado_11488" data-name="Trazado 11488" d="M747.07,2215.114" fill="#ff9f22"/>
    <path id="Trazado_11489" data-name="Trazado 11489" d="M775.848,2213.707v12.787a7.038,7.038,0,0,1-7.039,7.038h-5.631a7.038,7.038,0,0,1-7.038-7.038v-12.787a7.038,7.038,0,0,1,7.038-7.039h5.631a7.038,7.038,0,0,1,7.039,7.039Zm0,0" fill="#d4d8d8"/>
    <path id="Trazado_11490" data-name="Trazado 11490" d="M774.264,2199.629v2.464a7.038,7.038,0,0,1-7.038,7.038h-2.464a7.038,7.038,0,0,1-7.039-7.038v-2.464a7.038,7.038,0,0,1,7.039-7.039h2.464a7.038,7.038,0,0,1,7.038,7.039Zm0,0" fill="#e6e6e6"/>
    <path id="Trazado_11491" data-name="Trazado 11491" d="M781.831,2146.839v41.176a7.038,7.038,0,0,1-7.039,7.039H757.2a7.038,7.038,0,0,1-7.038-7.039v-41.176a3.519,3.519,0,1,1,7.038,0v31.674h5.279v-31.674a3.52,3.52,0,1,1,7.039,0v31.674h5.279v-31.674a3.52,3.52,0,1,1,7.039,0Zm0,0" fill="#f2f2f2"/>
    <path id="Trazado_11492" data-name="Trazado 11492" d="M765.994,2182.35" fill="#07a9f0"/>
    <path id="Trazado_11493" data-name="Trazado 11493" d="M752.268,2295.807v-72.246a7.038,7.038,0,0,1,7.039-7.039h13.374a7.038,7.038,0,0,1,7.038,7.039v51.148a90.449,90.449,0,0,1-27.451,21.1Zm0,0" fill="#e39854"/>
    <path id="Trazado_11494" data-name="Trazado 11494" d="M735.375,2215.114A90.127,90.127,0,0,1,678.71,2298.8a90.129,90.129,0,0,1,0-167.369,90.123,90.123,0,0,1,56.661,83.683Zm0,0" fill="#f2f2f2"/>
    <path id="Trazado_11495" data-name="Trazado 11495" d="M714.259,2215.114A69.077,69.077,0,0,1,653.6,2283.59a90.348,90.348,0,0,1-6.891-6.553,61.939,61.939,0,0,0,0-123.845,89.976,89.976,0,0,1,6.891-6.553,69.076,69.076,0,0,1,60.658,68.475Zm0,0" fill="#40c1fa"/>
    <path id="Trazado_11496" data-name="Trazado 11496" d="M681.648,2195.054c0,10.3-4.157,18.649-9.287,18.649s-9.286-8.35-9.286-18.649,4.157-18.649,9.286-18.649,9.287,8.349,9.287,18.649Zm0,0" fill="#a5d130"/>
    <path id="Trazado_11497" data-name="Trazado 11497" d="M666.964,2186.6c0,10.3-4.157,18.649-9.286,18.649s-9.288-8.35-9.288-18.649,4.158-18.649,9.288-18.649,9.286,8.349,9.286,18.649Zm0,0" fill="#8ab512"/>
    <path id="Trazado_11498" data-name="Trazado 11498" d="M685.439,2243.007c0,10.3-4.159,18.649-9.288,18.649s-9.288-8.349-9.288-18.649,4.159-18.649,9.288-18.649,9.288,8.349,9.288,18.649Zm0,0" fill="#ffc14f"/>
    <path id="Trazado_11499" data-name="Trazado 11499" d="M673.2,2247.859c-5.382,8.782-13.289,13.729-17.663,11.047s-3.556-11.971,1.826-20.753,13.289-13.727,17.663-11.047,3.556,11.971-1.826,20.753Zm0,0" fill="#ff9100"/>
    <path id="Trazado_11500" data-name="Trazado 11500" d="M654.291,2187.926a10.091,10.091,0,0,1-19.622,2.564c-2.049.988-7.888-4.407-6.848-7.163a89.8,89.8,0,0,1,9.933-19.047,15.6,15.6,0,0,1,5.766,12.125v.057a.69.69,0,0,0,.7.693h.007a10.09,10.09,0,0,1,10.067,10.771Zm0,0" fill="#ffc14f"/>
    <path id="Trazado_11501" data-name="Trazado 11501" d="M653.834,2226.858a13.131,13.131,0,1,1-13.129,13.132,13.131,13.131,0,0,1,13.129-13.132Zm0,0" fill="#8ab512"/>
    <path id="Trazado_11502" data-name="Trazado 11502" d="M661,2261.287a14.593,14.593,0,0,1-14.593,14.591c-.267,0-.533-.007-.8-.022a90.179,90.179,0,0,1-16.116-24.835c-1.145-2.634-1.166-17.458,3.654-17.489h.1a14.594,14.594,0,0,1,14.468,12.683.7.7,0,0,0,.6.6A14.6,14.6,0,0,1,661,2261.287Zm0,0" fill="#a5d130"/>
    <path id="Trazado_11503" data-name="Trazado 11503" d="M716.6,2217.446a63.363,63.363,0,0,1,16.479,46.565,63.359,63.359,0,0,1-48.671-18.491c-.477-.479-.946-.96-1.405-1.448-8.208-8.736-7.258-19.2-1.924-26.626-5.334-7.422-6.284-17.888,1.924-26.625q.688-.734,1.405-1.447a63.358,63.358,0,0,1,48.671-18.494,63.364,63.364,0,0,1-16.479,46.566Zm0,0" fill="#7b94a3"/>
    <path id="Trazado_11504" data-name="Trazado 11504" d="M716.6,2217.446a63.342,63.342,0,0,1,16.558,44.83,63.2,63.2,0,0,1-29.676-16.756c-.479-.479-.946-.96-1.4-1.448-4.761-5.066-6.442-10.714-5.972-16.013,1.827,2.02,3.887,4.148,6.116,6.3,9.523,9.189,18.517,15.318,20.092,13.687s-4.87-10.4-14.391-19.593c-2.46-2.372-4.883-4.542-7.152-6.427,7.427-.826,12.449-2.269,12.422-3.823-.026-1.422-4.28-2.6-10.719-3.224,2.531-2.237,5.293-4.917,8.092-7.89,9.072-9.634,15.088-18.7,13.438-20.258s-10.342,5-19.413,14.633c-2.986,3.171-5.64,6.28-7.8,9.081-1.78-6.29-.607-13.453,5.287-19.725q.687-.732,1.4-1.448a63.22,63.22,0,0,1,29.678-16.756,63.344,63.344,0,0,1-16.558,44.83Zm0,0" fill="#ccc"/>
    <path id="Trazado_11505" data-name="Trazado 11505" d="M699.8,2217.446c-7.174,8.071-41.68,24.188-70.312,33.577a90.415,90.415,0,0,1-1.671-67.7c28.945,9.3,64.667,25.891,71.983,34.119Zm0,0" fill="#7b94a3"/>
    <path id="Trazado_11506" data-name="Trazado 11506" d="M699.8,2217.446c-7.174,8.071-41.68,24.188-70.312,33.577a89.8,89.8,0,0,1-7.44-35.909q0-1.668.061-3.325a105.365,105.365,0,0,0,39.693,7.356,108.676,108.676,0,0,0,33.9-5.213,25.958,25.958,0,0,1,4.1,3.514Zm0,0" fill="#ccc"/>
  </g>
</svg>
