<svg xmlns="http://www.w3.org/2000/svg" xmlns:xlink="http://www.w3.org/1999/xlink" width="1095" height="291.577" viewBox="0 0 1095 291.577">
  <defs>
    <linearGradient id="linear-gradient" x1="0.5" y1="-0.039" x2="0.5" y2="0.789" gradientUnits="objectBoundingBox">
      <stop offset="0" stop-color="#fff4e0"/>
      <stop offset="0.417" stop-color="#f7f4f0"/>
      <stop offset="1" stop-color="#f4f1ee"/>
    </linearGradient>
    <clipPath id="clip-path">
      <path id="Trazado_1401" data-name="Trazado 1401" d="M265.9,1466.946l-8.061-191.458H437.826l-8.06,191.458Z" fill="url(#linear-gradient)"/>
    </clipPath>
    <linearGradient id="linear-gradient-3" y1="0.5" x2="1" y2="0.5" gradientUnits="objectBoundingBox">
      <stop offset="0" stop-color="#fff" stop-opacity="0.149"/>
      <stop offset="0.323" stop-color="#faf8f6" stop-opacity="0.075"/>
      <stop offset="0.69" stop-color="#f6f3ef" stop-opacity="0.02"/>
      <stop offset="1" stop-color="#f5f2ed" stop-opacity="0"/>
    </linearGradient>
    <radialGradient id="radial-gradient" cx="0.5" cy="0.5" r="0.502" gradientTransform="matrix(-0.996, 0, 0, 0.996, 92.947, 0.024)" gradientUnits="objectBoundingBox">
      <stop offset="0" stop-color="#ffc5a1"/>
      <stop offset="0.17" stop-color="#c5987c"/>
      <stop offset="0.397" stop-color="#806351"/>
      <stop offset="0.602" stop-color="#49382e"/>
      <stop offset="0.777" stop-color="#211915"/>
      <stop offset="0.915" stop-color="#080605"/>
      <stop offset="1"/>
    </radialGradient>
    <linearGradient id="linear-gradient-4" x1="0.5" y1="1.129" x2="0.5" y2="0.105" gradientUnits="objectBoundingBox">
      <stop offset="0"/>
      <stop offset="0.096" stop-color="#080808"/>
      <stop offset="0.252" stop-color="#212020"/>
      <stop offset="0.449" stop-color="#494746"/>
      <stop offset="0.679" stop-color="#807c7b"/>
      <stop offset="0.934" stop-color="#c5c0be"/>
      <stop offset="1" stop-color="#d9d3d1"/>
    </linearGradient>
    <linearGradient id="linear-gradient-6" x1="2.984" y1="1.129" x2="2.984" y2="0.105" xlink:href="#linear-gradient-4"/>
    <linearGradient id="linear-gradient-7" x1="0.923" y1="1.129" x2="0.923" y2="0.105" xlink:href="#linear-gradient-4"/>
  </defs>
  <g id="Grupo_10012" data-name="Grupo 10012" transform="translate(-172 -1216.949)">
    <g id="Grupo_8184" data-name="Grupo 8184">
      <rect id="Rectángulo_2913" data-name="Rectángulo 2913" width="1095" height="291.577" transform="translate(172 1216.949)" fill="#d8c6a5"/>
      <g id="Grupo_8167" data-name="Grupo 8167">
        <path id="Trazado_1399" data-name="Trazado 1399" d="M265.9,1466.946l-8.061-191.458H437.826l-8.06,191.458Z" fill="url(#linear-gradient)"/>
        <g id="Grupo_8166" data-name="Grupo 8166" clip-path="url(#clip-path)">
          <path id="Trazado_1400" data-name="Trazado 1400" d="M161.3,1467.532H472.954l.506-17.609h-3.135l.769-24.395H454.654l.383,12.17H441.716l1.356-57.932h-5.2l1.028-9.559H431.4l-.763-22.451h-.3l-.763,22.451h-7.114l1.028,9.559h-5.2l.747,31.913H402.282l1.777,39.08h-7.544l1.328-50.269H387.4l-.685-11.207h-.3l-.685,11.207H376.3l.661,25.039H364.613l.99,31.422h-6.5l2.381-59.659H350.537l.081-2.9h-9.449l.907-53.571H323.692l.564,33.332H313.722l.937,46.387H310.97l-.739-12.1h-.3l-.74,12.1H297.024l1.493,34.946h-7.841l2.059-68.4H287.8l1.521-22.118H285.6l.879-12.874h-3.591l.843-5.243H278.96l-.752-21.438h-.236l-.751,21.438h-4.768l.843,5.243h-3.591l.88,12.874h-3.722l1.521,22.118h-4.937l.845,28.095h-9.7l.3-10.553-2.5-8.8,1.3-13.553h-5.156l-3.722-13.095-4.268,13.095h-5.4l1.23,12.783-3.117,9.565,1.262,44.779h-6.3l1.386-28.868h-4.541l.622-6.153H205.679l.622,6.153H201.76l.628,13.084h-4.369l1.321-50.021H172.56l.822,31.124h-13.6Z" fill="#f3e8d1"/>
        </g>
      </g>
      <path id="Trazado_1402" data-name="Trazado 1402" d="M927.349,1508.526H890.067l-5.426-290.041h48.133Z" fill="#d8bd8c"/>
      <rect id="Rectángulo_2914" data-name="Rectángulo 2914" width="175.427" height="1.666" transform="translate(260.675 1357.119)" fill="#d8c6a5"/>
      <rect id="Rectángulo_2915" data-name="Rectángulo 2915" width="170.642" height="1.666" transform="translate(262.406 1414.323)" fill="#d8c6a5"/>
      <rect id="Rectángulo_2916" data-name="Rectángulo 2916" width="1.666" height="193.168" transform="translate(311.073 1275.178) rotate(-2.973)" fill="#d8c6a5"/>
      <rect id="Rectángulo_2917" data-name="Rectángulo 2917" width="193.153" height="1.666" transform="translate(377.629 1467.999) rotate(-87.088)" fill="#d8c6a5"/>
      <path id="Trazado_1403" data-name="Trazado 1403" d="M910.281,1287.882H890.006l-1.109-11.9H911.39Zm13.05,3.613H900.838l1.108,11.9h20.276Zm6.02,59.069H906.858l1.108,11.9h20.276Zm-7.359,15.516H899.5l1.109,11.9h20.275Zm.21,56.371H901.927l-1.109,11.9h22.493Zm2.7,46.449H902.409l1.109,11.9h20.276Zm-26.028-46.449H888.437l.251,11.9h9.077Zm15.969-15.515H894.568l-1.109,11.9h22.493Zm-9.935-72.032h-18.1l.221,11.9H903.8Z" fill="#d6b374"/>
      <path id="Trazado_1404" data-name="Trazado 1404" d="M397.755,1456.877l-1.233,3.952h-6.06l.912-3.952Z" fill="#e4dbd5" opacity="0.3" style="mix-blend-mode: overlay;isolation: isolate"/>
      <g id="Grupo_8168" data-name="Grupo 8168">
        <path id="Trazado_1405" data-name="Trazado 1405" d="M232.319,1262.567H209.826l1.109,11.9h20.275Z" fill="#d4bd94"/>
        <path id="Trazado_1406" data-name="Trazado 1406" d="M224.96,1278.082H202.467l1.109,11.9h20.276Z" fill="#d4bd94"/>
        <path id="Trazado_1407" data-name="Trazado 1407" d="M207.876,1246.907h-18.1l.222,11.9h16.77Z" fill="#d4bd94"/>
      </g>
      <g id="Grupo_8169" data-name="Grupo 8169">
        <path id="Trazado_1408" data-name="Trazado 1408" d="M1236.143,1252.668H1213.65l1.109,11.9h20.275Z" fill="#d4bc90"/>
        <path id="Trazado_1409" data-name="Trazado 1409" d="M1228.784,1268.184h-22.493l1.109,11.9h20.276Z" fill="#d4bc90"/>
        <path id="Trazado_1410" data-name="Trazado 1410" d="M1211.7,1237.008h-18.1l.222,11.9h16.77Z" fill="#d4bc90"/>
      </g>
      <g id="Grupo_8170" data-name="Grupo 8170">
        <path id="Trazado_1411" data-name="Trazado 1411" d="M520.761,1387.994H498.268l1.109,11.9h20.275Z" fill="#d4bc90"/>
        <path id="Trazado_1412" data-name="Trazado 1412" d="M513.4,1403.51H490.909l1.109,11.9h20.275Z" fill="#d4bc90"/>
        <path id="Trazado_1413" data-name="Trazado 1413" d="M496.318,1372.334h-18.1l.221,11.9h16.77Z" fill="#d4bc90"/>
      </g>
      <g id="Grupo_8171" data-name="Grupo 8171">
        <path id="Trazado_1414" data-name="Trazado 1414" d="M1163.809,1422.437h-22.493l1.109,11.9H1162.7Z" fill="#d4bc90"/>
        <path id="Trazado_1415" data-name="Trazado 1415" d="M1156.45,1437.953h-22.493l1.109,11.9h20.276Z" fill="#d4bc90"/>
        <path id="Trazado_1416" data-name="Trazado 1416" d="M1139.366,1406.777h-18.1l.222,11.9h16.77Z" fill="#d4bc90"/>
      </g>
      <g id="Grupo_8172" data-name="Grupo 8172">
        <path id="Trazado_1417" data-name="Trazado 1417" d="M1194.2,1303.533H1171.7l1.109,11.9h20.276Z" fill="#d4bc90"/>
        <path id="Trazado_1418" data-name="Trazado 1418" d="M1186.837,1319.048h-22.493l1.109,11.9h20.276Z" fill="#d4bc90"/>
        <path id="Trazado_1419" data-name="Trazado 1419" d="M1169.753,1287.873h-18.1l.222,11.9h16.77Z" fill="#d4bc90"/>
      </g>
      <g id="Grupo_8173" data-name="Grupo 8173">
        <path id="Trazado_1420" data-name="Trazado 1420" d="M1015.84,1455.466H993.346l1.109,11.9h20.275Z" fill="#d4bd94"/>
        <path id="Trazado_1421" data-name="Trazado 1421" d="M1074.3,1427.722h-22.493l1.109,11.9h20.275Z" fill="#d4bd94"/>
        <path id="Trazado_1422" data-name="Trazado 1422" d="M1053.493,1408.9H1031l1.109,11.9h20.276Z" fill="#d4bd94"/>
        <path id="Trazado_1423" data-name="Trazado 1423" d="M960.351,1484.862H937.858l1.109,11.9h20.275Z" fill="#d4bd94"/>
        <path id="Trazado_1424" data-name="Trazado 1424" d="M1008.481,1470.982H985.988l1.109,11.9h20.276Z" fill="#d4bd94"/>
        <path id="Trazado_1425" data-name="Trazado 1425" d="M991.4,1439.806H973.3l.221,11.9h16.77Z" fill="#d4bd94"/>
      </g>
      <g id="Grupo_8174" data-name="Grupo 8174">
        <path id="Trazado_1426" data-name="Trazado 1426" d="M1003.619,1273.146H981.126l1.109,11.9h20.275Z" fill="#d4bd94"/>
        <path id="Trazado_1427" data-name="Trazado 1427" d="M979.176,1257.486h-18.1l.221,11.9h16.77Z" fill="#d4bd94"/>
      </g>
      <g id="Grupo_8175" data-name="Grupo 8175">
        <path id="Trazado_1428" data-name="Trazado 1428" d="M1029.712,1273.146h-22.493l1.109,11.9H1028.6Z" fill="#d4bd94"/>
      </g>
      <g id="Grupo_8176" data-name="Grupo 8176">
        <path id="Trazado_1429" data-name="Trazado 1429" d="M234.962,1482.87H212.469l1.109,11.9h20.275Z" fill="#d4bd94"/>
        <path id="Trazado_1430" data-name="Trazado 1430" d="M455.6,1488.816H433.1l1.109,11.9h20.275Z" fill="#d4bd94"/>
        <path id="Trazado_1431" data-name="Trazado 1431" d="M442.053,1473.292H419.56l1.109,11.9h20.275Z" fill="#d4bd94"/>
        <path id="Trazado_1432" data-name="Trazado 1432" d="M425.869,1244.731H403.376l1.109,11.9H424.76Z" fill="#d4bd94"/>
        <path id="Trazado_1433" data-name="Trazado 1433" d="M414.639,1230.859H392.146l1.109,11.9h20.275Z" fill="#d4bd94"/>
        <path id="Trazado_1434" data-name="Trazado 1434" d="M451.962,1219.3H429.469l1.109,11.9h20.275Z" fill="#d4bd94"/>
        <path id="Trazado_1435" data-name="Trazado 1435" d="M425.869,1488.816H403.376l1.109,11.9H424.76Z" fill="#d4bd94"/>
        <path id="Trazado_1436" data-name="Trazado 1436" d="M210.519,1467.211h-18.1l.222,11.9h16.77Z" fill="#d4bd94"/>
      </g>
      <g id="Grupo_8178" data-name="Grupo 8178">
        <g id="Grupo_8177" data-name="Grupo 8177">
          <path id="Trazado_1437" data-name="Trazado 1437" d="M255.193,1274.1l-77.834,234.424h623.7L435.184,1274.1Z" fill="url(#linear-gradient-3)"/>
        </g>
        <ellipse id="Elipse_1" data-name="Elipse 1" cx="128.986" cy="128.469" rx="128.986" ry="128.469" transform="translate(226.971 1244.85)" fill="url(#radial-gradient)" style="mix-blend-mode: screen;isolation: isolate"/>
      </g>
      <g id="Grupo_8179" data-name="Grupo 8179">
        <path id="Trazado_1438" data-name="Trazado 1438" d="M313.3,1216.949l-.241,69.975h-1.185l-.241-69.975Z" fill="#eedebe"/>
        <path id="Trazado_1439" data-name="Trazado 1439" d="M317.875,1294.994c0,3.68-2.42,5.753-5.4,5.753s-5.4-2.073-5.4-5.753,2.42-7.576,5.4-7.576S317.875,1291.313,317.875,1294.994Z" fill="#fff" fill-rule="evenodd"/>
        <path id="Trazado_1440" data-name="Trazado 1440" d="M335.092,1293.258H288.717a118.744,118.744,0,0,1,23.753-8.486A126.983,126.983,0,0,1,335.092,1293.258Z" fill="#eedebe" fill-rule="evenodd"/>
        <path id="Trazado_1441" data-name="Trazado 1441" d="M383,1216.949l-.241,102.3h-1.185l-.241-102.3Z" fill="#eedebe"/>
        <path id="Trazado_1442" data-name="Trazado 1442" d="M387.572,1327.319c0,3.681-2.42,5.754-5.4,5.754s-5.4-2.073-5.4-5.754,2.42-7.575,5.4-7.575S387.572,1323.638,387.572,1327.319Z" fill="#fff" fill-rule="evenodd"/>
        <path id="Trazado_1443" data-name="Trazado 1443" d="M404.789,1325.583H358.414a118.8,118.8,0,0,1,23.753-8.486A127.058,127.058,0,0,1,404.789,1325.583Z" fill="#eedebe" fill-rule="evenodd"/>
        <path id="Trazado_1444" data-name="Trazado 1444" d="M442.005,1508.526l-42.362-182.185-35.671-.33-11.555,182.515Z" opacity="0.75" fill="url(#linear-gradient-4)" style="mix-blend-mode: screen;isolation: isolate"/>
        <path id="Trazado_1445" data-name="Trazado 1445" d="M381.754,1508.526,332.689,1293.98l-44.022-.668L247.1,1508.526Z" opacity="0.75" fill="url(#linear-gradient-4)" style="mix-blend-mode: screen;isolation: isolate"/>
      </g>
      <path id="Trazado_1446" data-name="Trazado 1446" d="M1106.67,1405.35v16.139a3.615,3.615,0,0,1-3.619,3.619h-8.4a3.614,3.614,0,0,1-3.613-3.619V1405.35a8.349,8.349,0,0,1,.656-3.246l2.308-5.494a8.37,8.37,0,0,0,.655-3.246v-2.386a1.933,1.933,0,0,1,1.929-1.935h4.533a1.932,1.932,0,0,1,1.929,1.935v2.386a8.368,8.368,0,0,0,.655,3.246l2.308,5.494A8.349,8.349,0,0,1,1106.67,1405.35Z" fill="#fff4e0"/>
      <g id="Grupo_8180" data-name="Grupo 8180">
        <path id="Trazado_1447" data-name="Trazado 1447" d="M1130.6,1389.269a2.149,2.149,0,0,1-1.132-1.878v-1.986a1.377,1.377,0,0,0-1.376-1.376h-4.026a1.377,1.377,0,0,0-1.376,1.376v1.986a2.149,2.149,0,0,1-1.132,1.878,12.361,12.361,0,0,0-6.324,10.872V1424.7h21.69v-24.558A12.361,12.361,0,0,0,1130.6,1389.269Zm-7.9,5.761a9.961,9.961,0,0,1-2.623,6.758,1.43,1.43,0,0,1-2.481-.969v-.678a10,10,0,0,1,2.624-6.758,1.43,1.43,0,0,1,2.48.97Z" fill="#fff4e0"/>
        <path id="Trazado_1448" data-name="Trazado 1448" d="M1129.467,1385.405v.658h-6.778v-.658a1.377,1.377,0,0,1,1.376-1.376h4.026A1.377,1.377,0,0,1,1129.467,1385.405Z" fill="#c9ac77"/>
      </g>
      <g id="Grupo_8181" data-name="Grupo 8181">
        <path id="Trazado_1449" data-name="Trazado 1449" d="M1186.721,1393.922a5.646,5.646,0,0,0-5.072-.774l-3.456,1.152a7.39,7.39,0,0,1,1.042-3.693,1.295,1.295,0,0,0-1.106-1.954h-18.513a1,1,0,0,0-.619,1.792l1.244.979a4.8,4.8,0,0,1,1.839,3.781v1.924a10.624,10.624,0,0,1-.144,1.743,10.8,10.8,0,0,1-1.779,4.442l-1.275,1.863a13.543,13.543,0,0,0,.139,15.55l1.112,1.557a5.821,5.821,0,0,0,4.73,2.434h10.543a5.824,5.824,0,0,0,4.737-2.434l1.106-1.557a13.529,13.529,0,0,0,2.526-7.735,9.823,9.823,0,0,0,5.284-8.722v-5.781A5.643,5.643,0,0,0,1186.721,1393.922Zm-.667,10.348a6.82,6.82,0,0,1-2.657,5.405,13.511,13.511,0,0,0-2-4.5l-1.28-1.863a10.874,10.874,0,0,1-1.78-4.442,10.708,10.708,0,0,1-.13-1.407l4.4-1.465a2.622,2.622,0,0,1,3.454,2.489Z" fill="#fff4e0"/>
        <path id="Trazado_1450" data-name="Trazado 1450" d="M1181.249,1420.727l-1.106,1.557a5.824,5.824,0,0,1-4.737,2.434h-10.543a5.821,5.821,0,0,1-4.73-2.434l-1.112-1.557a13.543,13.543,0,0,1-.139-15.55l1.275-1.863a10.8,10.8,0,0,0,1.779-4.442h16.4a10.874,10.874,0,0,0,1.78,4.442l1.28,1.863A13.541,13.541,0,0,1,1181.249,1420.727Z" fill="#c9ac77"/>
      </g>
      <path id="Trazado_1451" data-name="Trazado 1451" d="M1088.637,1399.862v22.24a2.985,2.985,0,0,1-2.957,3.006h-12.118a2.985,2.985,0,0,1-2.957-3.006v-22.24Z" fill="#fff4e0"/>
      <path id="Trazado_1452" data-name="Trazado 1452" d="M1103.051,1390.978v2.272h-8.391v-2.272a1.933,1.933,0,0,1,1.929-1.935h4.533A1.932,1.932,0,0,1,1103.051,1390.978Z" fill="#c9ac77"/>
      <rect id="Rectángulo_2918" data-name="Rectángulo 2918" width="15.628" height="14.426" transform="translate(1091.059 1405.873)" fill="#c9ac77"/>
      <path id="Trazado_1453" data-name="Trazado 1453" d="M1088.637,1405.272v16.83a2.985,2.985,0,0,1-2.957,3.006h-12.118a2.985,2.985,0,0,1-2.957-3.006v-16.83Z" fill="#c9ac77"/>
      <rect id="Rectángulo_2919" data-name="Rectángulo 2919" width="221.625" height="5.945" transform="translate(985.65 1424.777)" fill="#b29069"/>
      <g id="Grupo_8182" data-name="Grupo 8182">
        <path id="Trazado_1454" data-name="Trazado 1454" d="M1204.555,1508.526v-15.849a13.3,13.3,0,0,0-3.479-8.962l-3.694-4.075a8.641,8.641,0,0,1-2.22-4.953,7.631,7.631,0,0,1-.049-.878v-10.718h-40.752v10.718a7.628,7.628,0,0,1-.05.878,8.64,8.64,0,0,1-2.22,4.953l-3.694,4.075a13.3,13.3,0,0,0-3.479,8.962v15.849Z" fill="#ccb384"/>
        <path id="Trazado_1455" data-name="Trazado 1455" d="M1196.274,1485.455a2.485,2.485,0,0,1-1.593-4.394l9.939-8.283a2.485,2.485,0,0,1,3.183,3.818l-9.94,8.283A2.477,2.477,0,0,1,1196.274,1485.455Z" fill="#ccb384"/>
        <path id="Trazado_1456" data-name="Trazado 1456" d="M1153.2,1485.455a2.477,2.477,0,0,1-1.589-.576l-9.94-8.283a2.485,2.485,0,0,1,3.182-3.818l9.94,8.283a2.485,2.485,0,0,1-1.593,4.394Z" fill="#ccb384"/>
        <rect id="Rectángulo_2920" data-name="Rectángulo 2920" width="46.384" height="8.349" transform="translate(1151.544 1463.091)" fill="#ccb384"/>
        <path id="Trazado_1457" data-name="Trazado 1457" d="M1195.162,1474.687h-40.851a7.631,7.631,0,0,0,.049-.878v-2.435h40.752v2.435A7.628,7.628,0,0,0,1195.162,1474.687Z" fill="#bfa778"/>
      </g>
      <rect id="Rectángulo_2921" data-name="Rectángulo 2921" width="50.534" height="4.624" transform="translate(1000.513 1420.153)" fill="#c9ac77"/>
      <rect id="Rectángulo_2922" data-name="Rectángulo 2922" width="50.534" height="4.624" transform="translate(1002.825 1415.529)" fill="#c9ac77"/>
      <rect id="Rectángulo_2923" data-name="Rectángulo 2923" width="50.534" height="4.624" transform="translate(1000.513 1410.905)" fill="#c9ac77"/>
      <rect id="Rectángulo_2924" data-name="Rectángulo 2924" width="50.534" height="4.624" transform="translate(1002.825 1406.611)" fill="#c9ac77"/>
      <g id="Grupo_8183" data-name="Grupo 8183">
        <path id="Trazado_1458" data-name="Trazado 1458" d="M1105.328,1216.949l.241,69.975h1.185l.241-69.975Z" fill="#eedebe"/>
        <path id="Trazado_1459" data-name="Trazado 1459" d="M1100.756,1294.994c0,3.68,2.419,5.753,5.405,5.753s5.4-2.073,5.4-5.753-2.419-7.576-5.4-7.576S1100.756,1291.313,1100.756,1294.994Z" fill="#fff" fill-rule="evenodd"/>
        <path id="Trazado_1460" data-name="Trazado 1460" d="M1083.539,1293.258h46.374a118.734,118.734,0,0,0-23.752-8.486A126.954,126.954,0,0,0,1083.539,1293.258Z" fill="#eedebe" fill-rule="evenodd"/>
        <path id="Trazado_1461" data-name="Trazado 1461" d="M1035.631,1216.949l.241,102.3h1.185l.24-102.3Z" fill="#eedebe"/>
        <path id="Trazado_1462" data-name="Trazado 1462" d="M1031.059,1327.319c0,3.681,2.42,5.754,5.405,5.754s5.405-2.073,5.405-5.754-2.42-7.575-5.405-7.575S1031.059,1323.638,1031.059,1327.319Z" fill="#fff" fill-rule="evenodd"/>
        <path id="Trazado_1463" data-name="Trazado 1463" d="M1013.842,1325.583h46.375a118.827,118.827,0,0,0-23.753-8.486A127.06,127.06,0,0,0,1013.842,1325.583Z" fill="#eedebe" fill-rule="evenodd"/>
        <path id="Trazado_1464" data-name="Trazado 1464" d="M976.625,1508.526l42.362-182.185,35.671-.33,11.555,182.515Z" opacity="0.75" fill="url(#linear-gradient-6)" style="mix-blend-mode: screen;isolation: isolate"/>
        <path id="Trazado_1465" data-name="Trazado 1465" d="M1036.877,1508.526l49.065-214.546,44.022-.668,41.563,215.214Z" opacity="0.75" fill="url(#linear-gradient-7)" style="mix-blend-mode: screen;isolation: isolate"/>
      </g>
    </g>
    <g id="Grupo_8274" data-name="Grupo 8274">
      <g id="Grupo_8260" data-name="Grupo 8260">
        <g id="Grupo_8259" data-name="Grupo 8259">
          <rect id="Rectángulo_2925" data-name="Rectángulo 2925" width="13.884" height="55.807" rx="6.942" transform="matrix(0.983, 0.184, -0.184, 0.983, 591.703, 1319.529)" fill="#4c2d47"/>
          <rect id="Rectángulo_2926" data-name="Rectángulo 2926" width="13.884" height="18.248" rx="6.942" transform="translate(576.47 1362.56) rotate(-32.822)" fill="#4c2d47"/>
          <rect id="Rectángulo_2927" data-name="Rectángulo 2927" width="13.884" height="18.248" rx="6.942" transform="matrix(-0.84, -0.542, 0.542, -0.84, 662.457, 1377.895)" fill="#4c2d47"/>
          <rect id="Rectángulo_2928" data-name="Rectángulo 2928" width="13.884" height="55.807" rx="6.942" transform="translate(667.147 1374.388) rotate(169.421)" fill="#4c2d47"/>
          <g id="Grupo_8187" data-name="Grupo 8187">
            <g id="Grupo_8185" data-name="Grupo 8185">
              <path id="Trazado_1466" data-name="Trazado 1466" d="M642.824,1315.088l-8.484-4.726a11.367,11.367,0,0,0-5.528-1.435h-7.746a11.366,11.366,0,0,0-5.528,1.435l-8.484,4.726a.752.752,0,0,0,.158,1.382,76.757,76.757,0,0,0,35.454,0A.753.753,0,0,0,642.824,1315.088Z" fill="#65465e"/>
            </g>
            <g id="Grupo_8186" data-name="Grupo 8186">
              <path id="Trazado_1467" data-name="Trazado 1467" d="M647.052,1391.475h-3.1a5.874,5.874,0,0,1-5.874-5.875v-68.876a4.075,4.075,0,0,0-2.093-3.561l-1.643-.916a11.368,11.368,0,0,0-5.528-1.435h-7.746a11.367,11.367,0,0,0-5.528,1.435l-1.643.916a4.075,4.075,0,0,0-2.093,3.561V1385.6a5.874,5.874,0,0,1-5.874,5.875h-3.1c-.735,2.335-10.187,25.294-10.187,46.933,0,16.712,9.724,34.1,26.926,37.123a1.892,1.892,0,0,0,2.209-1.77l3.165-63.556,3.165,63.556a1.892,1.892,0,0,0,2.209,1.77c17.2-3.019,26.926-20.411,26.926-37.123C657.239,1416.769,647.786,1393.81,647.052,1391.475Z" fill="#341731"/>
            </g>
          </g>
          <g id="Grupo_8188" data-name="Grupo 8188">
            <path id="Trazado_1468" data-name="Trazado 1468" d="M624.939,1311.961c-8.409,0-12.9,4.126-14.973,4.432,0,0,1.91,27.231,14.973,27.231s14.973-27.231,14.973-27.231C637.841,1316.087,633.348,1311.961,624.939,1311.961Z" fill="#ece1d8"/>
          </g>
          <g id="Grupo_8189" data-name="Grupo 8189">
            <path id="Trazado_1469" data-name="Trazado 1469" d="M634.046,1311.849a3.664,3.664,0,0,0-1.814-1.536,26.784,26.784,0,0,0-14.607,0,3.662,3.662,0,0,0-1.813,1.536c-.877,1.446-2.606,4.285-3.013,4.872a22.061,22.061,0,0,0,24.26,0C636.652,1316.134,634.923,1313.3,634.046,1311.849Z" fill="#f3f0f3"/>
          </g>
          <g id="Grupo_8193" data-name="Grupo 8193">
            <g id="Grupo_8190" data-name="Grupo 8190">
              <path id="Trazado_1470" data-name="Trazado 1470" d="M630.594,1317.13a5.655,5.655,0,1,1-5.655-5.655A5.655,5.655,0,0,1,630.594,1317.13Z" fill="#ffa898"/>
            </g>
            <g id="Grupo_8191" data-name="Grupo 8191">
              <path id="Trazado_1471" data-name="Trazado 1471" d="M624.931,1330.981a7.412,7.412,0,0,1-7.413-7.412v-22.053a7.413,7.413,0,0,1,14.826,0v22.053A7.412,7.412,0,0,1,624.931,1330.981Z" fill="#ffa898"/>
            </g>
            <g id="Grupo_8192" data-name="Grupo 8192">
              <path id="Trazado_1472" data-name="Trazado 1472" d="M624.931,1294.1a7.413,7.413,0,0,0-7.413,7.413v10.676a21.13,21.13,0,0,0,14.826,0v-10.676A7.412,7.412,0,0,0,624.931,1294.1Z" fill="#f48989"/>
            </g>
          </g>
          <g id="Grupo_8199" data-name="Grupo 8199">
            <g id="Grupo_8194" data-name="Grupo 8194">
              <circle id="Elipse_2" data-name="Elipse 2" cx="5.655" cy="5.655" r="5.655" transform="translate(634.513 1408.4)" fill="#ffa898"/>
            </g>
            <g id="Grupo_8195" data-name="Grupo 8195">
              <path id="Trazado_1473" data-name="Trazado 1473" d="M615.349,1414.056a5.655,5.655,0,1,1-5.656-5.656A5.655,5.655,0,0,1,615.349,1414.056Z" fill="#ffa898"/>
            </g>
            <g id="Grupo_8196" data-name="Grupo 8196">
              <path id="Trazado_1474" data-name="Trazado 1474" d="M655.776,1326.128a4.241,4.241,0,1,1-4.241-4.242A4.241,4.241,0,0,1,655.776,1326.128Z" fill="#ffa898"/>
            </g>
            <g id="Grupo_8197" data-name="Grupo 8197">
              <path id="Trazado_1475" data-name="Trazado 1475" d="M602.585,1326.128a4.242,4.242,0,1,1-4.241-4.242A4.241,4.241,0,0,1,602.585,1326.128Z" fill="#ffa898"/>
            </g>
            <g id="Grupo_8198" data-name="Grupo 8198">
              <path id="Trazado_1476" data-name="Trazado 1476" d="M643.006,1318.494a120.441,120.441,0,0,0-36.15,0c-3.048.568-9.428,2.382-11.8,4.941a4.468,4.468,0,0,0,.246,5.981,12.389,12.389,0,0,1,3.912,6.422v0c2.488,10.312,4.871,19.3,6.737,26.54v0a52.529,52.529,0,0,1-1.09,29.781c-.947,2.794-1.243,4.769-1.216,13.373-.134,10.622,1.012,14.618,21.28,14.618h0c20.269,0,21.415-4,21.28-14.618.026-7.949-.146-10.218-1.215-13.373a52.529,52.529,0,0,1-1.09-29.781v0c1.866-7.245,4.249-16.228,6.737-26.54v0a12.4,12.4,0,0,1,3.912-6.423,4.467,4.467,0,0,0,.247-5.981C652.434,1320.876,646.053,1319.062,643.006,1318.494Z" fill="#ffa898"/>
            </g>
          </g>
          <g id="Grupo_8205" data-name="Grupo 8205">
            <g id="Grupo_8200" data-name="Grupo 8200">
              <path id="Trazado_1477" data-name="Trazado 1477" d="M655.495,1322.794c-4.4-4.751-15.806-6.117-24.432-6.483a31.727,31.727,0,0,1-6.134,4.044,31.733,31.733,0,0,1-6.135-4.044c-8.625.365-20.032,1.735-24.459,6.519a5.432,5.432,0,0,0,.315,7.264,11.449,11.449,0,0,1,3.651,5.968c6.692,27.732,11.784,37.58,5.671,55.8-1.005,2.964-1.293,5.118-1.265,13.662-.062,4.876.1,8.818,2.734,11.485,2.867,2.9,8.513,4.088,19.488,4.088h0c10.975,0,16.621-1.184,19.489-4.088,2.634-2.667,2.8-6.609,2.734-11.469.025-7.872-.121-10.3-1.264-13.675-6.129-18.266-.985-28.227,5.67-55.8a11.45,11.45,0,0,1,3.65-5.966A5.442,5.442,0,0,0,655.495,1322.794Z" fill="#fcf6f4"/>
            </g>
            <g id="Grupo_8203" data-name="Grupo 8203">
              <g id="Grupo_8201" data-name="Grupo 8201">
                <path id="Trazado_1478" data-name="Trazado 1478" d="M633.032,1313.26c-.454,2.81-5.063,5.444-8.1,7.095l5.808,6.233a.941.941,0,0,0,1.329.051c1.528-1.41,4.993-5.134,4.993-9.918-.327-.472-1.51-2.4-2.417-3.891a.734.734,0,0,0-.916-.293l-.246.1A.783.783,0,0,0,633.032,1313.26Z" fill="#f3f0f3"/>
              </g>
              <g id="Grupo_8202" data-name="Grupo 8202">
                <path id="Trazado_1479" data-name="Trazado 1479" d="M616.378,1312.641l-.246-.1a.734.734,0,0,0-.916.293c-.907,1.49-2.09,3.419-2.417,3.891,0,4.784,3.465,8.508,4.993,9.918a.941.941,0,0,0,1.329-.051l5.808-6.233c-3.04-1.651-7.65-4.285-8.1-7.095A.783.783,0,0,0,616.378,1312.641Z" fill="#f3f0f3"/>
              </g>
            </g>
            <g id="Grupo_8204" data-name="Grupo 8204">
              <path id="Trazado_1480" data-name="Trazado 1480" d="M632.066,1326.639a.941.941,0,0,1-1.329-.051l-5.808-6.233-5.808,6.233a.941.941,0,0,1-1.329.051c-1.52-1.4-4.955-5.094-4.992-9.841a15.3,15.3,0,0,0,4.353,10.534,1.875,1.875,0,0,0,1.277.5h0a1.894,1.894,0,0,0,1.38-.6l5.119-5.492,5.118,5.492a1.894,1.894,0,0,0,1.381.6,1.875,1.875,0,0,0,1.277-.5,15.3,15.3,0,0,0,4.354-10.611h0C637.059,1321.505,633.594,1325.229,632.066,1326.639Z" fill="#f4eee8"/>
            </g>
          </g>
          <g id="Grupo_8209" data-name="Grupo 8209">
            <g id="Grupo_8206" data-name="Grupo 8206">
              <path id="Trazado_1481" data-name="Trazado 1481" d="M616.736,1319.236c-.365,0-1.165,1.741-1.165,3.888s.8,3.888,1.165,3.888c3.725,0,9.373-3.888,9.373-3.888S620.461,1319.236,616.736,1319.236Z" fill="#ece1d8"/>
            </g>
            <g id="Grupo_8207" data-name="Grupo 8207">
              <path id="Trazado_1482" data-name="Trazado 1482" d="M633.126,1319.236c.365,0,1.165,1.741,1.165,3.888s-.8,3.888-1.165,3.888c-3.725,0-9.373-3.888-9.373-3.888S629.4,1319.236,633.126,1319.236Z" fill="#ece1d8"/>
            </g>
            <g id="Grupo_8208" data-name="Grupo 8208">
              <rect id="Rectángulo_2929" data-name="Rectángulo 2929" width="4.241" height="4.909" rx="1.561" transform="translate(622.81 1320.669)" fill="#ece1d8"/>
            </g>
          </g>
          <g id="Grupo_8210" data-name="Grupo 8210">
            <path id="Trazado_1483" data-name="Trazado 1483" d="M644.758,1417.338c-3.006,3.044-8.567,4.232-19.821,4.232h-.01c-11.263,0-16.815-1.188-19.821-4.232-2.762-2.8-2.932-6.833-2.875-11.819-.019-8.764.318-10.693,1.12-13.265a1.888,1.888,0,0,1,1.8-1.326h39.554a1.883,1.883,0,0,1,1.8,1.326c.923,3.015,1.147,4.829,1.117,13.283C647.69,1410.505,647.52,1414.539,644.758,1417.338Z" fill="#43253f"/>
          </g>
          <g id="Grupo_8211" data-name="Grupo 8211">
            <path id="Trazado_1484" data-name="Trazado 1484" d="M598.705,1320.129c1.867,5.513,3.773,15.756,1.187,22.65a3.612,3.612,0,0,0-.085,2.139c1.171,4.655,2.289,8.963,3.321,12.938l1.275,4.926a50.756,50.756,0,0,1-1.056,28.868,19.678,19.678,0,0,0-.869,3.427.953.953,0,0,0,.648,1.059l11.793,3.718a1.886,1.886,0,0,0,2.02-.6l7.273-8.786a.942.942,0,0,1,1.453,0l7.252,8.783a1.888,1.888,0,0,0,2.021.6l11.8-3.72a.95.95,0,0,0,.646-1.065,20.621,20.621,0,0,0-.865-3.414,50.771,50.771,0,0,1-1.057-28.874q.6-2.351,1.279-4.941c1.028-3.965,2.143-8.259,3.311-12.9a3.763,3.763,0,0,0-.108-2.22c-2.556-6.9-.648-17.117,1.216-22.61a.927.927,0,0,0-.525-1.158,45.333,45.333,0,0,0-10.728-2.56,13.757,13.757,0,0,1-3.126-1.386.376.376,0,0,0-.546.392c.25,1.286.044,3.848-.992,7.374-2.151,7.322-5.785,16.463-10.312,20.852-4.528-4.389-8.162-13.53-10.313-20.852-1.028-3.5-1.238-6.049-1-7.344a.375.375,0,0,0-.534-.414,13.506,13.506,0,0,1-3.117,1.379h0a45.368,45.368,0,0,0-10.739,2.575A.929.929,0,0,0,598.705,1320.129Z" fill="#ece1d8"/>
          </g>
          <g id="Grupo_8225" data-name="Grupo 8225">
            <g id="Grupo_8212" data-name="Grupo 8212">
              <path id="Trazado_1485" data-name="Trazado 1485" d="M643.4,1316.363c-2.2-.41-4.636-.73-7.3-.961a10.7,10.7,0,0,1,.7,3.585c0,4.932-5.235,15.624-9.75,59.924.031,2.583,6.2,14.023,8.387,18.006a1.882,1.882,0,0,0,2.245.88l10.407-3.458c-.455-1.251-.8-2.154-.963-2.641l-.075-.223c-5.887-17.546-1.156-27.141,5.76-55.368a10.287,10.287,0,0,1,3.25-5.131,6.679,6.679,0,0,0,.332-9.015C652.878,1318.164,643.788,1316.435,643.4,1316.363Z" fill="#4c2d47"/>
            </g>
            <g id="Grupo_8213" data-name="Grupo 8213">
              <path id="Trazado_1486" data-name="Trazado 1486" d="M606.475,1316.363c2.2-.41,4.635-.73,7.3-.961a10.68,10.68,0,0,0-.695,3.585c0,4.932,5.235,15.624,9.749,59.924-.03,2.583-6.2,14.023-8.386,18.006a1.882,1.882,0,0,1-2.245.88l-10.408-3.458c.456-1.251.8-2.154.965-2.641.024-.074.048-.148.074-.223,5.886-17.546,1.156-27.141-5.76-55.368a10.28,10.28,0,0,0-3.25-5.131,6.679,6.679,0,0,1-.332-9.015C597,1318.164,606.09,1316.435,606.475,1316.363Z" fill="#4c2d47"/>
            </g>
            <g id="Grupo_8214" data-name="Grupo 8214">
              <path id="Trazado_1487" data-name="Trazado 1487" d="M638.36,1371.135a1.61,1.61,0,1,1-1.61-1.611A1.61,1.61,0,0,1,638.36,1371.135Z" fill="#341731"/>
            </g>
            <g id="Grupo_8215" data-name="Grupo 8215">
              <path id="Trazado_1488" data-name="Trazado 1488" d="M639.232,1390.928a1.61,1.61,0,1,1-1.61-1.61A1.61,1.61,0,0,1,639.232,1390.928Z" fill="#341731"/>
            </g>
            <g id="Grupo_8216" data-name="Grupo 8216">
              <path id="Trazado_1489" data-name="Trazado 1489" d="M635.611,1381.345a1.61,1.61,0,1,1-1.61-1.61A1.611,1.611,0,0,1,635.611,1381.345Z" fill="#341731"/>
            </g>
            <g id="Grupo_8217" data-name="Grupo 8217">
              <path id="Trazado_1490" data-name="Trazado 1490" d="M645.9,1352.387H638.36a.471.471,0,0,1-.471-.471v-1.326a1.281,1.281,0,0,1,1.281-1.282h5.92a1.282,1.282,0,0,1,1.282,1.282v1.326A.471.471,0,0,1,645.9,1352.387Z" fill="#341731"/>
            </g>
            <g id="Grupo_8218" data-name="Grupo 8218">
              <path id="Trazado_1491" data-name="Trazado 1491" d="M611.518,1371.135a1.61,1.61,0,1,0,1.61-1.611A1.61,1.61,0,0,0,611.518,1371.135Z" fill="#341731"/>
            </g>
            <g id="Grupo_8219" data-name="Grupo 8219">
              <path id="Trazado_1492" data-name="Trazado 1492" d="M610.646,1390.928a1.611,1.611,0,1,0,1.61-1.61A1.61,1.61,0,0,0,610.646,1390.928Z" fill="#341731"/>
            </g>
            <g id="Grupo_8220" data-name="Grupo 8220">
              <path id="Trazado_1493" data-name="Trazado 1493" d="M614.267,1381.345a1.61,1.61,0,1,0,1.61-1.61A1.61,1.61,0,0,0,614.267,1381.345Z" fill="#341731"/>
            </g>
            <g id="Grupo_8221" data-name="Grupo 8221">
              <path id="Trazado_1494" data-name="Trazado 1494" d="M642.824,1315.088l-8.484-4.726a11.453,11.453,0,0,0-1.451-.678c1.412,1.885,3.361,4.956,3.815,8.029a50.235,50.235,0,0,0,5.962-1.243A.753.753,0,0,0,642.824,1315.088Z" fill="#65465e"/>
            </g>
            <g id="Grupo_8222" data-name="Grupo 8222">
              <path id="Trazado_1495" data-name="Trazado 1495" d="M646.493,1322.472a2.829,2.829,0,0,1-1.787-.9L640.537,1317h0c-1.062.237-2.341.485-3.833.711a8.7,8.7,0,0,1,.1,1.274c0,4.932-5.235,15.624-9.75,59.924l24.981-54.6a.942.942,0,0,0-.756-1.329Z" fill="#65465e"/>
            </g>
            <g id="Grupo_8223" data-name="Grupo 8223">
              <path id="Trazado_1496" data-name="Trazado 1496" d="M607.054,1315.088l8.484-4.726a11.452,11.452,0,0,1,1.451-.678c-1.412,1.885-3.362,4.956-3.815,8.029a50.191,50.191,0,0,1-5.962-1.243A.752.752,0,0,1,607.054,1315.088Z" fill="#65465e"/>
            </g>
            <g id="Grupo_8224" data-name="Grupo 8224">
              <path id="Trazado_1497" data-name="Trazado 1497" d="M603.385,1322.472a2.827,2.827,0,0,0,1.787-.9l4.169-4.566h0c1.062.237,2.341.485,3.833.711a8.844,8.844,0,0,0-.1,1.274c0,4.932,5.235,15.624,9.749,59.924l-24.98-54.6a.942.942,0,0,1,.757-1.329Z" fill="#65465e"/>
            </g>
          </g>
          <g id="Grupo_8258" data-name="Grupo 8258">
            <g id="Grupo_8226" data-name="Grupo 8226">
              <path id="Trazado_1498" data-name="Trazado 1498" d="M595.907,1263.508c2.189-2.106,4.016-.137,29.032-.137s26.842-1.969,29.032.137c1.833,1.763-.685,8.963-1.512,10.206-2.9,4.359-13.8,6.976-27.52,6.976s-24.619-2.617-27.52-6.976C596.592,1272.471,594.074,1265.271,595.907,1263.508Z" fill="#4c2d47"/>
            </g>
            <g id="Grupo_8237" data-name="Grupo 8237">
              <g id="Grupo_8227" data-name="Grupo 8227">
                <path id="Trazado_1499" data-name="Trazado 1499" d="M603.679,1281.414c1.745-.314,3.7,2.432,4.362,6.132s-.212,6.953-1.956,7.266-3.7-2.432-4.363-6.132S601.934,1281.727,603.679,1281.414Z" fill="#f8918c"/>
              </g>
              <g id="Grupo_8228" data-name="Grupo 8228">
                <path id="Trazado_1500" data-name="Trazado 1500" d="M646.215,1281.414c-1.745-.314-3.7,2.432-4.363,6.132s.212,6.953,1.957,7.266,3.7-2.432,4.363-6.132S647.96,1281.727,646.215,1281.414Z" fill="#f8918c"/>
              </g>
              <g id="Grupo_8229" data-name="Grupo 8229">
                <path id="Trazado_1501" data-name="Trazado 1501" d="M624.939,1257.535c16.689,0,20.756,11.762,20.756,26.271s-9.294,26.272-20.756,26.272-20.756-11.763-20.756-26.272S608.249,1257.535,624.939,1257.535Z" fill="#ffa898"/>
              </g>
              <g id="Grupo_8230" data-name="Grupo 8230">
                <path id="Trazado_1502" data-name="Trazado 1502" d="M617.867,1296.757c.02.022,1.983,2.226,7.07,2.226,5.062,0,7.032-2.178,7.073-2.225a.741.741,0,0,1,1.136.952c-.094.114-2.365,2.756-8.209,2.756s-8.111-2.642-8.2-2.755a.741.741,0,0,1,1.134-.954Z" fill="#dd7d80"/>
              </g>
              <g id="Grupo_8231" data-name="Grupo 8231">
                <path id="Trazado_1503" data-name="Trazado 1503" d="M637.939,1287.257v1.014a1.623,1.623,0,0,1-1.623,1.622h0a1.623,1.623,0,0,1-1.623-1.622v-1.013a1.624,1.624,0,0,1,3.247,0Z" fill="#532442"/>
              </g>
              <g id="Grupo_8232" data-name="Grupo 8232">
                <path id="Trazado_1504" data-name="Trazado 1504" d="M613.563,1289.893a1.623,1.623,0,0,1-1.623-1.622v-1.014a1.624,1.624,0,0,1,3.247,0v1.011A1.624,1.624,0,0,1,613.563,1289.893Z" fill="#532442"/>
              </g>
              <g id="Grupo_8233" data-name="Grupo 8233">
                <path id="Trazado_1505" data-name="Trazado 1505" d="M608.4,1282.372c2.558-2.277,7.251-1.641,7.449-1.613a.943.943,0,0,1-.265,1.867c-1.112-.157-4.351-.252-5.93,1.155a.943.943,0,0,1-1.254-1.409Z" fill="#7d2e1e"/>
              </g>
              <g id="Grupo_8234" data-name="Grupo 8234">
                <path id="Trazado_1506" data-name="Trazado 1506" d="M634.3,1282.626a.943.943,0,0,1-.265-1.867c.2-.027,4.892-.663,7.449,1.613a.943.943,0,0,1-1.254,1.409C638.649,1282.375,635.411,1282.471,634.3,1282.626Z" fill="#7d2e1e"/>
              </g>
              <g id="Grupo_8235" data-name="Grupo 8235">
                <path id="Trazado_1507" data-name="Trazado 1507" d="M615.151,1291.619a1.483,1.483,0,0,1,.977,2.8c-.61.218-1.595.814-1.77,1.4a1.483,1.483,0,1,1-2.841-.85C612.2,1292.7,614.851,1291.723,615.151,1291.619Z" fill="#f8918c"/>
              </g>
              <g id="Grupo_8236" data-name="Grupo 8236">
                <path id="Trazado_1508" data-name="Trazado 1508" d="M632.848,1292.529a1.484,1.484,0,0,1,1.88-.91c.3.1,2.955,1.082,3.634,3.351a1.483,1.483,0,1,1-2.841.85c-.175-.587-1.16-1.183-1.77-1.4A1.486,1.486,0,0,1,632.848,1292.529Z" fill="#f8918c"/>
              </g>
            </g>
            <g id="Grupo_8248" data-name="Grupo 8248">
              <g id="Grupo_8238" data-name="Grupo 8238">
                <path id="Trazado_1509" data-name="Trazado 1509" d="M603.671,1281.414c1.745-.314,3.7,2.432,4.362,6.132s-.212,6.953-1.956,7.266-3.7-2.432-4.363-6.132S601.926,1281.727,603.671,1281.414Z" fill="#f8918c"/>
              </g>
              <g id="Grupo_8239" data-name="Grupo 8239">
                <path id="Trazado_1510" data-name="Trazado 1510" d="M646.207,1281.414c-1.745-.314-3.7,2.432-4.363,6.132s.212,6.953,1.957,7.266,3.7-2.432,4.363-6.132S647.952,1281.727,646.207,1281.414Z" fill="#f8918c"/>
              </g>
              <g id="Grupo_8240" data-name="Grupo 8240">
                <path id="Trazado_1511" data-name="Trazado 1511" d="M624.931,1257.535c16.689,0,20.755,11.762,20.755,26.271s-9.293,26.272-20.755,26.272-20.756-11.763-20.756-26.272S608.241,1257.535,624.931,1257.535Z" fill="#ffa898"/>
              </g>
              <g id="Grupo_8241" data-name="Grupo 8241">
                <path id="Trazado_1512" data-name="Trazado 1512" d="M634.657,1286.06c0,.6.756,1.118,1.649,1.118s1.65-.513,1.65-1.118a.707.707,0,1,1,1.414,0,3.119,3.119,0,0,1-6.127,0,.707.707,0,1,1,1.414,0Z" fill="#532442"/>
              </g>
              <g id="Grupo_8242" data-name="Grupo 8242">
                <path id="Trazado_1513" data-name="Trazado 1513" d="M613.555,1288.592a2.84,2.84,0,0,1-3.064-2.532.707.707,0,1,1,1.414,0c0,.6.756,1.118,1.65,1.118s1.649-.513,1.649-1.118a.707.707,0,1,1,1.414,0A2.839,2.839,0,0,1,613.555,1288.592Z" fill="#532442"/>
              </g>
              <g id="Grupo_8243" data-name="Grupo 8243">
                <path id="Trazado_1514" data-name="Trazado 1514" d="M617.859,1299.479a36.035,36.035,0,0,1,7.07-.5,39.615,39.615,0,0,1,7.073.5.741.741,0,0,1,1.136.953c-.094.113-2.365.033-8.209.033s-8.111.08-8.2-.033a.741.741,0,0,1,1.134-.954Z" fill="#dd7d80"/>
              </g>
              <g id="Grupo_8244" data-name="Grupo 8244">
                <path id="Trazado_1515" data-name="Trazado 1515" d="M608.388,1282.372c2.558-2.277,7.251-1.641,7.449-1.613a.943.943,0,0,1-.265,1.867c-1.112-.157-4.351-.252-5.931,1.155a.943.943,0,0,1-1.253-1.409Z" fill="#7d2e1e"/>
              </g>
              <g id="Grupo_8245" data-name="Grupo 8245">
                <path id="Trazado_1516" data-name="Trazado 1516" d="M634.291,1282.626a.943.943,0,0,1-.265-1.867c.2-.027,4.892-.663,7.449,1.613a.943.943,0,0,1-1.254,1.409C638.641,1282.375,635.4,1282.471,634.291,1282.626Z" fill="#7d2e1e"/>
              </g>
              <g id="Grupo_8246" data-name="Grupo 8246">
                <path id="Trazado_1517" data-name="Trazado 1517" d="M615.142,1291.619a1.483,1.483,0,0,1,.978,2.8c-.61.218-1.595.814-1.771,1.4a1.482,1.482,0,1,1-2.84-.85C612.188,1292.7,614.843,1291.723,615.142,1291.619Z" fill="#f8918c"/>
              </g>
              <g id="Grupo_8247" data-name="Grupo 8247">
                <path id="Trazado_1518" data-name="Trazado 1518" d="M632.84,1292.529a1.484,1.484,0,0,1,1.88-.91c.3.1,2.955,1.082,3.634,3.351a1.483,1.483,0,1,1-2.841.85c-.175-.587-1.16-1.183-1.77-1.4A1.486,1.486,0,0,1,632.84,1292.529Z" fill="#f8918c"/>
              </g>
            </g>
            <g id="Grupo_8253" data-name="Grupo 8253">
              <g id="Grupo_8249" data-name="Grupo 8249">
                <path id="Trazado_1519" data-name="Trazado 1519" d="M624.937,1251.167c13.235,0,16.039,9.055,15.365,12.359q-.152-.179-.293-.339a1.977,1.977,0,0,0-1.489-.68H611.355a1.98,1.98,0,0,0-1.49.68c-.093.107-.191.22-.292.339C608.9,1260.222,611.7,1251.167,624.937,1251.167Z" fill="#7d2e1e"/>
              </g>
              <g id="Grupo_8250" data-name="Grupo 8250">
                <path id="Trazado_1520" data-name="Trazado 1520" d="M604.236,1281.034c.44,11.286,3.284,15.74,7.264,18.122a1.335,1.335,0,0,0,1.766-.407c1.133-1.591,3.834-4.621,11.671-4.621s10.539,3.03,11.672,4.621a1.335,1.335,0,0,0,1.766.407c3.98-2.382,6.824-6.836,7.264-18.122.422,3.171.214,24.115-6.7,34.138-2.459,3.563-11.043,3.366-14,3.366s-11.539.2-14-3.366C604.022,1305.149,603.814,1284.2,604.236,1281.034Zm17.625,21.287a1.105,1.105,0,0,0,.818-.218,3.932,3.932,0,0,1,2.25-.6,3.978,3.978,0,0,1,2.268.6,1.1,1.1,0,0,0,.814.214c2.814-.417,5.744-1.961,5.3-3.408-.406-1.333-2.085-1.882-4.48-1.884-1.594,0-2.553-1.431-3.9-1.431s-2.3,1.429-3.9,1.431c-2.4,0-4.073.551-4.48,1.884C616.12,1300.36,619.048,1301.9,621.861,1302.321Z" fill="#934023"/>
              </g>
              <g id="Grupo_8251" data-name="Grupo 8251">
                <path id="Trazado_1521" data-name="Trazado 1521" d="M610.358,1264.04a.167.167,0,0,0-.122-.272c-1.274-.039-3,.7-5.012,6.4-2.192,6.214-1.239,9.042-.988,10.869.646-4.259,1.823-4.212,2.491-7.9C607.378,1269.528,607.72,1267.32,610.358,1264.04Z" fill="#934023"/>
              </g>
              <g id="Grupo_8252" data-name="Grupo 8252">
                <path id="Trazado_1522" data-name="Trazado 1522" d="M639.517,1264.04a.167.167,0,0,1,.122-.272c1.274-.039,3,.7,5.011,6.4,2.193,6.214,1.24,9.042.989,10.869-.646-4.259-1.823-4.212-2.491-7.9C642.5,1269.528,642.155,1267.32,639.517,1264.04Z" fill="#934023"/>
              </g>
            </g>
            <g id="Grupo_8257" data-name="Grupo 8257">
              <g id="Grupo_8254" data-name="Grupo 8254">
                <path id="Trazado_1523" data-name="Trazado 1523" d="M644.464,1242.449a145.272,145.272,0,0,0,.469,25.514.939.939,0,0,1-1.312.972c-3.851-1.689-10.777-2.815-18.682-2.815s-14.831,1.126-18.683,2.815a.939.939,0,0,1-1.312-.972,145.216,145.216,0,0,0,.47-25.514h.007a1.029,1.029,0,0,1-.012-.109c0-2.484,8.744-4.5,19.53-4.5s19.53,2.013,19.53,4.5a1.029,1.029,0,0,1-.012.109Z" fill="#4c2d47"/>
              </g>
              <g id="Grupo_8255" data-name="Grupo 8255">
                <path id="Trazado_1524" data-name="Trazado 1524" d="M624.939,1266.12c-7.907,0-14.834,1.127-18.685,2.816a.938.938,0,0,1-1.311-.972c.373-3.332.59-6.572.707-9.564l0-.017c0-2.31,8.635-4.182,19.287-4.182s19.287,1.872,19.287,4.182l0,.02c.116,2.99.334,6.23.707,9.561a.938.938,0,0,1-1.311.972C639.773,1267.247,632.846,1266.12,624.939,1266.12Z" fill="#65465e"/>
              </g>
              <g id="Grupo_8256" data-name="Grupo 8256">
                <path id="Trazado_1525" data-name="Trazado 1525" d="M595.907,1263.508c2.189-2.106,4.016-.137,29.032-.137s26.842-1.969,29.032.137c1.833,1.763-.685,8.963-1.512,10.206a6.248,6.248,0,0,1-.726.89,1.564,1.564,0,0,1-2.186-.006c-4.043-3.729-13.537-6.348-24.608-6.348s-20.565,2.619-24.608,6.348a1.564,1.564,0,0,1-2.186.006,6.248,6.248,0,0,1-.726-.89C596.592,1272.471,594.074,1265.271,595.907,1263.508Z" fill="#4c2d47"/>
              </g>
            </g>
          </g>
          <path id="Trazado_1526" data-name="Trazado 1526" d="M649.319,1508.526l-2.081-94.624a7.019,7.019,0,0,0-7.051-6.918h-.14a6.453,6.453,0,0,0-2.83.625,7.126,7.126,0,0,0-4.118,6.6l2.073,94.313Z" fill="#43253f"/>
          <path id="Trazado_1527" data-name="Trazado 1527" d="M614.692,1508.526l2.073-94.313a7.127,7.127,0,0,0-4.117-6.6,6.464,6.464,0,0,0-2.831-.625h-.149a7.009,7.009,0,0,0-7.041,6.918l-2.082,94.624Z" fill="#43253f"/>
        </g>
      </g>
      <g id="Grupo_8264" data-name="Grupo 8264">
        <path id="Trazado_1528" data-name="Trazado 1528" d="M599.128,1424.235a31.947,31.947,0,0,1,23.365,10.112,2.9,2.9,0,0,0,4.223,0,31.958,31.958,0,0,1,23.366-10.112c3.961,0,10.4-29.744,10.4-39.078a31.8,31.8,0,0,1,8.937-22.145,2.387,2.387,0,0,0,.482-2.634A59.515,59.515,0,0,0,658.2,1343a2.4,2.4,0,0,0-2.566-.573,15.426,15.426,0,0,1-20.7-11.577,2.347,2.347,0,0,0-1.843-1.871,44.92,44.92,0,0,0-16.871-.19,2.357,2.357,0,0,0-1.905,1.914,15.418,15.418,0,0,1-21.248,11.511,2.4,2.4,0,0,0-2.66.487,59.316,59.316,0,0,0-11.606,16.815,2.362,2.362,0,0,0,.5,2.691,31.819,31.819,0,0,1,9.738,22.948C589.031,1394.9,594.843,1424.235,599.128,1424.235Z" fill="#c35d1d"/>
        <path id="Trazado_1529" data-name="Trazado 1529" d="M591.812,1420.433" fill="#c35d1d"/>
        <path id="Trazado_1530" data-name="Trazado 1530" d="M678.183,1408.73" fill="#bc5214"/>
        <g id="Grupo_8263" data-name="Grupo 8263">
          <g id="Grupo_8261" data-name="Grupo 8261">
            <path id="Trazado_1531" data-name="Trazado 1531" d="M666.837,1350.568a11.089,11.089,0,0,0-3.716-.936l-4.489-.325a1.553,1.553,0,0,0-1.663,1.438,1.465,1.465,0,0,0,0,.265.994.994,0,0,1-1.063,1.089l-.093-.006a1.555,1.555,0,0,0-.5,3.057,1.485,1.485,0,0,0,.277.045.307.307,0,0,1,.219.5,1.522,1.522,0,0,0-.335.85,1.56,1.56,0,0,0,1.438,1.665.344.344,0,0,1,.255.542,1.253,1.253,0,0,0-.232.67,1.273,1.273,0,0,0,1.208,1.333l3.2.159a1.4,1.4,0,0,1,1.328,1.522c-.318,3.741.8,6.931,2.957,7.741,2.728,1.023,6.083-2.154,7.489-7.1C675.813,1353.623,675.039,1354.239,666.837,1350.568Z" fill="#ffa898"/>
          </g>
          <g id="Grupo_8262" data-name="Grupo 8262">
            <path id="Trazado_1532" data-name="Trazado 1532" d="M581.767,1350.568a11.1,11.1,0,0,1,3.716-.936l4.489-.325a1.557,1.557,0,0,1,1.661,1.7.994.994,0,0,0,1.062,1.089l.094-.006a1.555,1.555,0,0,1,.5,3.057,1.485,1.485,0,0,1-.277.045.31.31,0,0,0-.262.184.305.305,0,0,0,.044.315,1.528,1.528,0,0,1,.334.85,1.56,1.56,0,0,1-1.438,1.665.344.344,0,0,0-.255.542,1.253,1.253,0,0,1,.233.67,1.273,1.273,0,0,1-1.208,1.333l-3.2.159a1.4,1.4,0,0,0-1.329,1.522c.318,3.741-.8,6.931-2.957,7.741-2.728,1.023-6.082-2.154-7.489-7.1C572.791,1353.623,573.565,1354.239,581.767,1350.568Z" fill="#ffa898"/>
          </g>
        </g>
      </g>
      <g id="Grupo_8271" data-name="Grupo 8271">
        <rect id="Rectángulo_2930" data-name="Rectángulo 2930" width="88.705" height="7.486" transform="translate(785.059 1473.1)" fill="#70564e"/>
        <rect id="Rectángulo_2931" data-name="Rectángulo 2931" width="88.705" height="8.166" transform="translate(779.941 1464.933)" fill="#c38762"/>
        <rect id="Rectángulo_2932" data-name="Rectángulo 2932" width="88.705" height="8.166" transform="translate(783.353 1456.767)" fill="#70564e"/>
        <path id="Trazado_1533" data-name="Trazado 1533" d="M869.926,1448.6l-88.705,1.706v6.46h88.705Z" fill="#c38762"/>
        <g id="Grupo_8269" data-name="Grupo 8269">
          <g id="Grupo_8267" data-name="Grupo 8267">
            <path id="Trazado_1534" data-name="Trazado 1534" d="M872.531,1508.526l-3.579-27.722-10.32.732,3.484,26.99Z" fill="#6f3943"/>
            <path id="Trazado_1535" data-name="Trazado 1535" d="M576.883,1508.526l3.484-26.99-10.321-.732-3.579,27.722Z" fill="#6f3943"/>
            <g id="Grupo_8265" data-name="Grupo 8265">
              <rect id="Rectángulo_2933" data-name="Rectángulo 2933" width="295.103" height="8.476" transform="translate(866.603 1499.313) rotate(180)" fill="#6f3943"/>
            </g>
            <g id="Grupo_8266" data-name="Grupo 8266">
              <rect id="Rectángulo_2934" data-name="Rectángulo 2934" width="332.241" height="11.52" transform="translate(885.621 1492.185) rotate(180)" fill="#003185"/>
            </g>
          </g>
          <g id="Grupo_8268" data-name="Grupo 8268">
            <path id="Trazado_1536" data-name="Trazado 1536" d="M664.917,1387.884l-.484,6.046-1.31,16.124-3.91,48.37-1.794,22.17H591.8L590,1458.425l-3.91-48.37-1.31-16.124-.484-6.046Z" fill="#aadcff"/>
            <path id="Trazado_1537" data-name="Trazado 1537" d="M663.123,1410.054l-3.91,48.37H590l-3.91-48.37Z" fill="#63beff"/>
            <path id="Trazado_1538" data-name="Trazado 1538" d="M670.339,1386.46l-.549,7.471H579.426l-.549-7.471Z" fill="#09f"/>
            <text id="Mercurio" transform="translate(624.608 1438.322)" fill="#fff" font-size="14.176" font-family="Bahnschrift" letter-spacing="0.05em"><tspan x="-30.812" y="0">Mercurio</tspan></text>
          </g>
        </g>
        <g id="Grupo_8270" data-name="Grupo 8270">
          <rect id="Rectángulo_2935" data-name="Rectángulo 2935" width="84.867" height="3.412" transform="translate(689.957 1477.174)" fill="#a33f03"/>
          <path id="Trazado_1539" data-name="Trazado 1539" d="M694.841,1508.526h74.737a28.7,28.7,0,0,1-2.8-31.352H697.653a28.676,28.676,0,0,1-2.812,31.352Z" fill="#c35d1d"/>
        </g>
      </g>
      <g id="Grupo_8272" data-name="Grupo 8272" opacity="0.5">
        <path id="Trazado_1540" data-name="Trazado 1540" d="M641.885,1298.261c1.921-1.392,4.633-1,6.778.014,6.881,3.252,9.913,12.758,6.186,19.394,1.106,2.269.163,5.151-1.7,6.85a11.7,11.7,0,0,1-6.962,2.609c-4.569.39-7.361-1.27-10.474-4.2-2.4,2.22-5.422,3.723-8.735,2.445a9.736,9.736,0,0,1-5.538-6.324,7.455,7.455,0,0,0-.694-1.924,1.716,1.716,0,0,0-1.713-.878c-1.42,3.459-.832,7.6-2.756,10.809a.721.721,0,0,1-.36.354.648.648,0,0,1-.516-.124,4.522,4.522,0,0,1-1.587-2.533q-1.3-3.825-2.238-7.76c-.143-.6-.544-1.367-1.133-1.185a1.17,1.17,0,0,0-.586.628,5.932,5.932,0,0,1-2.239,2.563c-3.03,1.588-5.393-2.687-5.974-4.986a3.941,3.941,0,0,0-.648-1.669,4.6,4.6,0,0,0-1.365-.879,8.114,8.114,0,0,1-3.616-5.42,8.964,8.964,0,0,1,1.109-7.332c1.519-2.051,4.615-3.005,6.758-1.619a4.82,4.82,0,0,1,3.174-5.394,7.13,7.13,0,0,1,6.475,1.236,14.212,14.212,0,0,1,4.109,5.414c-2.061-4.292,7.819-7.748,8.157-3.142a8.191,8.191,0,0,1,16.092,3.048Z" fill="#c7c8c9"/>
        <path id="Trazado_1541" data-name="Trazado 1541" d="M653.145,1324.519c1.867-1.7,2.81-4.581,1.7-6.85,3.727-6.636.7-16.142-6.186-19.394-2.145-1.014-4.857-1.406-6.778-.014.716-.519-.241-3.573-.49-4.2a8.9,8.9,0,0,0-2.616-3.575,8.677,8.677,0,0,0-9.426-1,7.157,7.157,0,0,0-3.417,5.151c.082-.624-1.41-1.682-1.878-1.891a6.075,6.075,0,0,0-2.739-.408,4.539,4.539,0,0,0-4.146,3.868,11.312,11.312,0,0,0-2.39-3.657,8.03,8.03,0,0,0-1.447-1.2,6.327,6.327,0,0,0-5.642-.506c-2.3.927-4.462,3.709-3.816,6.249-5.07-3.279-9.356,3.829-8.537,8.156a8.511,8.511,0,0,0,4.65,6.012c-1.736-1.279-1.88-3.776-1.861-5.932.015-1.622.078-3.384,1.108-4.637a4.318,4.318,0,0,1,4.522-1.2,6.532,6.532,0,0,1,3.66,3.167c-1.225-2.2-.284-7.152,2.456-7.888a3.992,3.992,0,0,1,3.444.879,8.412,8.412,0,0,1,2.158,2.954c.189.387.36.783.522,1.182a5.858,5.858,0,0,1,1.686.09,5.529,5.529,0,0,1,7.191-2.405c.955.415,1.954,1.881,2.867,1.989a4.453,4.453,0,0,1,4.374-4.322,6.271,6.271,0,0,1,5.306,2.724,8.117,8.117,0,0,1,1.349,3.433,6.15,6.15,0,0,1,2.768,1.685,8.734,8.734,0,0,1,9.325,5.362,6.276,6.276,0,0,1,.342,4.1,4.006,4.006,0,0,1-2.837,2.816,6.168,6.168,0,0,1-2.78,11.155C646.826,1328.534,652.013,1325.549,653.145,1324.519Z" fill="#f9f9f9"/>
        <path id="Trazado_1542" data-name="Trazado 1542" d="M634.027,1302.832a1.128,1.128,0,0,1-.223-1.262,2.342,2.342,0,0,1,.911-.995,5.35,5.35,0,0,1,4.765-.555,8.273,8.273,0,0,1,3.149,2.369c1.8,2.016,3.214,4.774,2.44,7.365a2.329,2.329,0,0,1-.446.887,1.542,1.542,0,0,1-1.319.507,11.551,11.551,0,0,0-1.535-5.11,6.293,6.293,0,0,0-4.275-2.991,15.346,15.346,0,0,0-2.634.005,1.656,1.656,0,0,1-.5-.04A.883.883,0,0,1,634.027,1302.832Z" fill="#f9f9f9"/>
        <path id="Trazado_1543" data-name="Trazado 1543" d="M646.82,1327.156c-3.882.055-7.693-3.465-9.426-6.616a5.979,5.979,0,0,1-1.726-.369,5.964,5.964,0,0,1-4.705,3.12,7.792,7.792,0,0,1-5.623-2.286,23.109,23.109,0,0,1-3.734-4.975l-1.938-3.134a3.747,3.747,0,0,1-2.355-.053c-1.85,3.906-1.231,8.906-2.565,13.181.234-.751-.515-2.615-.686-3.4-.265-1.209-.557-2.413-.911-3.6-.462-1.546-1.4-5.543-2.952-6.262a29.085,29.085,0,0,1-.982,2.981,3.662,3.662,0,0,1-1.2,1.6c-1.238.82-2.95.141-4.019-.889a14.509,14.509,0,0,1-2.744-4.325,5.225,5.225,0,0,0-.377,2.234,6.9,6.9,0,0,0,3.128,5.833c2.4,1.4,4.743.437,6.394-1.472,1.485,3.25,1.519,7.2,3.8,9.947.569.685,1.484,1.308,2.295.94,1.127-.511.938-2.095,1.144-3.094a7.324,7.324,0,0,1,1.95-4.01,1.189,1.189,0,0,1,.6-.345c.62-.091,1.015.632,1.2,1.23a37.359,37.359,0,0,1,1.513,7.542,19.937,19.937,0,0,0,1.017,5.95c.1.229.259.49.508.482a.613.613,0,0,0,.407-.255c1.178-1.35,1.358-3.268,1.652-5.035s.906-3.711,2.5-4.536a5.962,5.962,0,0,0,1.744,3.547,18.043,18.043,0,0,0,1.635-4.147c.534-1.392,1.595-2.8,3.083-2.9,1.3-.091,2.227.8,3.085,1.645a6.869,6.869,0,0,0,3.17,2.056,10.793,10.793,0,0,0,3.526.341,6.413,6.413,0,0,0,3.3-1.2A6.08,6.08,0,0,1,646.82,1327.156Z" fill="#a3adb5"/>
        <path id="Trazado_1544" data-name="Trazado 1544" d="M639.8,1317.825c-.1.16-.191.327-.292.486a4.165,4.165,0,0,1-3.943,1.843,8.149,8.149,0,0,1-1.574-.42l-3.578-1.216a2.95,2.95,0,0,0,.312,1.95,3.92,3.92,0,0,0,1.382,1.386,5.934,5.934,0,0,0,5.314.459,5.536,5.536,0,0,0,2.569-2.422c.11-.175,1.716-2.662,1.076-2.833a1.021,1.021,0,0,0-.963.356A2.61,2.61,0,0,0,639.8,1317.825Z" fill="#a3adb5"/>
        <path id="Trazado_1545" data-name="Trazado 1545" d="M616.311,1300.8c-.2.025-.4.072-.595.1a2.808,2.808,0,0,1-1.484-.213l.08-1.179c-.048.1.152.086.23.007a2.682,2.682,0,0,1,1.524-.673,5.506,5.506,0,0,1,6.259,6.389,3.157,3.157,0,0,1-1.33-.712,7.6,7.6,0,0,1-.954-1.151,17.5,17.5,0,0,0-1.166-1.4,4.443,4.443,0,0,0-.906-.8A2.582,2.582,0,0,0,616.311,1300.8Z" fill="#f9f9f9"/>
        <path id="Trazado_1546" data-name="Trazado 1546" d="M626.485,1308.315c.549,1.466.154,3.628-.262,5.11a4.624,4.624,0,0,1-.646,1.476c-1.274,1.769-4.628,3.281-6.758,2.759a4.461,4.461,0,0,1-2.786-2.293,6.949,6.949,0,0,1-.694-3.607,9.487,9.487,0,0,0,3.693,1.571,7.165,7.165,0,0,0,5.148-1.869C625.293,1310.562,625.553,1309.206,626.485,1308.315Z" fill="#a3adb5"/>
      </g>
      <g id="Grupo_8273" data-name="Grupo 8273" opacity="0.5">
        <path id="Trazado_1547" data-name="Trazado 1547" d="M648.229,1355.4c-1.427-.547-3.018-.84-3.726-.135,1.45-1.445,1.9-3.584,2.291-5.6a2.868,2.868,0,0,0-1.044-3.179,21.953,21.953,0,0,0-4.228-3.861c-3.3-2.093-6.776-1.3-9.638,1.133-2.3,1.961-3.885,5.028-3.1,8.09a7.987,7.987,0,0,0-11.574.009c.442-.511-3.036-2.921-3.426-3.121a14.371,14.371,0,0,0-4.412-1.29c-2.823-.387-6.529.939-8.2,3.343-1.843,2.648-1.118,6.343.437,9.171a6.3,6.3,0,0,0-4.5,11.413,9.65,9.65,0,0,0,3.551,1.393c2.638.559,5.65.5,7.7-1.25a1.484,1.484,0,0,0-.478,1.76,3.3,3.3,0,0,0,1.288,1.459,8.989,8.989,0,0,0,4.39,1.578,2.586,2.586,0,0,1,1.29.3,2.256,2.256,0,0,1,.7,1.093l1.158,2.927a6.849,6.849,0,0,0,1.3,2.328,2.331,2.331,0,0,0,2.431.693,2.709,2.709,0,0,0,1.335-1.471,20.131,20.131,0,0,0,1.041-4.73c.3-1.583,1.859-5.639,3.815-3.432,1.934,2.182-.107,5.641.422,8.075a2.213,2.213,0,0,0,2.273,1.881c1.587-.28,1.459-2.1,2.077-3.231.777-1.426,1.96-2.611,2.47-4.181.389-1.2.343-2.508.734-3.707s1.49-2.353,2.732-2.132a4.136,4.136,0,0,1,1.442.718,12.628,12.628,0,0,0,8.667,1.778c2.508-.386,5.542-1.3,6.834-3.658,1.034-1.891.734-4.225.149-6.3a13.066,13.066,0,0,0-3.715-6.536A9.717,9.717,0,0,0,648.229,1355.4Z" fill="#c7c8c9"/>
        <path id="Trazado_1548" data-name="Trazado 1548" d="M638.036,1340.405a7.684,7.684,0,0,0-1.7,0c-4.891.542-9.3,5.571-8.171,10.629-.224-1-2.458-1.652-3.286-1.744a14.54,14.54,0,0,0-4.3.252c-.224.05-2.667,1.007-2.531,1.179a10.6,10.6,0,0,0-10.389-3.677c-2.371.532-5.063,1.688-6.495,3.747-1.843,2.648-1.118,6.343.437,9.171a6.3,6.3,0,0,0-4.5,11.413,5.041,5.041,0,0,0,3.044.937,6.013,6.013,0,0,1-.918-10.112,6.159,6.159,0,0,1,4.648-1.162c.4.064.94.372,1.3.111-.417-1.613-1.231-3.137-.738-4.848a5.358,5.358,0,0,1,2.14-2.753c2.645-1.889,8.057-2.8,9.487,1.1a3.3,3.3,0,0,1,.17.662,2.991,2.991,0,0,1-.327,1.84,6.543,6.543,0,0,1,4.375-1.161,1.675,1.675,0,0,1-.38-1.5c.419-1.707,3.156-1.682,4.5-1.508,2.115.272,4.347,1.242,5.228,3.185a1.665,1.665,0,0,1,1.98-.169c-1.624-1.056-1.236-4.258-.927-5.81.494-2.489,1.853-4.538,4.448-5.228a9.873,9.873,0,0,1,8.816,2.916,7.047,7.047,0,0,1,1.832,4.6c-.011-.708.811-1.843.972-2.588a7.885,7.885,0,0,0,.028-3.326C645.948,1342.709,641.6,1340.8,638.036,1340.405Z" fill="#f9f9f9"/>
        <path id="Trazado_1549" data-name="Trazado 1549" d="M614.046,1358.959a6.481,6.481,0,0,1,10.431-2.567,10.326,10.326,0,0,0-6.576.988,5.459,5.459,0,0,0-2.767,5.684,2.535,2.535,0,0,1-1.338-1.811A4.245,4.245,0,0,1,614.046,1358.959Z" fill="#f9f9f9"/>
        <path id="Trazado_1550" data-name="Trazado 1550" d="M626.846,1358.006c-.205.291-.393.6-.577.9a5.7,5.7,0,0,1,.228-2.382c.639-1.818,2.933-2.94,4.773-2.879a5.5,5.5,0,0,1,2.811.79c1.176.759,1.508,2,1.956,3.207a7.216,7.216,0,0,0-4.6-1.45,5.7,5.7,0,0,0-3.286.517A4.425,4.425,0,0,0,626.846,1358.006Z" fill="#f9f9f9"/>
        <path id="Trazado_1551" data-name="Trazado 1551" d="M653.9,1368.723c-.719.473-2.754,1.9-3.151,2.072a12.272,12.272,0,0,1-5.027,1.047,14.41,14.41,0,0,1-7.789-2.459,3.56,3.56,0,0,1-2.948.652,4.256,4.256,0,0,1-.67-.184c-1.233,1.9-1.6,4.324-2.189,6.557-.426,1.606-1.279,5.737-3.132,6.311a1.845,1.845,0,0,1-1.836-.473,1.867,1.867,0,0,0,3.007,1.32,3.748,3.748,0,0,0,.792-.971l2.787-4.327a12.682,12.682,0,0,0,1.943-3.967,4.3,4.3,0,0,1,.36-1.214,1.009,1.009,0,0,1,1.046-.554,1.524,1.524,0,0,1,.616.412c3.727,3.4,9.094,3.12,13.249.592a6.485,6.485,0,0,0,3.345-4.3.709.709,0,0,0-.152-.66A1.446,1.446,0,0,0,653.9,1368.723Z" fill="#a3adb5"/>
        <path id="Trazado_1552" data-name="Trazado 1552" d="M631.455,1370.687c-.726-.377-2.376-1.315-2.115-2.266a2.2,2.2,0,0,1,.95.278,11.1,11.1,0,0,0,3.759,1.023,8.193,8.193,0,0,0,5.672-1.431,5.4,5.4,0,0,0,2.14-5.25c.144.661.96,1.052.995,2.006a10.282,10.282,0,0,1-.327,2.511,6.171,6.171,0,0,1-4.012,3.818A9.107,9.107,0,0,1,631.455,1370.687Z" fill="#a3adb5"/>
        <path id="Trazado_1553" data-name="Trazado 1553" d="M619.39,1381.842a1.78,1.78,0,0,1-2.06-.06,2.645,2.645,0,0,0,3.312,1.8,3.8,3.8,0,0,0,2.127-2.53c.352-1.086.438-2.241.736-3.343a8.936,8.936,0,0,1,1.36-2.862,2.372,2.372,0,0,1,.358-.417,1.415,1.415,0,0,1,1.663-.111,16.339,16.339,0,0,0-3.08-2.531,2.45,2.45,0,0,0-1.522-.512,1.886,1.886,0,0,0-1.463,1.606,9.157,9.157,0,0,0,.052,2.319,18.565,18.565,0,0,1-.37,4.206A3.518,3.518,0,0,1,619.39,1381.842Z" fill="#a3adb5"/>
        <path id="Trazado_1554" data-name="Trazado 1554" d="M624.241,1368.992a6.192,6.192,0,0,1-6.552,2.754,2.009,2.009,0,0,0,1.024,1.293,3.519,3.519,0,0,0,1.238.305c1.568.162,3.328-.006,4.415-1.147a3.221,3.221,0,0,0,.755-3.021,1.335,1.335,0,0,0-.775-.978C624.211,1368.817,624.569,1368.449,624.241,1368.992Z" fill="#a3adb5"/>
      </g>
    </g>
  </g>
</svg>
