<svg xmlns="http://www.w3.org/2000/svg" xmlns:xlink="http://www.w3.org/1999/xlink" width="131.191" height="128.458" viewBox="0 0 131.191 128.458">
  <defs>
    <clipPath id="clip-path">
      <rect id="Rectángulo_3277" data-name="Rectángulo 3277" width="131.191" height="128.457" transform="translate(172 3137.434)" fill="none"/>
    </clipPath>
  </defs>
  <g id="Grupo_10036" data-name="Grupo 10036" transform="translate(-172 -3137.434)">
    <g id="Grupo_10035" data-name="Grupo 10035">
      <g id="Grupo_10034" data-name="Grupo 10034" clip-path="url(#clip-path)">
        <path id="Trazado_11603" data-name="Trazado 11603" d="M234.777,3140.24a62.8,62.8,0,0,0-55.934,91.306l5.889,9.37a62.776,62.776,0,1,0,50.045-100.676Zm0,0" fill="#5fc6ff"/>
        <path id="Trazado_11604" data-name="Trazado 11604" d="M299.93,3178.8h-7.664s0,0,0,0l-.007.015-.005.014h0c-1.929,4.748-5.976,14.712-11.176,27.511H293.63c4.069-10.069,8.1-20.059,9.32-23.066a3.257,3.257,0,0,0-3.02-4.477Zm0,0" fill="#ffc82e"/>
      </g>
    </g>
    <path id="Trazado_11605" data-name="Trazado 11605" d="M267.5,3220.115a21.939,21.939,0,0,0,2.486-.158h18.147l5.708-14.126H281.284c-1.149,2.829-2.355,5.8-3.609,8.885-.026.086-.059.168-.089.254a6.785,6.785,0,0,1-6.391,4.524h-6.886a7.033,7.033,0,0,0-2.891.621Zm0,0" fill="#12379e"/>
    <path id="Trazado_11606" data-name="Trazado 11606" d="M271.964,3219.445a6.743,6.743,0,0,1-.769.049h-6.886a6.889,6.889,0,0,0-6.941,6.534,6.781,6.781,0,0,0,6.778,7.03h16.493a3.26,3.26,0,0,0,3.021-2.036s1.976-4.894,4.677-11.577Zm0,0" fill="#dd2a44"/>
    <path id="Trazado_11607" data-name="Trazado 11607" d="M264.146,3219.494h7.887a6.783,6.783,0,1,0,0-13.566h-6.071l-7.947,17.462a6.776,6.776,0,0,1,6.131-3.9Zm0,0" fill="#cc1f41"/>
    <path id="Trazado_11608" data-name="Trazado 11608" d="M293.949,3151.67H220.1l-10.264,25.486h74.65a7.086,7.086,0,0,1,6.951,5.689c4.038-9.962,7.729-19.063,8.829-21.776,0,0,0,0,0,0h0v0l0-.008v0a6.823,6.823,0,0,0-6.326-9.38Zm0,0" fill="#ffc82e"/>
    <path id="Trazado_11609" data-name="Trazado 11609" d="M300.272,3161.06v0Zm0,0" fill="#ffc82e"/>
    <path id="Trazado_11610" data-name="Trazado 11610" d="M230.154,3177.156l8.346-20.725a8.725,8.725,0,0,1,4.667-4.761H220.1l-10.264,25.486Zm0,0" fill="#f7b126"/>
    <path id="Trazado_11611" data-name="Trazado 11611" d="M279.177,3191.147a7.073,7.073,0,0,1,6.81,5.142c1.772-4.372,3.681-9.079,5.516-13.6a7.092,7.092,0,0,0-7.015-6.044H210.045l-5.84,14.5Zm0,0" fill="#12379e"/>
    <path id="Trazado_11612" data-name="Trazado 11612" d="M224.52,3191.147l5.839-14.5H210.045l-5.84,14.5Zm0,0" fill="#052c7a"/>
    <path id="Trazado_11613" data-name="Trazado 11613" d="M279.177,3190.635H204.411l-6.159,15.293h73.781a6.788,6.788,0,0,1,6.481,8.788l7.559-18.639a7.083,7.083,0,0,0-6.9-5.442Zm0,0" fill="#dd2a44"/>
    <path id="Trazado_11614" data-name="Trazado 11614" d="M224.725,3190.635H204.411l-6.159,15.293h30.082a8.736,8.736,0,0,1-5.144-11.481Zm0,0" fill="#cc1f41"/>
    <path id="Trazado_11615" data-name="Trazado 11615" d="M212.158,3148.8l-33.315,82.743a62.759,62.759,0,0,0,5.889,9.37l35.771-88.842a9.319,9.319,0,0,1-8.345-3.271Zm0,0" fill="#d4d8d8"/>
    <path id="Trazado_11616" data-name="Trazado 11616" d="M210.611,3176.641l9.892-24.567a9.323,9.323,0,0,1-8.345-3.271l-10.076,25.027a4.991,4.991,0,0,1,8.529,2.811Zm0,0" fill="#c7c9c9"/>
    <path id="Trazado_11617" data-name="Trazado 11617" d="M219.107,3137.581a7.641,7.641,0,1,1-8.36,6.846,7.641,7.641,0,0,1,8.36-6.846Zm0,0" fill="#e8eaea"/>
    <path id="Trazado_11618" data-name="Trazado 11618" d="M217.089,3143.877a4.92,4.92,0,0,1,5.788-4.844,7.641,7.641,0,1,0,2.845,8.079,4.926,4.926,0,0,1-8.633-3.235Zm0,0" fill="#d4d8d8"/>
  </g>
</svg>
