<svg xmlns="http://www.w3.org/2000/svg" width="180.191" height="180.191" viewBox="0 0 180.191 180.191">
  <g id="Grupo_9981" data-name="Grupo 9981" transform="translate(-986.992 -2125.019)">
    <circle id="Elipse_152" data-name="Elipse 152" cx="90.096" cy="90.096" r="90.096" transform="translate(986.992 2125.019)" fill="#5fc6ff"/>
    <path id="Trazado_11507" data-name="Trazado 11507" d="M1088.482,2176.358a36.044,36.044,0,1,1-10.557-25.491,36.044,36.044,0,0,1,10.557,25.491Zm0,0" fill="#d4d8d8"/>
    <path id="Trazado_11508" data-name="Trazado 11508" d="M1088.482,2176.356a36.061,36.061,0,0,1-41.9,35.572,36.05,36.05,0,0,0,0-71.143,36.062,36.062,0,0,1,41.9,35.571Zm0,0" fill="#b7b7b7"/>
    <path id="Trazado_11509" data-name="Trazado 11509" d="M1034.877,2174.522c0,6.475-3.02,11.723-6.745,11.723s-6.743-5.248-6.743-11.723,3.02-11.723,6.743-11.723,6.745,5.249,6.745,11.723Zm0,0" fill="#e8eaea"/>
    <path id="Trazado_11510" data-name="Trazado 11510" d="M1117.249,2195.653a8.36,8.36,0,0,0-8.667,8.355v-8.988a8.362,8.362,0,0,0-16.723,0v-4.3a8.484,8.484,0,0,0-8.14-8.548,8.362,8.362,0,0,0-8.583,8.359v-4.288a8.482,8.482,0,0,0-8.14-8.546,8.361,8.361,0,0,0-8.584,8.357v25.437a9.9,9.9,0,0,0-7.526-1.737,10.107,10.107,0,0,0-8.251,10.021v41.84a35.578,35.578,0,0,0,26.722,34.452,1.69,1.69,0,0,1,1.274,1.638v7.27c2.133.151,4.285.233,6.456.233a89.712,89.712,0,0,0,40.611-9.655,51.079,51.079,0,0,0,8.258-28.372l-.65-62.974A8.491,8.491,0,0,0,1117.249,2195.653Z" fill="#ffcec0"/>
    <path id="Trazado_11511" data-name="Trazado 11511" d="M1057.069,2257.333a2.487,2.487,0,0,1-.418.038,2.54,2.54,0,0,1-2.5-2.124,60.4,60.4,0,0,1-.817-9.893v-35.719a9.882,9.882,0,0,1,5.083,1.857v33.862a55.518,55.518,0,0,0,.745,9.058,2.536,2.536,0,0,1-2.09,2.921Zm0,0" fill="#fdb0a0"/>
    <path id="Trazado_11512" data-name="Trazado 11512" d="M1108.582,2195.022v42.5a2.542,2.542,0,1,1-5.083,0v-50.2a8.363,8.363,0,0,1,5.083,7.7Zm0,0" fill="#fdb0a0"/>
    <path id="Trazado_11513" data-name="Trazado 11513" d="M1091.857,2190.722v46.8a2.541,2.541,0,1,1-5.081,0v-54.667a8.594,8.594,0,0,1,5.081,7.866Zm0,0" fill="#fdb0a0"/>
    <path id="Trazado_11514" data-name="Trazado 11514" d="M1075.137,2186.245v51.278a2.54,2.54,0,1,1-5.081,0v-59.144a8.6,8.6,0,0,1,5.081,7.866Zm0,0" fill="#fdb0a0"/>
    <path id="Trazado_11515" data-name="Trazado 11515" d="M1117.249,2195.653a8.325,8.325,0,0,0-6.282,2.511,8.67,8.67,0,0,1,2.453,6.045l.65,62.973a51.108,51.108,0,0,1-8.138,28.205,7.222,7.222,0,0,0-1.172,4.052l.027,1.425a89.5,89.5,0,0,0,12.911-5.309,51.1,51.1,0,0,0,8.26-28.373l-.654-62.973A8.489,8.489,0,0,0,1117.249,2195.653Z" fill="#fdb0a0"/>
  </g>
</svg>
