<svg xmlns="http://www.w3.org/2000/svg" width="1095" height="291.577" viewBox="0 0 1095 291.577">
  <g id="Grupo_10013" data-name="Grupo 10013" transform="translate(-172 -1793.067)">
    <g id="Grupo_8280" data-name="Grupo 8280">
      <rect id="Rectángulo_2936" data-name="Rectángulo 2936" width="1095" height="291.577" transform="translate(172 1793.067)" fill="#d8c6a5"/>
      <path id="Trazado_1555" data-name="Trazado 1555" d="M399.212,2084.644V1793.067h52.925l-.913,291.577Z" fill="#d8bd8c"/>
      <path id="Trazado_1556" data-name="Trazado 1556" d="M348.67,1793.067l1.53,291.577H172V1793.067Z" fill="#fff"/>
      <path id="Trazado_1557" data-name="Trazado 1557" d="M172,1807.89l88.665,12.775v-27.6h16.881l2.433,30.031,68.953,13.381v7.3l-70.169-8.517.483,249.379H261.1l-.435-253.637L172,1819.448Z" fill="#f1eee7"/>
      <path id="Trazado_1558" data-name="Trazado 1558" d="M399.474,1793.067H348.932l1.268,291.577h49.275Z" fill="#e0caa3"/>
      <g id="Grupo_8276" data-name="Grupo 8276">
        <rect id="Rectángulo_2937" data-name="Rectángulo 2937" width="70.705" height="115.703" transform="translate(1180.423 1855.065) rotate(90)" fill="#fff"/>
        <g id="Grupo_8275" data-name="Grupo 8275">
          <path id="Trazado_1559" data-name="Trazado 1559" d="M1207.595,1828H1037.547v124.83h170.048Zm-166.863,120.265v-115.7h163.679v115.7Z" fill="#b29069"/>
          <path id="Trazado_1560" data-name="Trazado 1560" d="M1202.273,1832.567H1040.732v115.7H1059.7" fill="#fff" opacity="0.1"/>
        </g>
      </g>
      <g id="Grupo_8278" data-name="Grupo 8278">
        <g id="Grupo_8277" data-name="Grupo 8277">
          <path id="Trazado_1561" data-name="Trazado 1561" d="M575.246,1912.748c0,2.08-27.241,3.766-60.844,3.766s-60.843-1.686-60.843-3.766,27.24-3.767,60.843-3.767S575.246,1910.667,575.246,1912.748Z" fill="#926f57"/>
          <line id="Línea_6" data-name="Línea 6" y2="74.751" transform="translate(515.272 1912.458)" fill="none" stroke="#b29069" stroke-miterlimit="10" stroke-width="1"/>
          <rect id="Rectángulo_2938" data-name="Rectángulo 2938" width="7.605" height="8.04" transform="translate(511.469 1976.778)" fill="#b29069"/>
          <rect id="Rectángulo_2939" data-name="Rectángulo 2939" width="11.734" height="6.519" transform="translate(509.404 1910.937)" fill="#cec6c3"/>
          <path id="Trazado_1562" data-name="Trazado 1562" d="M460.512,1855.091s19.113-1.7,53.89-1.738c41.722-.045,53.89,1.738,53.89,1.738l6.954,57.367s-18.546-1.738-59.975-1.738c-43.459,0-61.712,1.738-61.712,1.738Z" fill="#b29069"/>
          <path id="Trazado_1563" data-name="Trazado 1563" d="M493.326,2084.644l11.225-94.248,19.7.869,10.41,93.379h9.343l-12.8-101.2h-33.9l-12.28,101.2Z" fill="#eeddbd"/>
        </g>
      </g>
      <g id="Grupo_8279" data-name="Grupo 8279">
        <rect id="Rectángulo_2940" data-name="Rectángulo 2940" width="434.036" height="45.206" transform="translate(714.418 2039.438)" fill="#ebd8b3"/>
        <path id="Trazado_1564" data-name="Trazado 1564" d="M860.412,2084.644v-48.5a7.656,7.656,0,0,0-7.656-7.656H715.5a7.656,7.656,0,0,0-7.656,7.656l-3.748,48.5Z" fill="#eeddbd"/>
        <path id="Trazado_1565" data-name="Trazado 1565" d="M1014.955,2084.644v-47.561a8.6,8.6,0,0,0-8.594-8.595H870.979a8.6,8.6,0,0,0-8.594,8.595v47.561Z" fill="#eeddbd"/>
        <path id="Trazado_1566" data-name="Trazado 1566" d="M1174.229,2084.644l-4.274-46.556a9.6,9.6,0,0,0-9.6-9.6H1026.985a9.6,9.6,0,0,0-9.6,9.6v46.556Z" fill="#eeddbd"/>
      </g>
      <rect id="Rectángulo_2941" data-name="Rectángulo 2941" width="154.943" height="291.19" transform="translate(172 1793.067)" fill="#e0caa3" opacity="0.15"/>
    </g>
    <g id="Grupo_8281" data-name="Grupo 8281">
      <path id="Trazado_1567" data-name="Trazado 1567" d="M686.767,2025.607c1.558,13.868,9.142,31.765.595,51.758-1.128,2.637-2.181,5.036-3.169,7.279h68.631a39.4,39.4,0,0,1,3.015-41.048c4.3-5.99,8.664-14.059,13.084-24.935,4.334-10.656,6.357-19.656,6.5-27.185a19.236,19.236,0,0,1,6.585-14.163,8.64,8.64,0,0,0-1.074-13.831c-.686-.435-17.191-10.662-45.608-12.305h-.006c-26.37-1.521-42.776,6.971-43.462,7.338a8.647,8.647,0,0,0-.473,15.022,6.062,6.062,0,0,1,2.305,7.761v.007a17.275,17.275,0,0,1-8.871,8.479,19.064,19.064,0,0,0,1.949,35.823Z" fill="#bf8e85"/>
      <path id="Trazado_1568" data-name="Trazado 1568" d="M756.519,2084.644a36.074,36.074,0,0,1,1.963-39.154c4.708-6.572,9.1-14.935,13.445-25.6,4.323-10.619,6.584-20.171,6.726-28.362a16.087,16.087,0,0,1,5.493-11.772,11.916,11.916,0,0,0-1.49-19.011c-.454-.289-7.731-4.795-20.668-8.443a18.652,18.652,0,0,1,3.636,6.811c1.4,4.648,3.2,11.1,3.452,15.353a1.306,1.306,0,0,1-.883,1.293c-3.807,1.49-15.015,5.892-15.015,5.892l7.124,12.734a1.29,1.29,0,0,1-.533,1.747c-5.285,3-27.259,15.726-31.9,21.023-5.327,6.058-11.715,17.3-12.078,22.495l-2.6,45Z" fill="#e7a141"/>
      <path id="Trazado_1569" data-name="Trazado 1569" d="M679.809,2025.791a11.609,11.609,0,0,1,4.892,7.406c.258,1.318.515,2.606.736,3.685,1.465,7.271,3.066,15.162,2.587,23.512a46.3,46.3,0,0,1-3.654,15.69c-1.4,3.289-2.634,6.095-3.735,8.56h10.623l1.383-23.98,1.4-24.26c-.19-1.57-1.362-10.11-6.186-15.058-5.151-5.346-11.159-17.621-10.95-30.238a22.158,22.158,0,0,0-6.922,14.96A21.85,21.85,0,0,0,679.809,2025.791Z" fill="#e7a141"/>
      <path id="Trazado_1570" data-name="Trazado 1570" d="M602.883,1968.227a12.813,12.813,0,0,1,4.709-17.473l71.009-40.881a8.646,8.646,0,1,1,8.633,14.983l-56.473,32.513,65.16.08a8.648,8.648,0,0,1-.019,17.3l-81.934-.091a12.848,12.848,0,0,1-11.085-6.426Z" fill="#ce6473"/>
      <path id="Trazado_1571" data-name="Trazado 1571" d="M605.985,1947.946l56.485-32.519a1.77,1.77,0,0,1,2.422.656l10.1,17.528a1.786,1.786,0,0,1-.65,2.428l-31.477,18.118,43.984.048,9.08.007a11.906,11.906,0,0,1,10.288,5.953,11.872,11.872,0,0,1-10.325,17.816l-81.928-.1a16.03,16.03,0,0,1-7.977-29.931Z" fill="#e7a141"/>
      <path id="Trazado_1572" data-name="Trazado 1572" d="M648.927,1923.226l8.5-4.9,11.864,20.607-8.5,4.9-11.869-20.606Z" fill="#df8935"/>
      <path id="Trazado_1573" data-name="Trazado 1573" d="M774.25,1955.236l-1.52.705a80.052,80.052,0,0,1,7.358,3.36,6.92,6.92,0,0,1,3.2,1.869l.062.044,1.152.974.2.208a11.848,11.848,0,0,1,2.477,3.593l.073.16a11.674,11.674,0,0,1,.626,1.974l.055.159.6.037c.239-3.108.061-8.492-3.421-11.44a10.46,10.46,0,0,0-10.865-1.643Z" fill="#6f3943"/>
      <path id="Trazado_1574" data-name="Trazado 1574" d="M708.4,1948.455h0c.8-.546,1.65-1.11,2.521-1.656l.244-.165,1.393-.846a22.372,22.372,0,0,1,3.966-1.975c6.609-4.9,15.75-11.3,17.627-12.74a13.163,13.163,0,0,1,11.655-2.7c5.2,1.319,6.848,8.234,7.523,10.325.7,2.1-.472,4.825-1.87,5.463h-.006q2.169.35,4.31.889l-.007.024a3.182,3.182,0,0,1,2.011,1.57l.337.558.669.454a46.422,46.422,0,0,1,3.586,4.757,104.851,104.851,0,0,1,10.368,3.532l1.52-.705a11,11,0,0,1,8.357.067s1.079-9.025-1.367-13.433c-2.452-4.433-13.862-14.291-16.124-15.983-2.282-1.692-3.115-2.343-7.836-2.618s-14.984-.865-14.984-.865a14.511,14.511,0,0,0-8.075,1.508c-4.322,2.109-18.349,8.4-18.349,8.4s-2.282.889-5.47,4.69c-3.206,3.82-11.067,12.857-12.145,15.064l-.276.5c2.164-.724,4.721-1.49,7.737-2.195.706-.534,1.643-1.208,2.685-1.919Z" fill="#884c51"/>
      <path id="Trazado_1575" data-name="Trazado 1575" d="M753.332,1938.694c-.675-2.091-2.318-9.006-7.523-10.325a13.163,13.163,0,0,0-11.655,2.7c-1.877,1.441-11.018,7.836-17.627,12.74,4.66-1.686,10.668-1.366,30.048-.2,1.637.1,3.268.289,4.881.546h.006c1.4-.638,2.574-3.36,1.87-5.463Z" fill="#5b2a39"/>
      <path id="Trazado_1576" data-name="Trazado 1576" d="M784.5,1962.188l.2.208-.2-.208Z" fill="#6f3943"/>
      <path id="Trazado_1577" data-name="Trazado 1577" d="M787.88,1968.123a11.654,11.654,0,0,1,.3,2.054l.1.245c.062-.386.178-1.14.258-2.1l-.6-.037-.055-.159Z" fill="#6f3943"/>
      <path id="Trazado_1578" data-name="Trazado 1578" d="M787.254,1966.149l-.073-.16.073.16Z" fill="#6f3943"/>
      <path id="Trazado_1579" data-name="Trazado 1579" d="M713.584,1948.884a13.328,13.328,0,0,1,6.9-2.685c5.947-.614,20.907.141,26.841.49l.65.037a30.277,30.277,0,0,1,3.25.4c1.091.2,2.115.442,3.108.687l.2.049a1.715,1.715,0,0,1,1.276.938,4.344,4.344,0,0,1,.245,1.784v.221c2.09.472,4.076.975,5.935,1.5h-.006l-.405-.46a29.869,29.869,0,0,1-3.814-5.2,3.182,3.182,0,0,0-2.011-1.57l.007-.024a47.856,47.856,0,0,0-9.191-1.435c-24.947-1.5-27.736-1.6-34.014,2.177l-1.393.846c-1.863,1.195-3.684,2.409-5.45,3.74l-.012.006c2.373-.552,5.009-1.067,7.878-1.5Z" fill="#ebbd5b"/>
      <path id="Trazado_1580" data-name="Trazado 1580" d="M747.771,1954.905a11.89,11.89,0,1,1-11.183-12.557,11.889,11.889,0,0,1,11.183,12.557Z" fill="#c35566"/>
      <path id="Trazado_1581" data-name="Trazado 1581" d="M735.828,1978.343a14.7,14.7,0,0,1-1.656-.1,13.618,13.618,0,0,1-11.882-13.562l.239-50.121a13.6,13.6,0,0,1,27.2.123l-.239,50.127a13.6,13.6,0,0,1-13.666,13.537Z" fill="#c35566"/>
      <path id="Trazado_1582" data-name="Trazado 1582" d="M749.623,1937.462l.11-22.783a13.6,13.6,0,0,0-27.2-.123l-.159,32.93a77.738,77.738,0,0,0,14.549-3.93,79.158,79.158,0,0,0,12.7-6.094Z" fill="#ab445a"/>
      <path id="Trazado_1583" data-name="Trazado 1583" d="M784.974,1971.238a8.647,8.647,0,1,1-8.136-9.13,8.64,8.64,0,0,1,8.136,9.13Z" fill="#bf8e85"/>
      <path id="Trazado_1584" data-name="Trazado 1584" d="M704.529,1966.6a8.644,8.644,0,1,1-8.13-9.129,8.648,8.648,0,0,1,8.13,9.129Z" fill="#bf8e85"/>
      <path id="Trazado_1585" data-name="Trazado 1585" d="M734.442,2020.23l-50.017-2.887a18.925,18.925,0,0,1-10.165-3.661,19.085,19.085,0,0,0,16.909,12.722l40.925,2.36a19.1,19.1,0,0,0,20.165-17.957v-.46a19.075,19.075,0,0,1-17.817,9.883Z" fill="#bf8e85"/>
      <path id="Trazado_1586" data-name="Trazado 1586" d="M705.718,1950.374a68.766,68.766,0,0,0-15.376,5.285,11.879,11.879,0,0,0-5.549,14.751c2.244-2.189,5.371-5.322,8.308-8.572a81.283,81.283,0,0,1,12.617-11.464Z" fill="#e7a141"/>
      <path id="Trazado_1587" data-name="Trazado 1587" d="M687.852,2021.346a27.264,27.264,0,0,1-1.937-2.287l-5.04-.294a18.884,18.884,0,0,1-9.331-3.133,21.9,21.9,0,0,0,7.394,9.485,18.874,18.874,0,0,0,8.682,2.7l4.34.252a20.233,20.233,0,0,0-4.108-6.726Z" fill="#d17f2e"/>
      <path id="Trazado_1588" data-name="Trazado 1588" d="M754.319,2012.548h0v-.454a19.06,19.06,0,0,1-17.817,9.878l-11.87-.687a75.373,75.373,0,0,0-5.156,8.375l14.684.846a19.085,19.085,0,0,0,20.159-17.958Z" fill="#d17f2e"/>
      <path id="Trazado_1589" data-name="Trazado 1589" d="M714.964,1944.5a67.642,67.642,0,0,0-9.246,5.874,81.283,81.283,0,0,0-12.617,11.464c-2.937,3.25-6.064,6.383-8.308,8.572l-1.422,1.349-.662.625-.117.116-.067.743.11.2a7.1,7.1,0,0,0,2.017,2.251l4.556,3.311s-8.143,7.908-11.38,10.361a2.069,2.069,0,0,0-.926,1.7v.043c-.208,12.618,5.8,24.892,10.95,30.238,4.825,4.948,6,13.488,6.187,15.058a56.479,56.479,0,0,0-2.116-13.9,119.726,119.726,0,0,1-3.537-15.3c-2.128-14.408,12.133-41.7,18.338-50.213,3.409-4.776,5.855-8.356,10.189-9.969l.693-.68-.043-.969a1.94,1.94,0,0,0-2.6-.877Z" fill="#ebbd5b"/>
      <path id="Trazado_1590" data-name="Trazado 1590" d="M769.076,1974.462c-.258-4.254-2.048-10.7-3.452-15.352-1.386-4.7-4.947-9.251-6.848-11.458l-1.239-.595-1.293.5-.35,1.44a6.191,6.191,0,0,1,.166,1.815c-.037,1.361-.074,2.79-.1,2.832-.031,1.055-.2,2.551-.337,3.483v.025c-.92,6.615-4.2,18.031-15.292,32.42-17.939,23.328-23.818,28.81-24.413,45.216-.043,1.122-.073,2.741-.129,4.862.362-5.2,6.751-16.437,12.078-22.495,4.642-5.3,26.615-18.019,31.9-21.023a1.289,1.289,0,0,0,.533-1.747v-.006l-7.124-12.728s11.208-4.4,15.015-5.892a1.308,1.308,0,0,0,.883-1.294Z" fill="#ebbd5b"/>
      <path id="Trazado_1591" data-name="Trazado 1591" d="M772.712,1955.947a13.648,13.648,0,0,0-4.844,4.163c-.539.6-1.061,1.257-1.607,1.962l-.913,1.195c-2.5,5.267-6.2,12.734-8.724,16.4-.331.5-.963,1.312-1.827,2.39a31.938,31.938,0,0,1-10.852,7.677l-.3.619c-2.832,6.2-3.739,9.595-10.012,14.726s-21.433,13.863-27.068,16.7c-5.609,2.839-7.762,2.8-12.875,2.5s-6.069-1.214-7.669-2.171c-1.625-.956-8.566-7.614-12.931-12.5,1.226,4.139,4.721,14.494,5.5,17.682.785,3.292,4.537,5.782,7.6,7.6a14.1,14.1,0,0,0,5.726,1.956s8.5.491,11.288.656a8.033,8.033,0,0,0,3.862-.435c.441-.141.957-.331,1.649-.576,2.5-.847,11.293-4.93,19.289-8.351s8.411-6.922,16.89-18.711c0,0,3.654-5.525,7.554-11.84,1.06-1.692,2.139-3.451,3.133-5.168,1.747-2.888,3.316-5.677,4.414-7.884,1.465-2.968,2.71-5.6,3.733-7.885,1.6-3.507,2.729-6.229,3.471-8.246l.386-1.128a10.824,10.824,0,0,1,5.193-6.892,10.979,10.979,0,0,1,6.229-1.262l1.073.178h.007a80.052,80.052,0,0,0-7.358-3.36l-.018.006Z" fill="#6f3943"/>
      <path id="Trazado_1592" data-name="Trazado 1592" d="M711.775,2000.967c-4.61,1.416-8.472,2.471-10.079,2.379-2.452-.142-5.162-8.3-6.584-14.335l-.007-.006c-.907-1.858-.864-6.842-.6-11.3l-.154-.313c-.19.6-3.347,11.33-2.789,19.981.588,8.89-.006,15.5,3.813,15.72,2.962.171,12.324-7.173,18.393-12.771-.65.2-1.336.423-1.962.619l-.031.025Z" fill="#5b2a39"/>
      <path id="Trazado_1593" data-name="Trazado 1593" d="M693.689,2024.277c5.113.294,7.266.337,12.875-2.5,5.635-2.838,20.809-11.581,27.068-16.7s7.18-8.522,10.012-14.726l.3-.619-1.2.459c-2.667.908-9.153,3.452-15.566,5.727-2.311.821-4.61,1.6-6.732,2.274-2.262.724-4.512,1.447-6.683,2.134-6.069,5.6-15.431,12.942-18.393,12.771-3.819-.221-3.225-6.83-3.813-15.72-.558-8.651,2.6-19.38,2.789-19.981a44.231,44.231,0,0,1-2.716-8.9c-3.549,4.04-12.691,14.316-14.677,16a9.188,9.188,0,0,0-2.906,5.248s-1.545,7.835-2.06,11.7c-.5,3.887-.135,3.93.987,7.786l.11.38c4.365,4.887,11.306,11.545,12.931,12.5,1.6.957,2.556,1.877,7.669,2.171Z" fill="#7b414a"/>
      <path id="Trazado_1594" data-name="Trazado 1594" d="M752.97,1974.842l-.024.019a193.681,193.681,0,0,1-22.838,11.459c-1.172.472-3.127,1.183-5.421,1.962-6.241,2.084-14.99,4.678-16.958,4.6-2.715-.086-5.567-2.483-10.183-9.485a37.019,37.019,0,0,1-3.041-5.695c-.264,4.457-.307,9.441.6,11.3l.007.006c1.422,6.039,4.132,14.193,6.584,14.335,1.607.092,5.469-.963,10.079-2.379l.031-.025c.626-.2,1.312-.417,1.962-.619,2.171-.687,4.421-1.41,6.683-2.134,2.122-.674,4.421-1.453,6.732-2.274,6.413-2.275,12.9-4.819,15.566-5.727l1.2-.459a31.938,31.938,0,0,0,10.852-7.677c.864-1.078,1.5-1.888,1.827-2.39,2.52-3.661,6.223-11.128,8.724-16.4-1.048,1.386-2.2,2.949-3.592,4.721-1.668,2.085-4.93,4.476-8.786,6.854Z" fill="#82474d"/>
      <path id="Trazado_1595" data-name="Trazado 1595" d="M751.456,1944.157c-1.024.454-12.618,8.479-20.416,13.825-3.3,2.066-5.985,3.74-7.1,4.4-3.953,2.341-15.051,8.681-17.191,7.706-1.514-.687-2.342-7.774-2.391-12.176l.08-1.466c.067-3.273,2.207-4.683,6.407-8.227,1.257-1.073,3.31-2.649,5.683-4.409,0,0-13.236,4.427-18.546,8.756-.466.834-1.226,2.029-2.066,3.39-2.22,3-4.832,6.7-4.783,8.363a27.286,27.286,0,0,0,.5,4.169,44.231,44.231,0,0,0,2.716,8.9l.154.313a37.019,37.019,0,0,0,3.041,5.695c4.616,7,7.468,9.4,10.183,9.485,1.968.074,10.717-2.52,16.958-4.6,2.294-.779,4.249-1.49,5.421-1.962a193.681,193.681,0,0,0,22.838-11.459l.024-.019c3.856-2.378,7.118-4.769,8.786-6.854,1.4-1.772,2.544-3.335,3.592-4.721l.913-1.195c.546-.705,1.068-1.361,1.607-1.962a13.648,13.648,0,0,1,4.844-4.163l.018-.006c-3.28-5.353-16.425-11.925-21.274-11.784Z" fill="#884c51"/>
      <path id="Trazado_1596" data-name="Trazado 1596" d="M729.494,1948.914c-12.593-.723-12.967-5.1-12.967-5.1-2.373,1.76-4.426,3.336-5.683,4.409-4.2,3.544-6.34,4.954-6.407,8.227l-.08,1.466c.049,4.4.877,11.489,2.391,12.176,2.14.975,13.238-5.365,17.191-7.706,1.116-.663,3.8-2.337,7.1-4.4,7.3-5.009,17.92-12.359,20.091-13.647a42.851,42.851,0,0,1-21.637,4.579Z" fill="#5b2a39"/>
      <path id="Trazado_1597" data-name="Trazado 1597" d="M727.624,1878.5c-37.761,2.416-55.154,1.239-53.658-24.659,1.422-24.732,37.184-37.828,62.272-36.381,20.147,1.159,45.431,14.88,44.413,32.549s-35.136,27.338-53.027,28.491Z" fill="#e7a141"/>
      <path id="Trazado_1598" data-name="Trazado 1598" d="M779.162,1852.566c-.736-5.481-23.182-7-50.146-3.39-26.382,3.525-47.306,10.655-47.509,16.093-.055,1.092-.092,3.814,1.343,4.623,3.028,1.95,20.029,3.145,48.03-.76l.386-.055.4-.056c2.962-.392,5.862-.839,8.663-1.318,25.726-4.193,34.224-8.448,37.069-10.287,1.459-.846,1.8-3.575,1.76-4.85Z" fill="#df9041"/>
      <path id="Trazado_1599" data-name="Trazado 1599" d="M777.549,1855.766c.515,3.875-20.373,9.859-46.664,13.385s-48.017,3.218-48.532-.651,20.373-9.864,46.657-13.384,48.024-3.224,48.539.65Z" fill="#342d68"/>
      <path id="Trazado_1600" data-name="Trazado 1600" d="M767.1,1909.639a7.589,7.589,0,0,1-.785-8.589,34.239,34.239,0,0,1-3.955,2.606l-.527.282a56.048,56.048,0,0,1-11.422,9.331c6.425,2.636,13.549,4.181,20.233,2.428a21.484,21.484,0,0,0,9.147-5.083,15.587,15.587,0,0,1-3.6,1.533,8.837,8.837,0,0,1-9.092-2.508Z" fill="#502a3d"/>
      <path id="Trazado_1601" data-name="Trazado 1601" d="M766.317,1901.05a7.589,7.589,0,0,0,.785,8.589,8.837,8.837,0,0,0,9.092,2.508,15.587,15.587,0,0,0,3.6-1.533,21.8,21.8,0,0,0,6.6-11.293,22.234,22.234,0,0,0-5.389-19.5,40.947,40.947,0,0,1-14.69,21.225Z" fill="#562f41"/>
      <path id="Trazado_1602" data-name="Trazado 1602" d="M781.534,1875.778c1.423-24.72-19.6-46.032-46.963-47.607a53.491,53.491,0,0,0-12.164.693,50.81,50.81,0,0,0-30.594,17.491,45.045,45.045,0,0,0-7.964,15.224c-2.189,6.94-2.152,14.027-2.575,21.3-.38,6.67-1.4,13.586-1.055,20.262A41.542,41.542,0,0,0,696.7,1934c11.318,8.412,26.824,5.763,39.166,1.2a75.494,75.494,0,0,0,31.181-22,64.887,64.887,0,0,0,14.4-36.192l.086-1.226Z" fill="#c35566"/>
      <path id="Trazado_1603" data-name="Trazado 1603" d="M710.47,1911.178c-7.542-.429-10.736,1.312-11.079,1.515a2.145,2.145,0,0,0-.766,2.905,2.167,2.167,0,0,0,1.772,1.092l1.158-.251c.025-.012,2.508-1.294,8.663-.944,6.021.349,8.375,1.857,8.492,1.931l1.146.411a2.162,2.162,0,0,0,1.435-3.881c-.313-.24-3.286-2.342-10.821-2.778Z" fill="#92324c"/>
      <path id="Trazado_1604" data-name="Trazado 1604" d="M766.519,1880.732c-3.243-1-6.407.7-7.179,4.525-.956,4.72,2.011,5.235,1.177,9.472-.515,2.624-1.643,3.519-2.164,6.107-.472,2.329-.061,5.149,2.091,5.812,3.537,1.091,8.5-4.764,10.208-10.656,1.741-6.033,1.391-13.549-4.133-15.26Z" fill="#ab445a"/>
      <path id="Trazado_1605" data-name="Trazado 1605" d="M695.59,1884.312l1.073.607.883-.245a1.4,1.4,0,0,0,.355-1.956c-.22-.318-5.53-7.921-11.906-8.326h-.006a1.407,1.407,0,0,0-.172,2.808c5.016.319,9.73,7.045,9.773,7.112Z" fill="#572645"/>
      <path id="Trazado_1606" data-name="Trazado 1606" d="M695.67,1889.089a1.629,1.629,0,0,0-.859-1.527l-5.082-2.729a1.623,1.623,0,0,0-1.539,2.857l2.017,1.086-2.121.833a1.631,1.631,0,0,0-.914,2.11,1.613,1.613,0,0,0,1.416,1.017l.693-.1,5.364-2.127a1.643,1.643,0,0,0,1.025-1.416Z" fill="#532442"/>
      <path id="Trazado_1607" data-name="Trazado 1607" d="M729.758,1886.28l-1.14.485-.853-.35a1.4,1.4,0,0,1-.122-1.98c.257-.294,6.4-7.235,12.783-6.9h.006a1.406,1.406,0,0,1-.153,2.807c-5.015-.257-10.472,5.886-10.521,5.941Z" fill="#572645"/>
      <path id="Trazado_1608" data-name="Trazado 1608" d="M729.127,1891.013a1.613,1.613,0,0,1,1.023-1.41l5.365-2.127a1.619,1.619,0,1,1,1.2,3.01l-2.121.846,2.011,1.08a1.621,1.621,0,0,1-.859,3.047l-.674-.191-5.089-2.728a1.633,1.633,0,0,1-.851-1.527Z" fill="#532442"/>
      <path id="Trazado_1609" data-name="Trazado 1609" d="M766.256,1913.128a13.748,13.748,0,0,1-1.594,2.759c.821-.889,1.637-1.778,2.384-2.691a64.887,64.887,0,0,0,14.4-36.192l.086-1.226c1.423-24.72-19.6-46.032-46.963-47.607a53.468,53.468,0,0,0-12.164.693,50.81,50.81,0,0,0-30.594,17.491,43.8,43.8,0,0,0-7.345,13.385c3.115-7.241,11.576-16.309,29.674-17.039a146.878,146.878,0,0,0,32.991-5.37l1.306.514-.141,1.405c-9.258,10.017,1.741,28.877,9.08,42.193a2,2,0,0,0,1.526,1.036,2.043,2.043,0,0,0,1.742-.637c10.772-11.7,20.637,7.731,11.661,20.459a59.256,59.256,0,0,0-6.051,10.827Z" fill="#4a2439"/>
      <path id="Trazado_1610" data-name="Trazado 1610" d="M682.285,1868.654l.074-.491c.662-3.868,21.109-9.625,46.651-13.047,25.444-3.4,46.62-3.237,48.429.283l.294.625.527,1.183a15.111,15.111,0,0,0,2.391-7.2c1.018-17.669-24.266-31.39-44.413-32.549-25.088-1.447-60.85,11.649-62.272,36.381-.613,10.588,1.931,17.045,7.744,20.815.121-2.017.3-4.016.575-6Z" fill="#e7a141"/>
      <path id="Trazado_1611" data-name="Trazado 1611" d="M681.593,1864.755c-4.047-9.718-2.14-18.541,18.706-29.337-26.205,7.32-26.835,26.86-18.1,33.9.1-.773.214-1.539.343-2.305a19.408,19.408,0,0,1-.95-2.256Z" fill="#d17f2e"/>
      <path id="Trazado_1612" data-name="Trazado 1612" d="M779.162,1852.566c-.736-5.481-23.182-7-50.146-3.39-26.382,3.525-47.306,10.655-47.509,16.093-.043.9-.074,2.888.7,4.022l.141-1.1c.564-3.875,21.054-9.65,46.657-13.078,25.572-3.414,46.829-3.237,48.454.338l.619,1.342a7.48,7.48,0,0,0,1.079-4.23Z" fill="#df9041"/>
      <path id="Trazado_1613" data-name="Trazado 1613" d="M695.246,1977.792l.564-.558.632-1.251-.607-1.263-1.563-1.238a3.5,3.5,0,0,1-.515-4.924l.907-.8.742-1.263-.6-1.337-.956-.76a3.791,3.791,0,0,1,4.708-5.941l.43.338,1.262.214.859-.956.729-1.508a3.75,3.75,0,0,1,5.255-.669c14.818,11.741,17.516,13.887,20.606,16.321a1.938,1.938,0,0,0,3.127-1.71,92.745,92.745,0,0,1-.571-11.889,3.538,3.538,0,0,1,7.07.307,88.994,88.994,0,0,0,.545,10.888,94.128,94.128,0,0,0,3.513,17.8,12.246,12.246,0,0,1-.993,10.245c-4.071,6.388-14.371,6.768-22.991.852-7.83-5.377,4.678,4.384-21.692-16.5a3.126,3.126,0,0,1-.46-4.4Z" fill="#c35566"/>
      <path id="Trazado_1614" data-name="Trazado 1614" d="M789.768,2062.822a12.568,12.568,0,0,1-2.9,1.637,12.807,12.807,0,0,1-15.009-4.188l-49.213-65.509a8.646,8.646,0,1,1,13.825-10.386l39.141,52.1-7.842-64.688a8.647,8.647,0,1,1,17.167-2.084l9.858,81.346a12.806,12.806,0,0,1-5.027,11.771Z" fill="#c35566"/>
      <path id="Trazado_1615" data-name="Trazado 1615" d="M769.266,2062.209,730.119,2010.1a1.772,1.772,0,0,1,.356-2.483l16.174-12.152a1.779,1.779,0,0,1,2.489.355l21.808,29.037-5.3-43.659-1.1-9.025A11.878,11.878,0,0,1,783.68,1961.4a11.72,11.72,0,0,1,3.213,3.838,11.874,11.874,0,0,1,1.256,4.084L798,2050.652a16.049,16.049,0,0,1-6.3,14.757,15.736,15.736,0,0,1-3.624,2.054,16.061,16.061,0,0,1-18.816-5.254Z" fill="#ebaf48"/>
      <path id="Trazado_1616" data-name="Trazado 1616" d="M739.506,2022.591l-5.9-7.841,19.018-14.285,5.9,7.848-19.018,14.279Z" fill="#e5993a"/>
      <path id="Trazado_1617" data-name="Trazado 1617" d="M678.233,1880.83a52.4,52.4,0,0,1-5.377,18.693c-.815,1.631-1.631,3.409-2.55,5.217-4.7,9.351-2.808,20.013,4.248,23.82s16.6-.669,21.306-10.018c.815-1.613,1.655-3.145,2.409-4.623a52,52,0,0,1,10.049-13.592l8.038-7.83a2.682,2.682,0,0,0-3.74-3.844L700.4,1900.559l-.705.258-.663-.356-.281-.355-.044-1.116,13.005-18.191a3,3,0,1,0-4.887-3.494l-12.777,17.872-1.207.257a1.211,1.211,0,0,1-.5-1.514l8.791-20.993a3.217,3.217,0,1,0-5.935-2.483l-8.755,20.9a1.2,1.2,0,0,1-1.4.7l-.324-.073a1.2,1.2,0,0,1-.944-1.3l1.973-21.1a3.214,3.214,0,1,0-6.4-.6l-1.116,11.857Z" fill="#ce6473"/>
    </g>
  </g>
</svg>
