<svg xmlns="http://www.w3.org/2000/svg" width="172.236" height="179.969" viewBox="0 0 172.236 179.969">
  <g id="Grupo_10089" data-name="Grupo 10089" transform="translate(-916.267 -5641.959)">
    <path id="Trazado_12190" data-name="Trazado 12190" d="M1088.5,5735.81a86.118,86.118,0,1,1-86.118-86.118,86.118,86.118,0,0,1,86.118,86.118Zm0,0" fill="#91e0e8"/>
    <path id="Trazado_12191" data-name="Trazado 12191" d="M1088.5,5735.81a86.118,86.118,0,1,1-86.118-86.118,86.118,86.118,0,0,1,86.118,86.118Zm0,0" fill="#5fc6ff"/>
    <path id="Trazado_12192" data-name="Trazado 12192" d="M1045.015,5654.31h-22.542v12.968a1.437,1.437,0,0,1-1.437,1.435H969.555a1.438,1.438,0,0,1-1.436-1.435V5654.31H945.578a5.776,5.776,0,0,0-5.76,5.759v134.912a86.415,86.415,0,0,0,22.6,17.126h79.926a86.309,86.309,0,0,0,8.374-5.016,5.842,5.842,0,0,0,.054-.743V5660.069a5.777,5.777,0,0,0-5.761-5.759Zm0,0" fill="#bf7e52"/>
    <path id="Trazado_12193" data-name="Trazado 12193" d="M947.2,5660.069a5.775,5.775,0,0,1,5.76-5.759h-7.381a5.776,5.776,0,0,0-5.76,5.759v134.912a86.509,86.509,0,0,0,7.381,6.933Zm0,0" fill="#a5683f"/>
    <path id="Trazado_12194" data-name="Trazado 12194" d="M1008.524,5650.4a14.588,14.588,0,0,0-26.455,0Zm0,0" fill="#ea2a3d"/>
    <path id="Trazado_12195" data-name="Trazado 12195" d="M989.333,5650.4a14.621,14.621,0,0,1,9.6-7.98,14.606,14.606,0,0,0-16.86,7.98Zm0,0" fill="#b7092b"/>
    <path id="Trazado_12196" data-name="Trazado 12196" d="M1037.338,5663.909h-14.865v3.368a1.438,1.438,0,0,1-1.437,1.436H969.555a1.439,1.439,0,0,1-1.436-1.436v-3.368H953.256a3.851,3.851,0,0,0-3.841,3.839V5798.67a3.851,3.851,0,0,0,3.841,3.839h84.082a3.849,3.849,0,0,0,3.838-3.839V5667.748a3.849,3.849,0,0,0-3.838-3.839Zm0,0" fill="#fff"/>
    <path id="Trazado_12197" data-name="Trazado 12197" d="M956.69,5798.67V5667.748a3.85,3.85,0,0,1,3.839-3.839h-7.273a3.85,3.85,0,0,0-3.839,3.839V5798.67a3.849,3.849,0,0,0,3.839,3.839h7.273a3.849,3.849,0,0,1-3.839-3.839Zm0,0" fill="#eef6ff"/>
    <path id="Trazado_12198" data-name="Trazado 12198" d="M1022.824,5667.277a1.793,1.793,0,0,1-1.788,1.788H969.555a1.793,1.793,0,0,1-1.787-1.788v-15.445a1.792,1.792,0,0,1,1.787-1.788h51.481a1.793,1.793,0,0,1,1.788,1.788Zm0,0" fill="#fe3745"/>
    <path id="Trazado_12199" data-name="Trazado 12199" d="M975.1,5667.277v-15.445a1.793,1.793,0,0,1,1.788-1.788h-7.33a1.792,1.792,0,0,0-1.787,1.788v15.445a1.793,1.793,0,0,0,1.787,1.788h7.33a1.793,1.793,0,0,1-1.788-1.788Zm0,0" fill="#ea2a3d"/>
    <path id="Trazado_12200" data-name="Trazado 12200" d="M1006.577,5661.8H984.016a2.879,2.879,0,1,1,0-5.758h22.561a2.879,2.879,0,1,1,0,5.758Zm0,0" fill="#b7092b"/>
    <path id="Trazado_12201" data-name="Trazado 12201" d="M988.477,5658.916a2.879,2.879,0,0,1,2.881-2.877h-7.342a2.879,2.879,0,1,0,0,5.758h7.342a2.881,2.881,0,0,1-2.881-2.881Zm0,0" fill="#a00026"/>
    <path id="Trazado_12202" data-name="Trazado 12202" d="M1028.58,5707.678H980.986a2.88,2.88,0,0,1,0-5.76h47.594a2.88,2.88,0,0,1,0,5.76Zm0,0" fill="#ebaa48"/>
    <path id="Trazado_12203" data-name="Trazado 12203" d="M968.543,5708.076a2.285,2.285,0,0,1-3.231,0l-4.033-4.034a6.057,6.057,0,0,0-.053.755,5.951,5.951,0,1,0,11.9,0,6.023,6.023,0,0,0-.118-1.186Zm0,0" fill="#eec97a"/>
    <path id="Trazado_12204" data-name="Trazado 12204" d="M964.1,5700.4l2.83,2.831,3.447-3.445a5.916,5.916,0,0,0-6.754.251,2.238,2.238,0,0,1,.477.363Zm0,0" fill="#eec97a"/>
    <path id="Trazado_12205" data-name="Trazado 12205" d="M964.1,5700.4l1.459,1.458a5.964,5.964,0,0,1,3.395-2.741,5.939,5.939,0,0,0-5.331.919,2.275,2.275,0,0,1,.477.364Zm0,0" fill="#ebaa48"/>
    <path id="Trazado_12206" data-name="Trazado 12206" d="M966.161,5708.61a2.279,2.279,0,0,1-.849-.534l-4.033-4.034a6.057,6.057,0,0,0-.053.755,5.955,5.955,0,0,0,7.725,5.682,5.942,5.942,0,0,1-2.79-1.869Zm0,0" fill="#ebaa48"/>
    <path id="Trazado_12207" data-name="Trazado 12207" d="M1028.58,5726.2H980.986a2.88,2.88,0,0,1,0-5.759h47.594a2.88,2.88,0,0,1,0,5.759Zm0,0" fill="#85a0dd"/>
    <path id="Trazado_12208" data-name="Trazado 12208" d="M973.128,5723.322a5.951,5.951,0,1,1-5.951-5.95,5.951,5.951,0,0,1,5.951,5.95Zm0,0" fill="#aec1ed"/>
    <path id="Trazado_12209" data-name="Trazado 12209" d="M964.774,5723.322a5.953,5.953,0,0,1,4.177-5.681,5.95,5.95,0,1,0,0,11.363,5.952,5.952,0,0,1-4.177-5.682Zm0,0" fill="#85a0dd"/>
    <path id="Trazado_12210" data-name="Trazado 12210" d="M1028.58,5744.727H980.986a2.88,2.88,0,0,1,0-5.759h47.594a2.88,2.88,0,0,1,0,5.759Zm0,0" fill="#85a0dd"/>
    <path id="Trazado_12211" data-name="Trazado 12211" d="M973.128,5741.848a5.951,5.951,0,1,1-5.951-5.951,5.952,5.952,0,0,1,5.951,5.951Zm0,0" fill="#aec1ed"/>
    <path id="Trazado_12212" data-name="Trazado 12212" d="M964.774,5741.848a5.951,5.951,0,0,1,4.177-5.682,5.95,5.95,0,1,0,0,11.363,5.951,5.951,0,0,1-4.177-5.681Zm0,0" fill="#85a0dd"/>
    <path id="Trazado_12213" data-name="Trazado 12213" d="M1028.58,5763.252H980.986a2.88,2.88,0,0,1,0-5.76h47.594a2.88,2.88,0,0,1,0,5.76Zm0,0" fill="#2bb381"/>
    <path id="Trazado_12214" data-name="Trazado 12214" d="M973.128,5760.373a5.951,5.951,0,1,1-5.951-5.952,5.952,5.952,0,0,1,5.951,5.952Zm0,0" fill="#60d882"/>
    <path id="Trazado_12215" data-name="Trazado 12215" d="M964.774,5760.373a5.952,5.952,0,0,1,4.177-5.682,5.952,5.952,0,1,0-1.774,11.633,5.976,5.976,0,0,0,1.774-.269,5.954,5.954,0,0,1-4.177-5.682Zm0,0" fill="#37c47a"/>
    <path id="Trazado_12216" data-name="Trazado 12216" d="M1028.58,5781.777H980.986a2.879,2.879,0,1,1,0-5.758h47.594a2.879,2.879,0,1,1,0,5.758Zm0,0" fill="#2bb381"/>
    <path id="Trazado_12217" data-name="Trazado 12217" d="M973.128,5778.9a5.951,5.951,0,1,1-5.951-5.951,5.951,5.951,0,0,1,5.951,5.951Zm0,0" fill="#60d882"/>
    <path id="Trazado_12218" data-name="Trazado 12218" d="M964.774,5778.9a5.952,5.952,0,0,1,4.177-5.682,5.952,5.952,0,1,0-1.774,11.634,5.915,5.915,0,0,0,1.774-.271,5.95,5.95,0,0,1-4.177-5.681Zm0,0" fill="#37c47a"/>
    <path id="Trazado_12219" data-name="Trazado 12219" d="M966.927,5709.1a2.623,2.623,0,0,1-1.863-.771l-4.446-4.447a2.636,2.636,0,0,1,3.728-3.729l2.583,2.583,6.31-6.311a2.636,2.636,0,0,1,3.729,3.728l-8.176,8.176a2.627,2.627,0,0,1-1.865.771Zm0,0" fill="#293d7c"/>
    <path id="Trazado_12220" data-name="Trazado 12220" d="M990.033,5694.343a.845.845,0,0,1-.836-.99l1-5.819-4.228-4.121a.848.848,0,0,1,.471-1.446l5.843-.85,2.611-5.293a.849.849,0,0,1,1.522,0l2.611,5.293,5.842.85a.847.847,0,0,1,.471,1.446l-4.227,4.121,1,5.819a.85.85,0,0,1-1.23.894l-5.226-2.748-5.226,2.748a.861.861,0,0,1-.394.1Zm0,0" fill="#eec97a"/>
    <path id="Trazado_12221" data-name="Trazado 12221" d="M993.722,5691.936l1-5.818L990.493,5682a.837.837,0,0,1-.25-.582l-3.8.553a.848.848,0,0,0-.471,1.446l4.228,4.121-1,5.819a.848.848,0,0,0,.836.991.863.863,0,0,0,.394-.1l3.384-1.78a.851.851,0,0,1-.089-.531Zm0,0" fill="#ebaa48"/>
    <g id="Grupo_10088" data-name="Grupo 10088">
      <path id="Trazado_12222" data-name="Trazado 12222" d="M1064.152,5777.382a2.64,2.64,0,0,1-2.628-2.653l.043-9.455a2.641,2.641,0,1,1,5.281.024l-.043,9.455a2.641,2.641,0,0,1-2.653,2.629Z" fill="#82757f"/>
      <path id="Trazado_12223" data-name="Trazado 12223" d="M1061.344,5659.979a2.487,2.487,0,0,0-2.491,2.281c-1.164,14.342-1.834,29.729-1.907,45.751a580.784,580.784,0,0,0,2.65,59.382c.548,5.529,8.605,5.565,9.2.042a580.5,580.5,0,0,0,3.192-59.356c.073-16.037-.457-31.444-1.493-45.808a2.438,2.438,0,0,0-2.425-2.26l-6.73-.032Z" fill="#979599"/>
      <path id="Trazado_12224" data-name="Trazado 12224" d="M1065.376,5767.419c-.9-18.046-1.354-38.161-1.257-59.376.073-16.022.457-31.41,1.1-45.754.058-1.294.629-2.289,1.308-2.286l1.55.007-6.73-.031a2.485,2.485,0,0,0-2.491,2.281c-1.165,14.341-1.834,29.728-1.907,45.75a580.509,580.509,0,0,0,2.649,59.382,4.636,4.636,0,0,0,6.94,3.579,5.623,5.623,0,0,1-1.16-3.552Z" fill="#82757f"/>
      <path id="Trazado_12225" data-name="Trazado 12225" d="M1061.339,5661.119l6.73.031a2.421,2.421,0,0,1,1.052.247l.032-7.207a4.439,4.439,0,1,0-8.877-.041l-.033,7.222a2.467,2.467,0,0,1,1.1-.252Z" fill="#e8e3e6"/>
      <path id="Trazado_12226" data-name="Trazado 12226" d="M1064.986,5654.4a4.48,4.48,0,0,1,2.28-3.889,4.394,4.394,0,0,0-2.531-.817,4.459,4.459,0,0,0-4.459,4.458l-.033,7.221a2.464,2.464,0,0,1,1.1-.252l3.616.017.031-6.738Z" fill="#d5ced2"/>
      <path id="Trazado_12227" data-name="Trazado 12227" d="M1061.344,5659.979a2.487,2.487,0,0,0-2.491,2.281q-.5,6.2-.879,12.643l13.292.061q-.318-6.467-.767-12.693a2.44,2.44,0,0,0-2.425-2.261l-6.73-.031Z" fill="#82757f"/>
      <path id="Trazado_12228" data-name="Trazado 12228" d="M1058.853,5662.26l0,.035c-.312,3.839-.623,8.261-.877,12.609l6.755.031q.211-6.442.487-12.645c.058-1.295.63-2.29,1.309-2.287l.788,0-5.969-.028a2.485,2.485,0,0,0-2.491,2.281Z" fill="#614a5b"/>
      <path id="Trazado_12229" data-name="Trazado 12229" d="M1058.51,5754.785q.477,6.448,1.085,12.6c.549,5.53,8.606,5.566,9.205.042.444-4.093.844-8.3,1.2-12.594l-11.491-.053Z" fill="#82757f"/>
      <path id="Trazado_12230" data-name="Trazado 12230" d="M1064.836,5754.814l-6.326-.029q.118,1.609.246,3.2l0,.019q.123,1.554.256,3.09c.019.217.038.432.058.649q.106,1.237.219,2.466.148,1.6.3,3.179a4.476,4.476,0,0,0,4.579,4.166,4.884,4.884,0,0,0,2.36-.587,5.628,5.628,0,0,1-1.159-3.551c-.2-4.1-.383-8.306-.54-12.6Z" fill="#614a5b"/>
      <path id="Trazado_12231" data-name="Trazado 12231" d="M1079.259,5699.974a2.64,2.64,0,0,1-2.645-2.635c-.019-9.218-.363-18.381-1.023-27.275l-17.139-.079a2.64,2.64,0,1,1,.025-5.281l19.57.09a2.64,2.64,0,0,1,2.62,2.427c.794,9.784,1.207,19.913,1.227,30.107a2.642,2.642,0,0,1-2.635,2.646Z" fill="#e8e3e6"/>
    </g>
  </g>
</svg>
