<svg xmlns="http://www.w3.org/2000/svg" width="1095" height="261.018" viewBox="0 0 1095 261.018">
  <g id="Grupo_10015" data-name="Grupo 10015" transform="translate(-172 -2673.639)">
    <rect id="Rect치ngulo_2943" data-name="Rect치ngulo 2943" width="1095" height="261.018" rx="6" transform="translate(172 2673.639)" fill="#bfe8ff"/>
    <g id="Grupo_8304" data-name="Grupo 8304">
      <g id="Grupo_8300" data-name="Grupo 8300">
        <path id="Trazado_1667" data-name="Trazado 1667" d="M322.9,2867.75l1.652-6.629-1.652-5.172h-6.5l-1.127,5.9,1.127,5.9Zm0,0" fill="#eff6ff" fill-rule="evenodd"/>
        <path id="Trazado_1668" data-name="Trazado 1668" d="M316.409,2855.95v11.8l-8.846,10.981a.369.369,0,0,1-.517.059,13.457,13.457,0,0,1-4.875-10.282,15.921,15.921,0,0,1,.23-2.9,20.33,20.33,0,0,1,1.034-3.755,19.27,19.27,0,0,1-1.174-4.78,15.038,15.038,0,0,1-.041-2.9,13.437,13.437,0,0,1,4.825-9.256.369.369,0,0,1,.518.058Zm0,0" fill="#82d3fa" fill-rule="evenodd"/>
        <path id="Trazado_1669" data-name="Trazado 1669" d="M307.563,2878.731l8.846-10.981v-5.989c-.7,1.027-12.524,13.288-12.069,13.991a12.964,12.964,0,0,0,2.706,3.039c.184.147.517-.06.517-.06Zm0,0" fill="#4bc0f9" fill-rule="evenodd"/>
        <path id="Trazado_1670" data-name="Trazado 1670" d="M373.005,2892.116c5.14-3.443,6.786-10.5,6.456-13.75h-6.423c-.157.068-3.648,4.8-3.806,4.863a.126.126,0,0,1-.026.01c-2.3,5.372-5.172,7.321-9.841,11.235-1.807,1.515,8.956.787,13.64-2.358Zm0,0" fill="#82d3fa" fill-rule="evenodd"/>
        <path id="Trazado_1671" data-name="Trazado 1671" d="M322.9,2867.75l-5.439,12.534c-6.234,14.368,20.049,13.488,43.5,5.943-13.078-1.961-25.36-6.431-38.058-18.477Zm0,0" fill="#82d3fa" fill-rule="evenodd"/>
        <path id="Trazado_1672" data-name="Trazado 1672" d="M362.782,2834.894c-24.476-9-52.735-7.356-45.955,7.619l6.078,13.436c5.167-18.246,22.072-20.557,39.877-21.055Zm0,0" fill="#82d3fa" fill-rule="evenodd"/>
        <path id="Trazado_1673" data-name="Trazado 1673" d="M333.936,2881.348c5.015-22.134-3.05-21.971-1.5-42.629-6.964,5.058-8.635,12.76-9.527,17.23v11.8c1.505,3.254,4.156,9.259,11.031,13.6Zm0,0" fill="#fde588" fill-rule="evenodd"/>
        <path id="Trazado_1674" data-name="Trazado 1674" d="M363.515,2885.372c2.74-11.45,2.955-27.29.9-36.277s-1.924-10.171-.74-13.865c-.3-.111-.591-.225-.89-.336a74.65,74.65,0,0,0-9.7-1.089c-4.379,18.618,5.544,27.736.2,52.662a69.772,69.772,0,0,0,7.676-.24c.854-.279,1.708-.561,2.552-.855Zm0,0" fill="#fde588" fill-rule="evenodd"/>
        <path id="Trazado_1675" data-name="Trazado 1675" d="M369.7,2883.035c14.41-5.921,25.717-14.211,24.192-22.5-3.537-9.931-13.277-17.7-24.727-23-4.685,7.164,3.128,27.994.063,45.694.158-.063.315-.125.472-.194Zm13.3-24.177a3.237,3.237,0,1,1,0-4.575,3.234,3.234,0,0,1,0,4.575Zm0,0" fill="#fde588" fill-rule="evenodd"/>
        <path id="Trazado_1676" data-name="Trazado 1676" d="M348.126,2886.09c3.411-14.132,2.939-24.581,1.174-33.29s-2.239-15.925-1.363-18.964a34.287,34.287,0,0,0-9.49,1.782c-5.334,18.6,4.679,30.785.2,48.114a38.257,38.257,0,0,0,9.48,2.358Zm0,0" fill="#fde588" fill-rule="evenodd"/>
        <path id="Trazado_1677" data-name="Trazado 1677" d="M378.428,2858.858a3.237,3.237,0,1,0,0-4.575,3.234,3.234,0,0,0,0,4.575Zm0,0" fill="#7e707d" fill-rule="evenodd"/>
        <path id="Trazado_1678" data-name="Trazado 1678" d="M338.646,2883.732a46.619,46.619,0,0,0,2.081-14.5c.042-5.863-1.619-9.83-2.322-13.361a51.051,51.051,0,0,1,.042-20.248,23.221,23.221,0,0,0-6.015,3.1c-2.861,20.064,5.167,19.887,1.5,42.628a28.832,28.832,0,0,0,4.71,2.384Zm0,0" fill="#fe8d94" fill-rule="evenodd"/>
        <path id="Trazado_1679" data-name="Trazado 1679" d="M353.287,2886.467c7.027-24.618-3.039-33.762-.2-52.662q-2.742-.111-5.145.031c-.876,3.039-1.688,10.16.079,18.875s3.521,19.247.11,33.379c1.614.2,3.332.33,5.161.377Zm0,0" fill="#fe8d94" fill-rule="evenodd"/>
        <path id="Trazado_1680" data-name="Trazado 1680" d="M369.7,2883.035c14.41-5.921,25.717-14.211,24.192-22.5a27.944,27.944,0,0,0-3.568-6.787c.084.215.168.43.242.645,1.4,7.593-7.965,15.181-20.62,20.955a53.054,53.054,0,0,1-.718,7.881c.158-.063.315-.125.472-.194Zm0,0" fill="#fdd76f" fill-rule="evenodd"/>
        <path id="Trazado_1681" data-name="Trazado 1681" d="M348.126,2886.09c.22-.9.414-1.782.591-2.652.215-1.063.4-2.106.561-3.133-1.577-.058-3.065-.179-4.474-.356a42.673,42.673,0,0,1-4.952-.907c-.042.246-.1.493-.141.734a34.541,34.541,0,0,1-1.065,3.956,38.257,38.257,0,0,0,9.48,2.358Zm0,0" fill="#fdd76f" fill-rule="evenodd"/>
        <path id="Trazado_1682" data-name="Trazado 1682" d="M353.287,2886.467c.157-.549.3-1.095.445-1.63q.623-2.373,1.038-4.564c-.136.006-.277.016-.414.022q-2.3.093-4.4.036c-.2-.006-.409-.016-.614-.02a.264.264,0,0,1-.068-.006c-.163,1.027-.346,2.07-.561,3.133q-.266,1.305-.586,2.647l-.005.005c1.614.2,3.332.33,5.161.377Zm0,0" fill="#ff6d75" fill-rule="evenodd"/>
        <path id="Trazado_1683" data-name="Trazado 1683" d="M360.963,2886.227c.854-.279,1.708-.561,2.552-.855.545-2.274.991-4.721,1.337-7.252v-.006c.026-.209.058-.424.078-.633-1.551.613-3.139,1.2-4.742,1.75-.843.293-1.7.581-2.552.854-.98.084-1.933.147-2.866.189q-.415,2.193-1.038,4.564c-.141.535-.288,1.08-.445,1.63a70.028,70.028,0,0,0,7.676-.241Zm0,0" fill="#fdd76f" fill-rule="evenodd"/>
        <path id="Trazado_1684" data-name="Trazado 1684" d="M369.232,2883.229c1.111-3.5,1.362-2.541,1.923-14s-4.978-24.376-1.986-31.692c-1.8-.828-3.636-1.6-5.5-2.3a25.78,25.78,0,0,0-.418,13.865,79.58,79.58,0,0,1,.261,36.277c1.944-.67,3.857-1.388,5.717-2.143Zm0,0" fill="#fe8d94" fill-rule="evenodd"/>
        <path id="Trazado_1685" data-name="Trazado 1685" d="M369.232,2883.229c.875-2.767,1.221-2.751,1.6-8.29-1.445.677-2.934,1.332-4.453,1.955-.163.068-.32.131-.477.193-.325.132-.645.263-.975.394a70.272,70.272,0,0,1-1.415,7.891c1.944-.67,3.857-1.388,5.717-2.143Zm0,0" fill="#ff6d75" fill-rule="evenodd"/>
        <path id="Trazado_1686" data-name="Trazado 1686" d="M333.936,2881.348c.236-1.457.419-2.814.566-4.092a28.785,28.785,0,0,1-3.893-2.05,25.985,25.985,0,0,1-7.7-7.456c1.505,3.254,4.156,9.259,11.031,13.6Zm0,0" fill="#fdd76f" fill-rule="evenodd"/>
        <path id="Trazado_1687" data-name="Trazado 1687" d="M338.646,2883.732a34.749,34.749,0,0,0,1.065-3.956c.046-.241.1-.488.141-.734-.1-.026-.2-.052-.3-.074-1.084-.277-2.107-.591-3.076-.937-.392-.142-.78-.289-1.158-.435-.194-.079-.382-.157-.576-.241-.079-.031-.163-.069-.241-.1-.147,1.278-.33,2.635-.566,4.092a28.832,28.832,0,0,0,4.71,2.384Zm0,0" fill="#ff6d75" fill-rule="evenodd"/>
        <rect id="Rect치ngulo_2944" data-name="Rect치ngulo 2944" width="6.497" height="5.989" transform="translate(316.409 2861.76)" fill="#d9eeff"/>
        <path id="Trazado_1688" data-name="Trazado 1688" d="M310.094,2858.6a1.386,1.386,0,0,1-1.793.8l-6.04-2.328a15.038,15.038,0,0,1-.041-2.9,1.326,1.326,0,0,1,.45.09l6.628,2.553a1.387,1.387,0,0,1,.8,1.791Zm0,0" fill="#4bc0f9"/>
        <path id="Trazado_1689" data-name="Trazado 1689" d="M309.2,2866.453l-6.628,2a1.4,1.4,0,0,1-.4.059,15.921,15.921,0,0,1,.23-2.9l6-1.806a1.387,1.387,0,1,1,.8,2.655Zm0,0" fill="#4bc0f9"/>
      </g>
      <g id="Grupo_8301" data-name="Grupo 8301">
        <path id="Trazado_1690" data-name="Trazado 1690" d="M983.851,2892.183c.215-8.627,1.329-33.23,6.986-43.569,3.12-10.927,24.38-11.736,30.677-8.032,7.894,4.646,19.866,14.577,9.4,32.353l-14.241,15.978a16.957,16.957,0,0,1,1.283,1.738,2.975,2.975,0,0,1-2.509,4.584H986.827a2.979,2.979,0,0,1-2.976-3.052Zm0,0" fill="#7f4141"/>
        <path id="Trazado_1691" data-name="Trazado 1691" d="M847.134,2827.393c-10.237,16.684-11.622,56.163-11.837,64.79a2.98,2.98,0,0,0,2.98,3.052h30.639a3.279,3.279,0,0,0,2.678-4.631,8.911,8.911,0,0,0-1.923-2.589,1.194,1.194,0,0,1-.028-1.679l9.073-9.557c15.842-21.569-2.13-55.418-31.582-49.386Zm0,0" fill="#7f4141"/>
        <path id="Trazado_1692" data-name="Trazado 1692" d="M836.9,2780.822c0-22.615,15.492-57.261,53.648-65.608s76.987,5.379,102.528,8.347c27.636,3.211,57.087-.169,73.97.533,3.361.138,9.985-13.731,20.416-9.017,3.8,1.719,4.524,5.994,3.391,9.616a1.2,1.2,0,0,0,.714,1.5c6.515,2.4,13.623,7.835,17.988,12.8,4.063,4.624,7.523,12.977,11.042,20.166,2.4,4.91,3.838,30.019,1.579,32.455-9.286,10.072-21.866,15.888-30.144,23.445-7.566,6.9-13.394,18.812-14.259,30.128-.777,10.288-2.814,41.18-2.814,41.18a13.493,13.493,0,0,1,5.822,2.487,3.574,3.574,0,0,1-2.222,6.381h-28.383a3.6,3.6,0,0,1-2.74-1.27c-2.549-3.033-9.289-11.18-16.515-21.027a238.848,238.848,0,0,1-15.816-24.1c-7.3,0-15.635-.053-24.268-.228-21.66-.437-45.224-1.628-59.159-4.643l-.215-.028c-2.821,18.319-7.236,41.755-7.236,41.755a12.5,12.5,0,0,1,4.144,2.1,4.2,4.2,0,0,1-2.68,7.445H899.16a4.155,4.155,0,0,1-2.624-.93,152.745,152.745,0,0,1-17.542-17.2c-11.8-13.391-24.7-31.744-33.07-52.631-5.485-13.688-9.027-28.465-9.027-43.647Zm0,0" fill="#9b5454"/>
        <path id="Trazado_1693" data-name="Trazado 1693" d="M1122.126,2791.611c-9.915-2.88-13.179-10.986-12.952-16.228.287-6.72,3.446-14.826,11.42-16.227,2.4,4.91,4.834,9.291,7.5,11.566,4.621,3.95,2.068,9.435.15,12.742a45.725,45.725,0,0,1-6.069,8.147Zm0,0" fill="#ffecbb"/>
        <path id="Trazado_1694" data-name="Trazado 1694" d="M1128.092,2775.343a4.62,4.62,0,1,1,4.618,4.62,4.62,4.62,0,0,1-4.618-4.62Zm0,0" fill="#60373f"/>
        <path id="Trazado_1695" data-name="Trazado 1695" d="M1100.576,2754.553a4.018,4.018,0,1,1,4.019,4.018,4.019,4.019,0,0,1-4.019-4.018Zm0,0" fill="#60373f"/>
      </g>
      <g id="Grupo_8303" data-name="Grupo 8303">
        <path id="Trazado_1696" data-name="Trazado 1696" d="M710.854,2872.587h-15.1a.7.7,0,0,1-.548-1.128,62.6,62.6,0,0,0,13.723-39.293v-51.63a28.566,28.566,0,0,0-8.463-20.5,27.788,27.788,0,0,0-19.52-7.934c-.125,0-.25,0-.375,0a28.281,28.281,0,0,0-27.616,28.354v19.114a22.8,22.8,0,0,1-22.8,22.8H615.4a46.174,46.174,0,0,0-45.193,37.134,8.55,8.55,0,0,1-7.214,6.8,8.343,8.343,0,0,1-6.8-2.148,9.192,9.192,0,0,1-2.893-5.885l-2.355-22.57a20.759,20.759,0,0,1,8.477-18.75,36.849,36.849,0,0,0,15-29.567,3.344,3.344,0,0,0-3.329-3.366h-7.042a29.7,29.7,0,0,0-26.336,16.016,29.7,29.7,0,0,0-26.338-16.016h-6.959a3.466,3.466,0,0,0-1.359.252,3.335,3.335,0,0,0-2.052,3.077,36.718,36.718,0,0,0,16.006,30.317,20.422,20.422,0,0,1,8.921,16.861v21.026a39.683,39.683,0,0,0,39.681,39.683h80.245a62.815,62.815,0,0,0,20.083-3.27,2.1,2.1,0,0,1,1.675.126A25.774,25.774,0,0,0,680,2895.235H723.15a5.142,5.142,0,0,0,5.175-5.046,17.491,17.491,0,0,0-17.471-17.6Z" fill="#9bb9c3"/>
        <path id="Trazado_1697" data-name="Trazado 1697" d="M710.854,2872.587" fill="#9bb9c3"/>
        <path id="Trazado_1698" data-name="Trazado 1698" d="M710.854,2872.587h-15.1a.7.7,0,0,1-.548-1.128,62.6,62.6,0,0,0,13.723-39.293V2780.49a28.512,28.512,0,0,0-8.233-20.228,27.762,27.762,0,0,0-16.936-8.019,27.763,27.763,0,0,1,7.41,18.967v52.076a62.956,62.956,0,0,1-26.157,51.18l.019.028a63.5,63.5,0,0,1-36.932,11.861H547.854a39.6,39.6,0,0,1-8.26-.867,39.508,39.508,0,0,0,26.019,9.747h80.245a62.815,62.815,0,0,0,20.083-3.27,2.1,2.1,0,0,1,1.675.126A25.774,25.774,0,0,0,680,2895.235H723.15a5.142,5.142,0,0,0,5.175-5.046,17.491,17.491,0,0,0-17.471-17.6Zm0,0" fill="#87a0af"/>
        <path id="Trazado_1699" data-name="Trazado 1699" d="M708.015,2880.581h-3.238a3.329,3.329,0,1,0,0,6.659h3.238a3.022,3.022,0,0,1,3.016,3.018v4.977h6.659v-4.977a9.686,9.686,0,0,0-9.675-9.677Zm0,0" fill="#738c96"/>
        <path id="Trazado_1700" data-name="Trazado 1700" d="M695.52,2789.835a3.328,3.328,0,0,0-3.329,3.329,3.974,3.974,0,0,1-7.931.372v-3.352h.478a3.33,3.33,0,1,0,0-6.66h-7.653a3.33,3.33,0,0,0,0,6.66h.495c.005,3.638-.007,2.855.01,3.352a3.975,3.975,0,0,1-7.932-.372,3.329,3.329,0,0,0-6.659,0,10.646,10.646,0,0,0,17.926,7.733,10.627,10.627,0,0,0,17.925-7.733,3.33,3.33,0,0,0-3.33-3.329Zm0,0" fill="#738c96"/>
        <path id="Trazado_1701" data-name="Trazado 1701" d="M695.534,2789.835a3.328,3.328,0,0,0-3.329,3.329,3.962,3.962,0,0,1-1.039,2.671v7.551a10.655,10.655,0,0,0,7.7-10.222,3.33,3.33,0,0,0-3.33-3.329Zm0,0" fill="#607882"/>
        <path id="Trazado_1702" data-name="Trazado 1702" d="M705.595,2787.779a3.329,3.329,0,0,1-1.068-6.483l12.223-4.141a3.33,3.33,0,1,1,2.137,6.308l-12.223,4.139a3.276,3.276,0,0,1-1.069.177Zm0,0" fill="#e1ebf0"/>
        <path id="Trazado_1703" data-name="Trazado 1703" d="M717.819,2808.123a3.376,3.376,0,0,1-1.069-.174l-12.223-4.141a3.33,3.33,0,1,1,2.139-6.308l12.221,4.141a3.328,3.328,0,0,1-1.068,6.482Zm0,0" fill="#e1ebf0"/>
        <path id="Trazado_1704" data-name="Trazado 1704" d="M717.819,2795.883H705.595a3.33,3.33,0,0,1,0-6.66h12.224a3.33,3.33,0,0,1,0,6.66Zm0,0" fill="#e1ebf0"/>
        <path id="Trazado_1705" data-name="Trazado 1705" d="M656.253,2787.779a3.26,3.26,0,0,1-1.067-.177l-12.225-4.139a3.33,3.33,0,0,1,2.139-6.308l12.222,4.141a3.329,3.329,0,0,1-1.069,6.483Zm0,0" fill="#e1ebf0"/>
        <path id="Trazado_1706" data-name="Trazado 1706" d="M644.03,2808.123a3.329,3.329,0,0,1-1.069-6.482l12.225-4.141a3.33,3.33,0,0,1,2.136,6.308l-12.224,4.141a3.431,3.431,0,0,1-1.068.174Zm0,0" fill="#e1ebf0"/>
        <path id="Trazado_1707" data-name="Trazado 1707" d="M656.253,2795.883H644.03a3.33,3.33,0,0,1,0-6.66h12.223a3.33,3.33,0,1,1,0,6.66Zm0,0" fill="#e1ebf0"/>
        <g id="Grupo_8302" data-name="Grupo 8302">
          <path id="Trazado_1708" data-name="Trazado 1708" d="M666.694,2775.99a3.237,3.237,0,1,0,0-4.576,3.234,3.234,0,0,0,0,4.576Zm0,0" fill="#566971" fill-rule="evenodd"/>
          <path id="Trazado_1709" data-name="Trazado 1709" d="M690.572,2775.99a3.237,3.237,0,1,0,0-4.576,3.234,3.234,0,0,0,0,4.576Zm0,0" fill="#566971" fill-rule="evenodd"/>
        </g>
      </g>
      <path id="Trazado_1710" data-name="Trazado 1710" d="M470.807,2859.47l-15.912-10.649a2.792,2.792,0,0,0-4.345,2.32v3.532H433.214a4.2,4.2,0,0,0-4.2,4.2v5.839a4.2,4.2,0,0,0,4.2,4.2H450.55v3.531a2.792,2.792,0,0,0,4.345,2.32l15.912-10.648A2.792,2.792,0,0,0,470.807,2859.47Z" fill="#e53e5e"/>
      <path id="Trazado_1711" data-name="Trazado 1711" d="M804.39,2859.47l-15.912-10.649a2.792,2.792,0,0,0-4.345,2.32v3.532H766.8a4.2,4.2,0,0,0-4.2,4.2v5.839a4.2,4.2,0,0,0,4.2,4.2h17.336v3.531a2.792,2.792,0,0,0,4.345,2.32l15.912-10.648A2.792,2.792,0,0,0,804.39,2859.47Z" fill="#e53e5e"/>
      <path id="Trazado_1712" data-name="Trazado 1712" d="M674.578,2825.3a2.886,2.886,0,1,0,0-4.079,2.885,2.885,0,0,0,0,4.079Zm0,0" fill="#7e707d" fill-rule="evenodd"/>
      <path id="Trazado_1713" data-name="Trazado 1713" d="M343.962,2862.112a96.1,96.1,0,0,0-41.129-.47c.024.068.043.135.068.2a20.987,20.987,0,0,0-.924,3.36l-.017.006-.052.305a16.577,16.577,0,0,0-.237,2.994h0l.007.493h.018a13.942,13.942,0,0,0,2.206,6.981l.019.035c.018.028.036.049.055.077.24.364.483.7.724,1.006.031.04.061.075.093.114.236.292.468.559.687.793.034.036.063.064.1.1.21.218.408.413.587.577l.087.079c.173.155.327.285.451.385l.032.028a.827.827,0,0,0,.106.057.781.781,0,0,0,.948-.065.391.391,0,0,0,.038-.019l.028-.034c.031-.029.071-.043.1-.077l8.7-10.794h5.5l-5.136,11.835c-1.473,3.394-1.278,6.155.58,8.2,2.406,2.654,7.423,3.779,13.718,3.779,8.678,0,19.784-2.14,29.811-5.366l2.031-.654-.045-.007.567-.2.01,0,.258-.089v0c1.444-.5,2.877-1.038,4.293-1.6-1.911,3.9-4.278,5.869-7.716,8.713-.47.389-.96.794-1.472,1.223-.626.524-.31,1.013-.24,1.1.28.374,1.16.543,2.376.543,3.354,0,9.255-1.3,12.1-3.208,5.029-3.369,6.926-10.1,6.7-13.865q1.185-.671,2.281-1.348a46.985,46.985,0,0,0,5.1-3.623q.445-.367.864-.735c3.723-3.279,5.847-6.636,6.222-9.921C383.561,2864.64,362.93,2866.57,343.962,2862.112Z" fill="#7e9e0b" opacity="0.5"/>
      <path id="Trazado_1714" data-name="Trazado 1714" d="M710.854,2872.587h-15.1a.7.7,0,0,1-.548-1.128,62.457,62.457,0,0,0,11.275-21.831c-23.827,1.491-63.47,2.816-100.132-1.3-10.894-1.222-21.377-1.916-31.216-2.241A45.769,45.769,0,0,0,570.2,2859.5a8.548,8.548,0,0,1-7.214,6.8,8.343,8.343,0,0,1-6.8-2.148,9.2,9.2,0,0,1-2.894-5.885l-1.284-12.31c-9.948.215-18.762.751-26.077,1.369v8.221a39.689,39.689,0,0,0,25.53,37.075l.034.013c.475.181.956.351,1.439.514.114.038.226.078.34.115q.636.207,1.283.393c.179.052.359.1.54.154q.583.159,1.174.3c.23.055.462.108.694.16.359.08.719.157,1.082.227.278.054.557.1.836.149.33.057.66.113.993.162s.659.086.989.125c.295.035.588.074.884.1.4.038.8.064,1.2.091.237.016.472.038.71.049.646.032,1.3.05,1.948.05h80.245a62.789,62.789,0,0,0,20.083-3.271,2.106,2.106,0,0,1,1.675.127A25.774,25.774,0,0,0,680,2895.235H723.15a5.142,5.142,0,0,0,5.175-5.046A17.491,17.491,0,0,0,710.854,2872.587Z" fill="#7e9e0b" fill-rule="evenodd" opacity="0.5"/>
      <path id="Trazado_1715" data-name="Trazado 1715" d="M973.273,2798.514c-59.11-5.008-113.476-1.169-134.682.78a129.193,129.193,0,0,0,7.333,25.175c.393.982.806,1.952,1.219,2.922l-.009,0c-10.237,16.684-11.621,56.163-11.837,64.79a2.98,2.98,0,0,0,2.98,3.052h30.639a3.279,3.279,0,0,0,2.678-4.631,8.924,8.924,0,0,0-1.923-2.589,1.193,1.193,0,0,1-.027-1.679l9.072-9.557c.093.1.186.217.279.321a152.658,152.658,0,0,0,17.541,17.2,4.155,4.155,0,0,0,2.624.93h26.527a4.2,4.2,0,0,0,2.681-7.445,12.517,12.517,0,0,0-4.144-2.1s4.415-23.435,7.236-41.754l.215.028c13.935,3.015,37.5,4.206,59.158,4.643h.005v0c-5.657,10.339-6.772,34.942-6.986,43.569a2.979,2.979,0,0,0,2.976,3.052h28.624a2.975,2.975,0,0,0,2.509-4.584,16.814,16.814,0,0,0-1.283-1.738l14.241-15.978c7.226,9.847,13.966,17.994,16.515,21.027a3.6,3.6,0,0,0,2.74,1.27h28.384a3.574,3.574,0,0,0,2.221-6.381,13.493,13.493,0,0,0-5.822-2.487s2.037-30.892,2.814-41.18c.865-11.316,6.693-23.226,14.259-30.128,5.724-5.226,13.505-9.621,20.832-15.164C1077.429,2801.348,1020.959,2802.553,973.273,2798.514Z" fill="#7e9e0b" opacity="0.5"/>
    </g>
  </g>
</svg>
