<svg xmlns="http://www.w3.org/2000/svg" width="99.428" height="99.429" viewBox="0 0 99.428 99.429">
  <g id="Grupo_8421" data-name="Grupo 8421" transform="translate(-208.91 -1153.041)">
    <path id="Trazado_2125" data-name="Trazado 2125" d="M308.338,1202.756a50.062,50.062,0,0,1-.724,8.494q-.2,1.148-.447,2.275l-14.219,11.407a56.129,56.129,0,0,1-69.258.779l-13.077-10.016c-.034-.118-.066-.239-.1-.359q-.525-2.01-.882-4.086a48.677,48.677,0,0,1-.6-4.987c-.082-1.158-.122-2.329-.122-3.507a49.714,49.714,0,0,1,99.426-.49c0,.163,0,.327,0,.49Zm0,0" fill="#5fc6ff"/>
    <g id="Grupo_8418" data-name="Grupo 8418">
      <path id="Trazado_2126" data-name="Trazado 2126" d="M235.094,1208.654a10.491,10.491,0,0,1,1.8,13.209,10.389,10.389,0,0,1,1.812.753,186.176,186.176,0,0,0-21.688,3.353,2.81,2.81,0,0,1-3.128-1.506,49.691,49.691,0,0,1-4.582-27.928,10.5,10.5,0,0,1,12.177-1.048,9.516,9.516,0,1,1,13.612,13.167Zm0,0" fill="#5db33a"/>
      <path id="Trazado_2127" data-name="Trazado 2127" d="M258.624,1221.672a199.509,199.509,0,0,0-37.788,3.511,10.639,10.639,0,0,1-.137-2.069,10.436,10.436,0,0,1,1.64-5.308,9.516,9.516,0,1,1,13.593-13.188,10.488,10.488,0,0,1,13.259-1.376,10.489,10.489,0,1,1,15.223,12.461,14.5,14.5,0,0,1,2.5,6.13q-4.1-.161-8.294-.161Zm0,0" fill="#6dc54a"/>
    </g>
    <g id="Grupo_8419" data-name="Grupo 8419">
      <path id="Trazado_2128" data-name="Trazado 2128" d="M307.167,1213.525q-.2.912-.437,1.811a49.576,49.576,0,0,1-11.382,20.928q-1.008,1.1-2.081,2.146l-.1-.009a6.182,6.182,0,0,0-6.772,5.59,49.474,49.474,0,0,1-27.62,8.479h-.154a49.622,49.622,0,0,1-14.846-2.257,6.6,6.6,0,0,0-7.277-3.8l-1.24.237a49.915,49.915,0,0,1-13.362-10.384q-1.221-1.338-2.34-2.76l.053-.211a7.059,7.059,0,0,0-5.624-8.632h0a49.17,49.17,0,0,1-3.373-8.966l8.847-10.98a14.785,14.785,0,0,1,11.508-5.5,14.759,14.759,0,0,0,10.452-4.331l6.364-6.362,3.959-3.958a26.787,26.787,0,0,0,14.167,1.469l1.995-.334,13.807,13.808a4.042,4.042,0,0,0,5.717,0,4.038,4.038,0,0,1,5.715,0Zm0,0" fill="#b15848"/>
      <path id="Trazado_2129" data-name="Trazado 2129" d="M301.13,1224.773v3.772a49.836,49.836,0,0,1-7.863,9.865l-.1-.009a6.182,6.182,0,0,0-6.772,5.59,49.8,49.8,0,0,1-42.62,6.222,6.6,6.6,0,0,0-7.277-3.8l-1.24.237h0a49.942,49.942,0,0,1-15.7-13.146l.053-.209a7.051,7.051,0,0,0-2.259-7.038l9.359-11.609a12.041,12.041,0,0,1,9.377-4.486,12.032,12.032,0,0,0,8.516-3.529l4.418-4.416,3.994-3.994a3.428,3.428,0,0,1,2.424-1h7.4a3.429,3.429,0,0,1,2.426,1l3.819,3.819,8.357,8.359a3.3,3.3,0,0,0,4.658,0,3.294,3.294,0,0,1,4.659,0Zm0,0" fill="#a44e3e"/>
      <path id="Trazado_2130" data-name="Trazado 2130" d="M289.794,1232.4c-1.089-2.166-2.47-4.342-4.624-5.452-2.017-1.037-4.307-.943-6.506-.883-2.029.054-4.329.683-6.155-.482-1.832-1.111-1.944-3.266-1.906-5.193.046-2.266.733-4-.84-6.012a27.131,27.131,0,0,0-3.226-3.046,6.859,6.859,0,0,1-2.351-3.677c-.369-2.113.889-4.117,1.9-6.005a8.66,8.66,0,0,0,1.218-3.9,25.394,25.394,0,0,1-.194-2.991,4.073,4.073,0,0,1,4.1-3.675c.044,0,.123,0,.234.007a.753.753,0,0,0,.572-1.286l-4.116-4.117-1.995.334a26.787,26.787,0,0,1-14.167-1.469l-.982.982-2.319,2.317a.753.753,0,0,0,.122,1.163c2.667,1.73,5.245,3.577,2.9,7-1.443,2.111-4.01,1.541-5.651,3.31-1.722,1.856-2.212,5.288-4.492,6.531-2.9,1.587-6.053,1.431-8.57,3.994-1.722,1.754-2.676,4.119-4.218,6.034-2.878,3.569-7.442,5.2-11.584,7.169a31.466,31.466,0,0,0-2.967,1.6c.228.465.466.928.709,1.386a49.35,49.35,0,0,0,4.864,7.457,32.209,32.209,0,0,1,7.187-5.927c2.084-1.244,4.393-2.328,5.79-4.315,2.44-3.478,1.419-8.8,4.462-11.766,2.251-2.195,6.09-2.357,7.947-4.893.923-1.262,1.18-2.917,2.088-4.193a9.264,9.264,0,0,1,4.141-2.806,12.1,12.1,0,0,0,4.339-2.542c1.048-1.131.913-2.739,1.691-3.98a4.238,4.238,0,0,1,1.42-1.382,3.4,3.4,0,0,1,2.191-.482,4.252,4.252,0,0,1,3.178,2.56,6.349,6.349,0,0,1,.182,4.179c-.927,3.4-3.906,5.352-4.933,8.647-.242.772-.426,1.558-.618,2.345a22.087,22.087,0,0,1-.74,2.539c-1.41,3.736-5.428,5.385-8.647,7.3-2.223,1.318-4.285,3.38-4.8,5.988a20.865,20.865,0,0,0,.074,6.038,14.393,14.393,0,0,1-.319,6.005c-.956,2.854-3.442,4.878-5.775,6.782a21.843,21.843,0,0,0-3.158,3.05,49.234,49.234,0,0,0,8.517,3.565,9.64,9.64,0,0,1,2.46-3.282c1.693-1.53,3.674-2.913,4.573-5.009,1.191-2.778.148-5.949-.814-8.813-.836-2.5-1.739-5.555-.611-8.112,1.441-3.271,5.031-4.453,7.676-6.436a15.475,15.475,0,0,0,1.562-1.338,13.246,13.246,0,0,0,2.064-2.561,2.225,2.225,0,0,1,3.179-.668c.109.077.22.151.33.225,1.919,1.273,3.224,2.814,2.906,5.267-.335,2.571-1.784,5.2-.414,7.721a5.944,5.944,0,0,0,3.365,2.645c3.816,1.3,8.88-.46,11.92,2.943,1.79,2.009,1.718,5,2.5,7.576a10.959,10.959,0,0,0,1.921,3.62,6.182,6.182,0,0,1,6.772-5.59l.1.009a27.126,27.126,0,0,1-3.473-6.006Zm0,0" fill="#ff6378"/>
      <path id="Trazado_2131" data-name="Trazado 2131" d="M293.267,1238.41" fill="#fe3345"/>
      <path id="Trazado_2132" data-name="Trazado 2132" d="M268.37,1189.21a.782.782,0,0,1-.229.925c-.4.232-.9-.177-1.363-.1a.906.906,0,0,0-.67.685,2.652,2.652,0,0,0-.008,1.005c.076.65.156,1.3.231,1.949a1.608,1.608,0,0,1-.028.763.561.561,0,0,1-.6.387c-.275-.064-.4-.378-.487-.646a16.643,16.643,0,0,0-1.305-2.959,4.43,4.43,0,0,0-.993-1.3,3.467,3.467,0,0,0-2.516-.656,7.656,7.656,0,0,0-1.783.416l-.049.015c-.118.041-.238.082-.355.124a3.341,3.341,0,0,0-1.4,1.167,13.42,13.42,0,0,0-1.036,1.781c-.237.444-.56.934-1.06.993a.83.83,0,0,1-.762-.346,1.969,1.969,0,0,1-.112-1.2c.052-.472.245-.917.308-1.387a2.841,2.841,0,0,0-.8-2.367,9.472,9.472,0,0,0-1.365-.976,3.647,3.647,0,0,1-.631-.533l-.014-.015a1.484,1.484,0,0,1,.07-2.038l.33-.329a4.2,4.2,0,0,1,2.976-1.234h9.074a4.2,4.2,0,0,1,2.975,1.234l1.137,1.135a1.477,1.477,0,0,1,.214,1.84.847.847,0,0,0-.161.487,4.329,4.329,0,0,0,.412,1.188Zm0,0" fill="#ffc300"/>
      <path id="Trazado_2133" data-name="Trazado 2133" d="M268.37,1189.21" fill="#ff9f00"/>
      <path id="Trazado_2134" data-name="Trazado 2134" d="M254.565,1184.752c-.412.032-.795.069-1.1.071-.2,0-.444.023-.547.2a.4.4,0,0,0,.069.447,1.527,1.527,0,0,0,.514.411c1.084.756,2.63,1.857,3.864,1.131a1.191,1.191,0,0,0,.465-1.595c-.632-.828-2.069-.758-3.26-.664Zm0,0" fill="#ffeb98"/>
      <path id="Trazado_2135" data-name="Trazado 2135" d="M262,1184.4l-.017-.023a.68.68,0,0,0-.554-.217,1.34,1.34,0,0,0-1.117.339,1.033,1.033,0,0,0,.152,1.46,1.158,1.158,0,0,0,1.18.09,1.115,1.115,0,0,0,.575-1.044,1.144,1.144,0,0,0-.219-.6Zm0,0" fill="#f9e073"/>
      <path id="Trazado_2136" data-name="Trazado 2136" d="M262.728,1186.2a19.192,19.192,0,0,1,1.461-1.251c1.348-.829,2.507.541,1.579,1.783a3.086,3.086,0,0,1-1.552.964,9.67,9.67,0,0,1-3.774.487c-.976-.075-1.268-.957-.189-1.237a5.8,5.8,0,0,0,2.475-.746Zm0,0" fill="#f9e073"/>
      <path id="Trazado_2137" data-name="Trazado 2137" d="M254.155,1178.093a.98.98,0,1,1-.981-.98.981.981,0,0,1,.981.98Zm0,0" fill="#fe3345"/>
      <path id="Trazado_2138" data-name="Trazado 2138" d="M248.925,1194.144a1.665,1.665,0,1,1-1.665-1.665,1.664,1.664,0,0,1,1.665,1.665Zm0,0" fill="#ffc300"/>
      <path id="Trazado_2139" data-name="Trazado 2139" d="M280.857,1178.093a.98.98,0,1,1-.981-.98.98.98,0,0,1,.981.98Zm0,0" fill="#fe3345"/>
      <path id="Trazado_2140" data-name="Trazado 2140" d="M270.607,1174.148a1.8,1.8,0,1,1-2.345-.977,1.8,1.8,0,0,1,2.345.977Zm0,0" fill="#ffeb98"/>
      <path id="Trazado_2141" data-name="Trazado 2141" d="M263.816,1180.713a.981.981,0,1,1-.982-.98.982.982,0,0,1,.982.98Zm0,0" fill="#ffeb98"/>
      <path id="Trazado_2142" data-name="Trazado 2142" d="M243.728,1168.79a.98.98,0,1,1-.981-.981.98.98,0,0,1,.981.981Zm0,0" fill="#ffc300"/>
      <path id="Trazado_2143" data-name="Trazado 2143" d="M246.92,1180.713a1.325,1.325,0,1,1-1.324-1.324,1.324,1.324,0,0,1,1.324,1.324Zm0,0" fill="#ffeb98"/>
      <path id="Trazado_2144" data-name="Trazado 2144" d="M276.419,1199.612a1.325,1.325,0,1,1-1.325-1.325,1.326,1.326,0,0,1,1.325,1.325Zm0,0" fill="#ffeb98"/>
    </g>
    <path id="Trazado_2145" data-name="Trazado 2145" d="M275.056,1249.69a10.49,10.49,0,0,1,8.016-19.243,10.488,10.488,0,0,1,15.83-8.459,9.505,9.505,0,0,1,6.926-3.593,49.844,49.844,0,0,1-30.772,31.295Zm0,0" fill="#5db33a"/>
    <path id="Trazado_2146" data-name="Trazado 2146" d="M306.275,1216.976a49.74,49.74,0,0,1-14.318,22.665,10.511,10.511,0,0,1,1.075-9.062,9.516,9.516,0,1,1,13.243-13.6Zm0,0" fill="#6dc54a"/>
    <g id="Grupo_8420" data-name="Grupo 8420">
      <path id="Trazado_2147" data-name="Trazado 2147" d="M244.241,1175.462v-.037a4.065,4.065,0,0,0-5.575-3.775,5.275,5.275,0,0,0-9.788,1.572,2.822,2.822,0,0,0-.424-.031,2.967,2.967,0,0,0-2.884,2.271Zm0,0" fill="#9fddff"/>
      <path id="Trazado_2148" data-name="Trazado 2148" d="M250.893,1162.664v-.033a3.773,3.773,0,0,1,5.174-3.5,4.9,4.9,0,0,1,9.084,1.459,2.543,2.543,0,0,1,.394-.03,2.753,2.753,0,0,1,2.676,2.108Zm0,0" fill="#9fddff"/>
      <path id="Trazado_2149" data-name="Trazado 2149" d="M291.676,1175.185v-.041a4.5,4.5,0,0,0-6.171-4.178,5.837,5.837,0,0,0-10.833,1.74,3.151,3.151,0,0,0-.47-.035,3.284,3.284,0,0,0-3.192,2.514Zm0,0" fill="#9fddff"/>
    </g>
  </g>
</svg>
