<svg xmlns="http://www.w3.org/2000/svg" width="99.428" height="99.429" viewBox="0 0 99.428 99.429">
  <g id="Grupo_8427" data-name="Grupo 8427" transform="translate(-211.527 -1318.684)">
    <path id="Trazado_2150" data-name="Trazado 2150" d="M310.955,1368.4c0,.54-.008,1.08-.027,1.615a49.719,49.719,0,0,1-97.991,10.182l0,0a49.752,49.752,0,0,1-1.381-10.18c-.019-.535-.027-1.075-.027-1.615q0-2.439.23-4.817a49.725,49.725,0,0,1,96.769-10.575l0,.005a49.21,49.21,0,0,1,1.728,7.034,49.9,49.9,0,0,1,.7,8.353Zm0,0" fill="#5fc6ff"/>
    <g id="Grupo_8425" data-name="Grupo 8425">
      <path id="Trazado_2151" data-name="Trazado 2151" d="M294.294,1341.1a2.968,2.968,0,0,0-2.884-2.271,2.822,2.822,0,0,0-.424.031,5.275,5.275,0,0,0-9.788-1.572,4.065,4.065,0,0,0-5.575,3.775v.037Zm-18.67,0" fill="#9fddff"/>
      <path id="Trazado_2152" data-name="Trazado 2152" d="M251.644,1328.307a2.755,2.755,0,0,1,2.677-2.108,2.553,2.553,0,0,1,.394.03,4.9,4.9,0,0,1,9.084-1.459,3.772,3.772,0,0,1,5.173,3.5v.033Zm17.327,0" fill="#9fddff"/>
      <path id="Trazado_2153" data-name="Trazado 2153" d="M248.854,1340.828a3.285,3.285,0,0,0-3.192-2.514,3.191,3.191,0,0,0-.471.035,5.837,5.837,0,0,0-10.832-1.74,4.5,4.5,0,0,0-6.171,4.178v.041Zm-20.665,0" fill="#9fddff"/>
    </g>
    <g id="Grupo_8426" data-name="Grupo 8426">
      <path id="Trazado_2154" data-name="Trazado 2154" d="M261.241,1418.113a49.538,49.538,0,0,0,34.059-13.5,2.577,2.577,0,0,0-.875-.719l-3.666-1.837a2.611,2.611,0,0,1-1.168-1.169l-1.736-3.471a2.614,2.614,0,0,0-1.511-1.307l-13.626-4.541a2.616,2.616,0,0,0-2,.14l-8.316,4.16a2.622,2.622,0,0,1-2.336,0l-8.265-4.134a2.625,2.625,0,0,0-2.091-.11l-7.97,2.992a2.613,2.613,0,0,0-1.664,2.01l-.784,4.723a2.615,2.615,0,0,1-1.861,2.083l-6.783,1.939a2.61,2.61,0,0,0-1.289.838l-.162.194A49.509,49.509,0,0,0,261.241,1418.113Z" fill="#b15848"/>
      <path id="Trazado_2155" data-name="Trazado 2155" d="M261.237,1362.471c-14.9,0-27.779,1.894-33.972-2.379v10.218c0,5.057,15.209,9.147,33.972,9.147s33.972-4.09,33.972-9.147v-10.218c-6.193,4.273-19.077,2.379-33.972,2.379Zm0,0" fill="#4482c3"/>
      <path id="Trazado_2156" data-name="Trazado 2156" d="M299.129,1349.4c0,3.005-3.645,5.762-9.643,7.84l3.111,2.286c-1.817-1.907-8.664-4.507-13.616-5.67l-6.664-.98-4.194-.615c-2.209-.156-4.508-.248-6.886-.248-3.044,0-5.984.144-8.742.418l-7.46,1.1c-5.71,1.163-10.036,5.1-12.034,7.2l-.013-3.485c-6-2.078-9.643-4.835-9.643-7.84,0-6.494,16.96-11.759,37.892-11.759s37.892,5.265,37.892,11.759Zm0,0" fill="#4482c3"/>
      <path id="Trazado_2157" data-name="Trazado 2157" d="M289.473,1357.244c-6.938,2.4-16.525,6.425-27.749,6.425s-21.785-4.021-28.723-6.425c2-2.091,6.324-3.855,12.034-5.018l7.46-1.1c2.758-.275,5.7-.418,8.742-.418,2.378,0,4.677.091,6.886.248l4.194.614,6.664.98c4.952,1.163,8.676,2.783,10.492,4.691Zm0,0" fill="#95a5a5"/>
      <path id="Trazado_2158" data-name="Trazado 2158" d="M299.129,1349.4v5.227c0,1.868-1.411,3.75-3.92,5.461-6.193,4.273-19.077,7.6-33.972,7.6s-27.779-3.332-33.972-7.6c-2.509-1.711-3.92-3.593-3.92-5.461V1349.4c0,3.005,3.645,5.762,9.643,7.84H233c6.938,2.4,17.012,3.92,28.236,3.92s21.3-1.516,28.236-3.92h.013c6-2.078,9.643-4.835,9.643-7.84Zm0,0" fill="#285680"/>
      <path id="Trazado_2159" data-name="Trazado 2159" d="M246.864,1406.9a1.306,1.306,0,0,1-1.168-1.89l.674-1.347a6.533,6.533,0,0,1,7.639-3.36l4.974,1.421a1.307,1.307,0,1,1-.716,2.512l-4.976-1.42a3.92,3.92,0,0,0-4.584,2.014l-.667,1.347a1.307,1.307,0,0,1-1.176.723Zm0,0" fill="#a44e3e"/>
      <path id="Trazado_2160" data-name="Trazado 2160" d="M280.836,1404.168a1.3,1.3,0,0,1-.653-.176l-3.835-2.222a3.936,3.936,0,0,0-3.862-.041l-2.123,1.176a1.306,1.306,0,1,1-1.265-2.286l2.124-1.176a6.566,6.566,0,0,1,6.437.065l3.836,2.221a1.307,1.307,0,0,1-.653,2.439Zm0,0" fill="#a44e3e"/>
      <path id="Trazado_2161" data-name="Trazado 2161" d="M269.188,1409.51a1.314,1.314,0,0,1-.727-.221l-.362-.244a4.653,4.653,0,0,0-4.911-.184,1.307,1.307,0,1,1-1.289-2.272,7.248,7.248,0,0,1,7.656.285l.362.243a1.307,1.307,0,0,1-.729,2.393Zm0,0" fill="#a44e3e"/>
      <path id="Trazado_2162" data-name="Trazado 2162" d="M286.123,1388.6h-1.367a2.613,2.613,0,0,1-2.613-2.613v-1.306a2.613,2.613,0,0,1,2.613-2.614h.845a2.612,2.612,0,0,1,2.422,1.643l.523,1.306a2.613,2.613,0,0,1-2.423,3.584Zm0,0" fill="#b15848"/>
      <path id="Trazado_2163" data-name="Trazado 2163" d="M260.613,1390.218l-1.678-.818a1.96,1.96,0,0,1-.548-3.128l.664-.683a1.961,1.961,0,0,1,2.067-.48l1.487.532a1.961,1.961,0,0,1,1.1,2.7l-.473.969a1.959,1.959,0,0,1-2.621.9Zm0,0" fill="#b15848"/>
      <path id="Trazado_2164" data-name="Trazado 2164" d="M242.239,1387.964l-1.817.431a1.959,1.959,0,0,1-2.4-2.072l.08-.95a1.959,1.959,0,0,1,1.294-1.68l1.489-.531a1.96,1.96,0,0,1,2.564,1.39l.25,1.046a1.962,1.962,0,0,1-1.455,2.366Zm0,0" fill="#b15848"/>
      <path id="Trazado_2165" data-name="Trazado 2165" d="M249.614,1354.443l-2.384-.25a2.516,2.516,0,0,1-2.036-3.528l.5-1.117a2.519,2.519,0,0,1,2.283-1.489l2.03-.011a2.518,2.518,0,0,1,2.517,2.78l-.145,1.378a2.516,2.516,0,0,1-2.766,2.237Zm0,0" fill="#e4c05c"/>
      <path id="Trazado_2166" data-name="Trazado 2166" d="M272.892,1354.566a3.22,3.22,0,0,0,.353-.026l3.149-.327a3.34,3.34,0,0,0,2.587-1.66,3.05,3.05,0,0,0,.131-2.835l-.653-1.411a3.306,3.306,0,0,0-3.019-1.882h-2.679a3.289,3.289,0,0,0-3.357,3.541l.065.575" fill="#e4c05c"/>
      <path id="Trazado_2167" data-name="Trazado 2167" d="M270.76,1356.495l-2.537.553a2.455,2.455,0,0,1-3.2-2.507l.168-1.167a2.674,2.674,0,0,1,1.89-2.081l2.091-.67a2.613,2.613,0,0,1,3.459,1.674l.28,1.284a2.572,2.572,0,0,1-2.154,2.914Zm0,0" fill="#f3d55b"/>
      <path id="Trazado_2168" data-name="Trazado 2168" d="M275.61,1384.684a1.306,1.306,0,1,1-1.307-1.308,1.307,1.307,0,0,1,1.307,1.308Zm0,0" fill="#7f5b53"/>
      <path id="Trazado_2169" data-name="Trazado 2169" d="M293.9,1391.216a1.306,1.306,0,1,1-1.305-1.306,1.306,1.306,0,0,1,1.305,1.306Zm0,0" fill="#7f5b53"/>
      <path id="Trazado_2170" data-name="Trazado 2170" d="M233.8,1391.216a1.307,1.307,0,1,1-1.307-1.306,1.307,1.307,0,0,1,1.307,1.306Zm0,0" fill="#7f5b53"/>
      <path id="Trazado_2171" data-name="Trazado 2171" d="M252.09,1384.684a1.306,1.306,0,1,1-1.306-1.308,1.306,1.306,0,0,1,1.306,1.308Zm0,0" fill="#7f5b53"/>
      <path id="Trazado_2172" data-name="Trazado 2172" d="M250.784,1374.23a1.307,1.307,0,1,1-1.307-1.306,1.307,1.307,0,0,1,1.307,1.306Zm0,0" fill="#b0d3f0"/>
      <path id="Trazado_2173" data-name="Trazado 2173" d="M258.624,1355.937a1.307,1.307,0,1,1-1.307-1.306,1.307,1.307,0,0,1,1.307,1.306Zm0,0" fill="#f3d55b"/>
      <path id="Trazado_2174" data-name="Trazado 2174" d="M223.345,1380.763a1.307,1.307,0,0,1-.413-2.547l3.92-1.306a1.308,1.308,0,1,1,.825,2.483l-3.919,1.306a1.26,1.26,0,0,1-.413.064Zm0,0" fill="#95a5a5"/>
      <path id="Trazado_2175" data-name="Trazado 2175" d="M227.265,1385.99a1.307,1.307,0,0,1-.925-2.231l2.614-2.613a1.306,1.306,0,0,1,1.847,1.847l-2.613,2.614a1.3,1.3,0,0,1-.923.383Zm0,0" fill="#95a5a5"/>
      <path id="Trazado_2176" data-name="Trazado 2176" d="M299.129,1380.763a1.323,1.323,0,0,1-.413-.066l-3.92-1.307a1.308,1.308,0,0,1,.826-2.482l3.92,1.306a1.306,1.306,0,0,1-.413,2.549Zm0,0" fill="#95a5a5"/>
      <path id="Trazado_2177" data-name="Trazado 2177" d="M295.209,1385.99a1.31,1.31,0,0,1-.924-.383l-2.613-2.614a1.307,1.307,0,0,1,1.848-1.847l2.613,2.613a1.307,1.307,0,0,1-.924,2.231Zm0,0" fill="#95a5a5"/>
      <path id="Trazado_2178" data-name="Trazado 2178" d="M244.251,1372.924a64.744,64.744,0,0,1-12.988-3.894" fill="#b0d3f0"/>
      <path id="Trazado_2179" data-name="Trazado 2179" d="M244.251,1374.23a1.3,1.3,0,0,1-.216-.018,66.013,66.013,0,0,1-13.3-3.985,1.307,1.307,0,0,1,1.046-2.394,64.272,64.272,0,0,0,12.674,3.8,1.307,1.307,0,0,1-.2,2.595Zm0,0" fill="#b0d3f0"/>
    </g>
  </g>
</svg>
