<svg xmlns="http://www.w3.org/2000/svg" width="260.58" height="259.403" viewBox="0 0 260.58 259.403">
  <g id="Grupo_10040" data-name="Grupo 10040" transform="translate(-850.67 -6368.278)">
    <path id="Trazado_11620" data-name="Trazado 11620" d="M1084.164,6429.041a125.7,125.7,0,0,0-210.44-4.273l-1.364-.932a127.349,127.349,0,0,1,213.206,4.329l-1.4.876" fill="#6bc4ed"/>
    <path id="Trazado_11621" data-name="Trazado 11621" d="M1062.848,6590.1l-1.108-1.227a125.763,125.763,0,0,0,40.369-109.778c-.37-2.8-.838-5.611-1.391-8.364l1.622-.326c.558,2.79,1.031,5.639,1.407,8.473a127.426,127.426,0,0,1-40.9,111.222" fill="#6bc4ed"/>
    <path id="Trazado_11622" data-name="Trazado 11622" d="M994.713,6626.571A127.383,127.383,0,0,1,855.69,6464.917l1.588.46A125.731,125.731,0,0,0,994.5,6624.933a126.156,126.156,0,0,0,30.1-7.839l.61,1.538a127.858,127.858,0,0,1-30.5,7.939" fill="#6bc4ed"/>
    <path id="Trazado_11623" data-name="Trazado 11623" d="M971.946,6419.542a76,76,0,1,0,85.31,65.367,76.083,76.083,0,0,0-85.31-65.367m23.581,178.171a103.728,103.728,0,1,1,89.222-116.443,103.846,103.846,0,0,1-89.222,116.443" fill="#6bc4ed"/>
    <path id="Trazado_11624" data-name="Trazado 11624" d="M1080.449,6449.827a15.4,15.4,0,1,0,15.4-15.4,15.4,15.4,0,0,0-15.4,15.4" fill="#6bc4ed"/>
    <path id="Trazado_11625" data-name="Trazado 11625" d="M1029.946,6605.374a15.4,15.4,0,1,0,15.4-15.4,15.4,15.4,0,0,0-15.4,15.4Z" fill="#6bc4ed"/>
    <path id="Trazado_11626" data-name="Trazado 11626" d="M851.267,6446.545a15.4,15.4,0,1,0,15.4-15.4,15.4,15.4,0,0,0-15.4,15.4Z" fill="#6bc4ed"/>
    <path id="Trazado_11627" data-name="Trazado 11627" d="M869.93,6455.194h4.57v-14.31h-4.57v14.31Z" fill="#fff"/>
    <path id="Trazado_11628" data-name="Trazado 11628" d="M864.062,6455.194h4.568v-10.732h-4.568v10.732Z" fill="#fff"/>
    <path id="Trazado_11629" data-name="Trazado 11629" d="M858.193,6455.194h4.569v-7.154h-4.569v7.154Z" fill="#fff"/>
    <path id="Trazado_11630" data-name="Trazado 11630" d="M859.685,6444.116l-.368-.667,11.842-6.538.368.666-11.842,6.54Z" fill="#fff"/>
    <path id="Trazado_11631" data-name="Trazado 11631" d="M869.886,6436.911l1.275,1.575.743-1.812-2.018.237Z" fill="#fff"/>
    <path id="Trazado_11632" data-name="Trazado 11632" d="M1099.331,6452.492a1.665,1.665,0,0,0-.473-1.237,5.044,5.044,0,0,0-1.829-.94v4.129q2.3-.319,2.3-1.952Zm-5.805-6.592a1.77,1.77,0,0,0,.477,1.295,4.59,4.59,0,0,0,1.656.923v-4.107a3.044,3.044,0,0,0-1.593.663,1.583,1.583,0,0,0-.54,1.226Zm7.611,6.454a3.017,3.017,0,0,1-1.084,2.382,5.56,5.56,0,0,1-3.024,1.182v2.464h-1.37v-2.367a13.954,13.954,0,0,1-2.3-.186,7.179,7.179,0,0,1-1.825-.515v-1.655a10.31,10.31,0,0,0,2.031.641,9.943,9.943,0,0,0,2.1.25v-4.67a7.325,7.325,0,0,1-3.052-1.6,3.264,3.264,0,0,1-.877-2.356,2.836,2.836,0,0,1,1.079-2.282,5.23,5.23,0,0,1,2.85-1.082v-1.931h1.37v1.909a10.824,10.824,0,0,1,3.768.785l-.553,1.391a10.793,10.793,0,0,0-3.215-.743v4.608a11.978,11.978,0,0,1,2.494,1.034,3.478,3.478,0,0,1,1.219,1.157,3.01,3.01,0,0,1,.4,1.587Z" fill="#fff"/>
    <path id="Trazado_11633" data-name="Trazado 11633" d="M1045.065,6607.6a2.391,2.391,0,1,1,0-4.782v.942a1.451,1.451,0,1,0,1.453,1.45h.939a2.392,2.392,0,0,1-2.392,2.39Z" fill="#fff"/>
    <path id="Trazado_11634" data-name="Trazado 11634" d="M1045.065,6610.588a5.372,5.372,0,1,1,0-10.744,5.314,5.314,0,0,1,2.418.572l-.424.839a4.382,4.382,0,0,0-1.994-.47,4.431,4.431,0,1,0,4.431,4.43,4.388,4.388,0,0,0-.415-1.876l.853-.4a5.375,5.375,0,0,1-4.869,7.647Z" fill="#fff"/>
    <path id="Trazado_11635" data-name="Trazado 11635" d="M1045.065,6613.569a8.353,8.353,0,1,1,4.225-15.563l-.478.812a7.405,7.405,0,1,0,2.572,2.518l.8-.491a8.353,8.353,0,0,1-7.119,12.724Z" fill="#fff"/>
    <path id="Trazado_11636" data-name="Trazado 11636" d="M1045.4,6605.549l-.664-.665,7.922-7.923.664.664-7.922,7.924Z" fill="#fff"/>
    <path id="Trazado_11637" data-name="Trazado 11637" d="M1051.859,6597.971l-.107-2.4.939-.043.109,2.4-.942.042Z" fill="#fff"/>
    <path id="Trazado_11638" data-name="Trazado 11638" d="M1050.661,6599.161l-.088-1.965.941-.04.087,1.961-.94.043Z" fill="#fff"/>
    <path id="Trazado_11639" data-name="Trazado 11639" d="M1052.142,6598.314l-.137-.934,2.378-.346.135.929-2.376.35Z" fill="#fff"/>
    <path id="Trazado_11640" data-name="Trazado 11640" d="M1051.2,6599.714l-.136-.934,1.944-.282.136.931-1.944.285Z" fill="#fff"/>
    <path id="Trazado_11641" data-name="Trazado 11641" d="M886.814,6586.744h-2.269q-1.212-1.308-2.391-2.654h2.21q1.207,1.347,2.45,2.654" fill="#329e8d"/>
    <path id="Trazado_11642" data-name="Trazado 11642" d="M1080.818,6453.2a15.562,15.562,0,0,1,0-6.738v6.738" fill="#329e8d"/>
    <path id="Trazado_11643" data-name="Trazado 11643" d="M1069.291,6534.412a3.758,3.758,0,0,1-3.759,3.76H897.777a3.759,3.759,0,0,1-3.76-3.76V6428.194a3.761,3.761,0,0,1,3.76-3.761h167.755a3.76,3.76,0,0,1,3.759,3.761v106.218" fill="#fff"/>
    <path id="Trazado_11644" data-name="Trazado 11644" d="M1069.291,6428.194a3.76,3.76,0,0,0-3.759-3.761H897.777a3.761,3.761,0,0,0-3.76,3.761v51.1l175.274-51.1" fill="#fff"/>
    <path id="Trazado_11645" data-name="Trazado 11645" d="M1062.152,6530.83h-161v-99.721h161v99.721" fill="#32b9ff"/>
    <path id="Trazado_11646" data-name="Trazado 11646" d="M1062.152,6476.465v-4.08l.147,4.044-.147.035" fill="azure"/>
    <path id="Trazado_11647" data-name="Trazado 11647" d="M901.174,6514.968l.021-36.313,6.617-.7v35.425l-6.638,1.588m158.694-37.957v-15.125l1.894-.2.39,10.7v4.08l-2.284.546" fill="#8adcff"/>
    <path id="Trazado_11648" data-name="Trazado 11648" d="M1059.868,6424.433h-1.862l-.022-.024h1.884v.024" fill="#28a7b2"/>
    <path id="Trazado_11649" data-name="Trazado 11649" d="M1058.006,6424.433h-1.8v-.024h1.776l.022.024" fill="#33bcc9"/>
    <path id="Trazado_11650" data-name="Trazado 11650" d="M1059.868,6431.109h-.577l.577-.168v.168" fill="#aacaf9"/>
    <path id="Trazado_11651" data-name="Trazado 11651" d="M1059.292,6431.109h-3.084v-6.677h3.66v6.509l-.577.168" fill="#aacaf9"/>
    <path id="Trazado_11652" data-name="Trazado 11652" d="M1052.7,6527.6H918.991a7.164,7.164,0,0,1-7.164-7.162v-.391a7.157,7.157,0,0,0,3.165.733H1049.03a7.178,7.178,0,0,0,7.178-7.178v-35.72l3.66-.876v43.432a7.162,7.162,0,0,1-7.163,7.162m3.5-65.332v-31.164h3.66v30.777l-3.66.387" fill="#2193f9"/>
    <path id="Trazado_11653" data-name="Trazado 11653" d="M1056.208,6477.887v-15.613l3.66-.387v15.125l-3.66.875" fill="#5caef9"/>
    <path id="Trazado_11654" data-name="Trazado 11654" d="M1085.428,6578.338c1.514,4.216-.489,5.752-2.364,5.752H880.245c-1.875,0-2.363-1.28-2.363-3.172l.051-2.785c.7-1.737,17.619-36.55,19.493-36.55h168.46a5.473,5.473,0,0,1,4.684,3.161l14.858,33.594" fill="#283042"/>
    <path id="Trazado_11655" data-name="Trazado 11655" d="M1083.064,6584.09H880.245c-1.875,0-2.363-1.28-2.363-3.172l.035-1.9a2.141,2.141,0,0,0,2.328,1.667h202.819a2.094,2.094,0,0,0,2.339-2.405l.025.058a7.951,7.951,0,0,1,.533,2.643,2.809,2.809,0,0,1-2.9,3.109" fill="#1e2535"/>
    <path id="Trazado_11656" data-name="Trazado 11656" d="M1085.195,6577.522a2.142,2.142,0,0,1-2.131,3.163H880.245a2.144,2.144,0,0,1-2.133-3.163l14.626-36.187a5.48,5.48,0,0,1,4.688-3.163h168.46a5.474,5.474,0,0,1,4.684,3.163l14.625,36.187" fill="#fff"/>
    <path id="Trazado_11657" data-name="Trazado 11657" d="M1000.757,6577.2H962.551l1.176-8.711h35.991l1.038,8.711" fill="#fff"/>
    <path id="Trazado_11658" data-name="Trazado 11658" d="M1002.106,6578.3H961.2l1.4-9.362h1.06l-1.116,8.265h38.206l-.985-8.265h.929l1.406,9.362" fill="#8e95a6"/>
    <path id="Trazado_11659" data-name="Trazado 11659" d="M1000.757,6577.2H962.551l1.116-8.265h36.1l.985,8.265" fill="#bec3ce"/>
    <path id="Trazado_11660" data-name="Trazado 11660" d="M950.683,6547.108H937.4l.072-.684h13.215l.171-3.475h.034l-.2,4.159" fill="#4f576c"/>
    <path id="Trazado_11661" data-name="Trazado 11661" d="M964.319,6547.108H951.366l.033-.684h12.919l.168-3.475h.033l-.2,4.159" fill="#4f576c"/>
    <path id="Trazado_11662" data-name="Trazado 11662" d="M977.457,6547.108H965l.033-.684h12.424l.062-3.475h.012l-.074,4.159" fill="#4f576c"/>
    <path id="Trazado_11663" data-name="Trazado 11663" d="M905.836,6551.879H895.423l.252-.684h10.161l.908-3.407h.182l-1.09,4.09" fill="#4f576c"/>
    <path id="Trazado_11664" data-name="Trazado 11664" d="M991.793,6547.108H978.138l.012-.684h13.643l.052-3.475h.01l-.063,4.159" fill="#4f576c"/>
    <path id="Trazado_11665" data-name="Trazado 11665" d="M907.107,6547.108h-9.924l.253-.684h9.671l.926-3.475h.183l-1.109,4.159" fill="#4f576c"/>
    <path id="Trazado_11666" data-name="Trazado 11666" d="M936.711,6547.108H921.991l.119-.684h14.6l.365-3.475h.072l-.437,4.159" fill="#4f576c"/>
    <path id="Trazado_11667" data-name="Trazado 11667" d="M921.3,6547.108H907.812l.183-.684h13.3l.605-3.475h.12l-.725,4.159" fill="#4f576c"/>
    <path id="Trazado_11668" data-name="Trazado 11668" d="M1031.258,6547.108h-12.573l-.153-4.159h.025l.128,3.475H1031.2l.06.684" fill="#4f576c"/>
    <path id="Trazado_11669" data-name="Trazado 11669" d="M1067.531,6551.879h-10.066l-1.087-4.09h.181l.906,3.407h9.789l.276.684" fill="#4f576c"/>
    <path id="Trazado_11670" data-name="Trazado 11670" d="M1070.021,6558.014h-10.928l-1.447-5.454h.181l1.266,4.77h10.65l.278.685" fill="#4f576c"/>
    <path id="Trazado_11671" data-name="Trazado 11671" d="M904.2,6558.014H893.161l.252-.685H904.2l1.27-4.77h.181l-1.451,5.454" fill="#4f576c"/>
    <path id="Trazado_11672" data-name="Trazado 11672" d="M1055.492,6547.108h-10.136l-.681-4.159h.112l.569,3.475h9.955l.182.684" fill="#4f576c"/>
    <path id="Trazado_11673" data-name="Trazado 11673" d="M1044.665,6547.108h-12.722l-.361-4.159h.06l.3,3.475h12.61l.112.684" fill="#4f576c"/>
    <path id="Trazado_11674" data-name="Trazado 11674" d="M1065.6,6547.108h-9.4l-1.105-4.159h.183l.923,3.475h9.121l.278.684" fill="#4f576c"/>
    <path id="Trazado_11675" data-name="Trazado 11675" d="M1004.9,6547.108H992.474l.01-.684h12.4l.008.684" fill="#4f576c"/>
    <path id="Trazado_11676" data-name="Trazado 11676" d="M1018,6547.108h-12.425l-.043-4.159h.007l.036,3.475h12.4l.025.684" fill="#4f576c"/>
    <path id="Trazado_11677" data-name="Trazado 11677" d="M991.722,6551.879H978.053l.012-.684h13.657l.05-3.407h.01l-.06,4.09" fill="#4f576c"/>
    <path id="Trazado_11678" data-name="Trazado 11678" d="M977.371,6551.879h-12.6l.033-.684h12.57l.062-3.407h.012l-.074,4.09" fill="#4f576c"/>
    <path id="Trazado_11679" data-name="Trazado 11679" d="M1018.174,6551.879H1005.63l-.043-4.09h.007l.036,3.407h12.52l.024.684" fill="#4f576c"/>
    <path id="Trazado_11680" data-name="Trazado 11680" d="M902.935,6562.787H891.4l.252-.683h11.284l.906-3.408h.181l-1.087,4.091" fill="#4f576c"/>
    <path id="Trazado_11681" data-name="Trazado 11681" d="M950.45,6551.879H936.9l.072-.684H950.45l.167-3.407h.033l-.2,4.09" fill="#4f576c"/>
    <path id="Trazado_11682" data-name="Trazado 11682" d="M964.084,6551.879H951.133l.033-.684h12.919l.167-3.407h.033l-.2,4.09" fill="#4f576c"/>
    <path id="Trazado_11683" data-name="Trazado 11683" d="M1004.949,6551.879H992.4l.01-.684h12.528l.007.684" fill="#4f576c"/>
    <path id="Trazado_11684" data-name="Trazado 11684" d="M1032.211,6558.014H1019.08l-.2-5.454h.025l.175,4.77h13.071l.06.685" fill="#4f576c"/>
    <path id="Trazado_11685" data-name="Trazado 11685" d="M1018.4,6558.014h-12.7l-.059-5.454h.008l.052,4.77h12.675l.025.685" fill="#4f576c"/>
    <path id="Trazado_11686" data-name="Trazado 11686" d="M1031.675,6551.879h-12.816l-.15-4.09h.025l.124,3.407h12.757l.06.684" fill="#4f576c"/>
    <path id="Trazado_11687" data-name="Trazado 11687" d="M1046.45,6558.014h-13.556l-.475-5.454h.059l.416,4.77h13.445l.111.685" fill="#4f576c"/>
    <path id="Trazado_11688" data-name="Trazado 11688" d="M1056.759,6551.879h-10.622l-.67-4.09h.112l.559,3.407h10.441l.181.684" fill="#4f576c"/>
    <path id="Trazado_11689" data-name="Trazado 11689" d="M1005.015,6558.014h-12.7l.01-.685h12.684l.008.685" fill="#4f576c"/>
    <path id="Trazado_11690" data-name="Trazado 11690" d="M1045.446,6551.879H1032.36l-.358-4.09h.06l.3,3.407h12.974l.112.684" fill="#4f576c"/>
    <path id="Trazado_11691" data-name="Trazado 11691" d="M936.209,6551.879H921.159l.119-.684h14.93l.358-3.407h.072l-.43,4.09" fill="#4f576c"/>
    <path id="Trazado_11692" data-name="Trazado 11692" d="M991.56,6562.787h-13.7l.012-.683h13.69l.053-3.408h.01l-.064,4.091" fill="#4f576c"/>
    <path id="Trazado_11693" data-name="Trazado 11693" d="M949.916,6562.787h-14.17l.072-.683h14.1l.168-3.408h.033l-.2,4.091" fill="#4f576c"/>
    <path id="Trazado_11694" data-name="Trazado 11694" d="M1059.656,6562.787H1047.92l-.666-4.091h.111l.555,3.408h11.554l.182.683" fill="#4f576c"/>
    <path id="Trazado_11695" data-name="Trazado 11695" d="M1005.066,6562.787H992.243l.01-.683h12.806l.007.683" fill="#4f576c"/>
    <path id="Trazado_11696" data-name="Trazado 11696" d="M1032.625,6562.787h-13.371l-.15-4.091h.025l.124,3.408h13.312l.06.683" fill="#4f576c"/>
    <path id="Trazado_11697" data-name="Trazado 11697" d="M1047.231,6562.787H1033.31l-.356-4.091h.06l.3,3.408h13.809l.112.683" fill="#4f576c"/>
    <path id="Trazado_11698" data-name="Trazado 11698" d="M919.4,6558.014H904.909l.182-.685H919.4l.833-4.77h.119l-.951,5.454" fill="#4f576c"/>
    <path id="Trazado_11699" data-name="Trazado 11699" d="M920.467,6551.879H906.543l.182-.684h13.742l.593-3.407h.119l-.712,4.09" fill="#4f576c"/>
    <path id="Trazado_11700" data-name="Trazado 11700" d="M935.062,6562.787h-15.8l.119-.683h15.683l.356-3.408h.071l-.427,4.091" fill="#4f576c"/>
    <path id="Trazado_11701" data-name="Trazado 11701" d="M918.567,6562.787H903.639l.182-.683h14.746l.592-3.408h.119l-.711,4.091" fill="#4f576c"/>
    <path id="Trazado_11702" data-name="Trazado 11702" d="M1071.959,6562.787h-11.6l-1.088-4.091h.181l.906,3.408h11.32l.277.683" fill="#4f576c"/>
    <path id="Trazado_11703" data-name="Trazado 11703" d="M901.649,6567.616H889.618l.253-.684h11.778l.923-3.462h.182l-1.1,4.146" fill="#4f576c"/>
    <path id="Trazado_11704" data-name="Trazado 11704" d="M1048.02,6567.616h-14.289l-.36-4.146h.06l.3,3.462h14.177l.112.684" fill="#4f576c"/>
    <path id="Trazado_11705" data-name="Trazado 11705" d="M950.149,6558.014h-13.9l.072-.685h13.829l.234-4.77h.034l-.268,5.454" fill="#4f576c"/>
    <path id="Trazado_11706" data-name="Trazado 11706" d="M1058.387,6558.014H1047.14l-.892-5.454h.111l.781,4.77h11.066l.181.685" fill="#4f576c"/>
    <path id="Trazado_11707" data-name="Trazado 11707" d="M1060.936,6567.616h-12.224l-.68-4.146h.112l.568,3.462h12.042l.182.684" fill="#4f576c"/>
    <path id="Trazado_11708" data-name="Trazado 11708" d="M1073.917,6567.616h-12.275l-1.1-4.146h.181l.918,3.462h12l.277.684" fill="#4f576c"/>
    <path id="Trazado_11709" data-name="Trazado 11709" d="M977.175,6562.787H964.234l.033-.683h12.907l.061-3.408h.012l-.073,4.091" fill="#4f576c"/>
    <path id="Trazado_11710" data-name="Trazado 11710" d="M963.551,6562.787H950.6l.033-.683h12.919l.166-3.408h.033l-.2,4.091" fill="#4f576c"/>
    <path id="Trazado_11711" data-name="Trazado 11711" d="M935.563,6558.014H920.089l.119-.685h15.355l.5-4.77h.072l-.573,5.454" fill="#4f576c"/>
    <path id="Trazado_11712" data-name="Trazado 11712" d="M934.553,6567.616H918.416l.12-.684h16.018l.365-3.462h.071l-.437,4.146" fill="#4f576c"/>
    <path id="Trazado_11713" data-name="Trazado 11713" d="M917.724,6567.616h-15.37l.183-.684h15.188l.6-3.462h.119l-.724,4.146" fill="#4f576c"/>
    <path id="Trazado_11714" data-name="Trazado 11714" d="M977.263,6558.014h-12.8l.033-.685h12.762l.084-4.77h.012l-.1,5.454" fill="#4f576c"/>
    <path id="Trazado_11715" data-name="Trazado 11715" d="M1018.57,6562.787h-12.823l-.043-4.091h.007l.036,3.408h12.8l.024.683" fill="#4f576c"/>
    <path id="Trazado_11716" data-name="Trazado 11716" d="M1005.119,6567.616H992.173l.01-.684h12.929l.008.684" fill="#4f576c"/>
    <path id="Trazado_11717" data-name="Trazado 11717" d="M1018.745,6567.616H1005.8l-.047-4.146h.008l.04,3.462h12.92l.025.684" fill="#4f576c"/>
    <path id="Trazado_11718" data-name="Trazado 11718" d="M991.489,6567.616H935.238l.071-.684h56.18l.052-3.462h.01l-.062,4.146" fill="#4f576c"/>
    <path id="Trazado_11719" data-name="Trazado 11719" d="M1033.047,6567.616h-13.619l-.151-4.146h.025l.126,3.462h13.56l.06.684" fill="#4f576c"/>
    <path id="Trazado_11720" data-name="Trazado 11720" d="M963.784,6558.014h-12.95l.033-.685h12.917l.234-4.77h.033l-.267,5.454" fill="#4f576c"/>
    <path id="Trazado_11721" data-name="Trazado 11721" d="M991.633,6558.014h-13.69l.012-.685h13.677l.07-4.77h.01l-.08,5.454" fill="#4f576c"/>
    <path id="Trazado_11722" data-name="Trazado 11722" d="M937.468,6546.424H937.4l.44-4.162h13.052l-.034.687H937.836l-.367,3.475" fill="#d3d4d7"/>
    <path id="Trazado_11723" data-name="Trazado 11723" d="M950.683,6546.424H937.468l.367-3.475h13.018l-.171,3.475" fill="#7b818e"/>
    <path id="Trazado_11724" data-name="Trazado 11724" d="M951.4,6546.424h-.033l.2-4.162h12.95l-.033.687H951.57l-.17,3.475" fill="#d3d4d7"/>
    <path id="Trazado_11725" data-name="Trazado 11725" d="M964.319,6546.424H951.4l.17-3.475h12.917l-.168,3.475" fill="#7b818e"/>
    <path id="Trazado_11726" data-name="Trazado 11726" d="M965.033,6546.424H965l.2-4.162h12.327l-.012.687H965.2l-.171,3.475" fill="#d3d4d7"/>
    <path id="Trazado_11727" data-name="Trazado 11727" d="M977.457,6546.424H965.033l.171-3.475h12.315l-.062,3.475" fill="#7b818e"/>
    <path id="Trazado_11728" data-name="Trazado 11728" d="M895.675,6551.2h-.252l1.51-4.088h9.993l-.182.681h-9.811l-1.257,3.407" fill="#d3d4d7"/>
    <path id="Trazado_11729" data-name="Trazado 11729" d="M905.836,6551.2H895.675l1.257-3.407h9.811l-.908,3.407" fill="#7b818e"/>
    <path id="Trazado_11730" data-name="Trazado 11730" d="M978.151,6546.424h-.012l.074-4.162h13.643l-.01.687H978.213l-.062,3.475" fill="#d3d4d7"/>
    <path id="Trazado_11731" data-name="Trazado 11731" d="M991.793,6546.424H978.151l.062-3.475h13.633l-.052,3.475" fill="#7b818e"/>
    <path id="Trazado_11732" data-name="Trazado 11732" d="M897.436,6546.424h-.253l1.537-4.162h9.5l-.183.687H898.72l-1.285,3.475" fill="#d3d4d7"/>
    <path id="Trazado_11733" data-name="Trazado 11733" d="M907.107,6546.424h-9.671l1.285-3.475h9.313l-.926,3.475" fill="#7b818e"/>
    <path id="Trazado_11734" data-name="Trazado 11734" d="M922.11,6546.424h-.119l.724-4.162h14.433l-.072.687H922.715l-.605,3.475" fill="#d3d4d7"/>
    <path id="Trazado_11735" data-name="Trazado 11735" d="M936.711,6546.424h-14.6l.605-3.475h14.361l-.365,3.475" fill="#7b818e"/>
    <path id="Trazado_11736" data-name="Trazado 11736" d="M907.995,6546.424h-.183l1.109-4.162h13.1l-.12.687H908.921l-.926,3.475" fill="#d3d4d7"/>
    <path id="Trazado_11737" data-name="Trazado 11737" d="M921.3,6546.424h-13.3l.926-3.475H921.9l-.605,3.475" fill="#7b818e"/>
    <path id="Trazado_11738" data-name="Trazado 11738" d="M1031.258,6546.424h-.06l-.3-3.475h-12.338l-.025-.687H1030.9l.362,4.162" fill="#d3d4d7"/>
    <path id="Trazado_11739" data-name="Trazado 11739" d="M1031.2,6546.424h-12.513l-.128-3.475H1030.9l.3,3.475" fill="#7b818e"/>
    <path id="Trazado_11740" data-name="Trazado 11740" d="M1067.531,6551.2h-.276l-1.38-3.407h-9.315l-.181-.681h9.5l1.656,4.088" fill="#d3d4d7"/>
    <path id="Trazado_11741" data-name="Trazado 11741" d="M1067.254,6551.2h-9.789l-.906-3.407h9.315l1.38,3.407" fill="#7b818e"/>
    <path id="Trazado_11742" data-name="Trazado 11742" d="M1070.021,6557.33h-.278l-1.935-4.77h-9.982l-.181-.681h10.163l2.213,5.45" fill="#d3d4d7"/>
    <path id="Trazado_11743" data-name="Trazado 11743" d="M1069.743,6557.33h-10.65l-1.266-4.77h9.982l1.935,4.77" fill="#7b818e"/>
    <path id="Trazado_11744" data-name="Trazado 11744" d="M893.413,6557.33h-.252l2.01-5.45h10.484l-.181.681h-10.3l-1.758,4.77" fill="#d3d4d7"/>
    <path id="Trazado_11745" data-name="Trazado 11745" d="M904.2,6557.33H893.413l1.758-4.77h10.3l-1.27,4.77" fill="#7b818e"/>
    <path id="Trazado_11746" data-name="Trazado 11746" d="M1055.492,6546.424h-.182l-.924-3.475h-9.6l-.112-.687h9.712l1.106,4.162" fill="#d3d4d7"/>
    <path id="Trazado_11747" data-name="Trazado 11747" d="M1055.31,6546.424h-9.955l-.569-3.475h9.6l.924,3.475" fill="#7b818e"/>
    <path id="Trazado_11748" data-name="Trazado 11748" d="M1044.665,6546.424h-.112l-.567-3.475h-12.345l-.06-.687h12.4l.678,4.162" fill="#d3d4d7"/>
    <path id="Trazado_11749" data-name="Trazado 11749" d="M1044.553,6546.424h-12.61l-.3-3.475h12.345l.567,3.475" fill="#7b818e"/>
    <path id="Trazado_11750" data-name="Trazado 11750" d="M1065.6,6546.424h-.278l-1.412-3.475h-8.632l-.183-.687h8.814l1.69,4.162" fill="#d3d4d7"/>
    <path id="Trazado_11751" data-name="Trazado 11751" d="M1065.318,6546.424H1056.2l-.923-3.475h8.632l1.412,3.475" fill="#7b818e"/>
    <path id="Trazado_11752" data-name="Trazado 11752" d="M1004.9,6546.424h-.008l-.038-3.475H992.535l-.051,3.475h-.01l.061-4.162h12.317l.045,4.162" fill="#d3d4d7"/>
    <path id="Trazado_11753" data-name="Trazado 11753" d="M1004.889,6546.424h-12.4l.051-3.475h12.317l.038,3.475" fill="#7b818e"/>
    <path id="Trazado_11754" data-name="Trazado 11754" d="M1018,6546.424h-.025l-.126-3.475h-12.31l-.007-.687h12.317l.151,4.162" fill="#d3d4d7"/>
    <path id="Trazado_11755" data-name="Trazado 11755" d="M1017.978,6546.424h-12.4l-.036-3.475h12.31l.126,3.475" fill="#7b818e"/>
    <path id="Trazado_11756" data-name="Trazado 11756" d="M978.065,6551.2h-.012l.074-4.088h13.655l-.01.681H978.127l-.062,3.407" fill="#d3d4d7"/>
    <path id="Trazado_11757" data-name="Trazado 11757" d="M991.722,6551.2H978.065l.062-3.407h13.645l-.05,3.407" fill="#7b818e"/>
    <path id="Trazado_11758" data-name="Trazado 11758" d="M964.8,6551.2h-.033l.2-4.088h12.476l-.012.681H964.969l-.168,3.407" fill="#d3d4d7"/>
    <path id="Trazado_11759" data-name="Trazado 11759" d="M977.371,6551.2H964.8l.168-3.407h12.464l-.062,3.407" fill="#7b818e"/>
    <path id="Trazado_11760" data-name="Trazado 11760" d="M1018.174,6551.2h-.024l-.122-3.407h-12.435l-.007-.681h12.442l.146,4.088" fill="#d3d4d7"/>
    <path id="Trazado_11761" data-name="Trazado 11761" d="M1018.15,6551.2h-12.52l-.036-3.407h12.435l.122,3.407" fill="#7b818e"/>
    <path id="Trazado_11762" data-name="Trazado 11762" d="M891.651,6562.1H891.4l1.508-4.089h11.115l-.181.682H892.908l-1.256,3.408" fill="#d3d4d7"/>
    <path id="Trazado_11763" data-name="Trazado 11763" d="M902.935,6562.1H891.651l1.256-3.408h10.933l-.906,3.408" fill="#7b818e"/>
    <path id="Trazado_11764" data-name="Trazado 11764" d="M936.967,6551.2H936.9l.431-4.088H950.65l-.033.681H937.326l-.359,3.407" fill="#d3d4d7"/>
    <path id="Trazado_11765" data-name="Trazado 11765" d="M950.45,6551.2H936.967l.359-3.407h13.291l-.167,3.407" fill="#7b818e"/>
    <path id="Trazado_11766" data-name="Trazado 11766" d="M951.166,6551.2h-.033l.2-4.088h12.953l-.033.681h-12.92l-.166,3.407" fill="#d3d4d7"/>
    <path id="Trazado_11767" data-name="Trazado 11767" d="M964.084,6551.2H951.166l.166-3.407h12.92l-.167,3.407" fill="#7b818e"/>
    <path id="Trazado_11768" data-name="Trazado 11768" d="M1004.949,6551.2h-.007l-.037-3.407h-12.44l-.051,3.407h-.01l.061-4.088h12.44l.044,4.088" fill="#d3d4d7"/>
    <path id="Trazado_11769" data-name="Trazado 11769" d="M1004.942,6551.2H992.414l.051-3.407h12.44l.037,3.407" fill="#7b818e"/>
    <path id="Trazado_11770" data-name="Trazado 11770" d="M1032.211,6557.33h-.06l-.417-4.77h-12.829l-.025-.681h12.854l.477,5.45" fill="#d3d4d7"/>
    <path id="Trazado_11771" data-name="Trazado 11771" d="M1032.151,6557.33H1019.08l-.175-4.77h12.829l.417,4.77" fill="#7b818e"/>
    <path id="Trazado_11772" data-name="Trazado 11772" d="M1018.4,6557.33h-.025l-.173-4.77h-12.554l-.008-.681H1018.2l.2,5.45" fill="#d3d4d7"/>
    <path id="Trazado_11773" data-name="Trazado 11773" d="M1018.372,6557.33H1005.7l-.052-4.77H1018.2l.173,4.77" fill="#7b818e"/>
    <path id="Trazado_11774" data-name="Trazado 11774" d="M1031.675,6551.2h-.06l-.3-3.407h-12.584l-.025-.681h12.609l.357,4.088" fill="#d3d4d7"/>
    <path id="Trazado_11775" data-name="Trazado 11775" d="M1031.616,6551.2h-12.757l-.124-3.407h12.584l.3,3.407" fill="#7b818e"/>
    <path id="Trazado_11776" data-name="Trazado 11776" d="M1046.45,6557.33h-.111l-.78-4.77h-13.08l-.059-.681h13.139l.892,5.45" fill="#d3d4d7"/>
    <path id="Trazado_11777" data-name="Trazado 11777" d="M1046.338,6557.33h-13.445l-.416-4.77h13.08l.78,4.77" fill="#7b818e"/>
    <path id="Trazado_11778" data-name="Trazado 11778" d="M1056.759,6551.2h-.181l-.905-3.407h-10.094l-.112-.681h10.206l1.086,4.088" fill="#d3d4d7"/>
    <path id="Trazado_11779" data-name="Trazado 11779" d="M1056.578,6551.2h-10.441l-.559-3.407h10.094l.905,3.407" fill="#7b818e"/>
    <path id="Trazado_11780" data-name="Trazado 11780" d="M1005.015,6557.33h-.008l-.051-4.77H992.394l-.07,4.77h-.01l.08-5.45h12.563l.059,5.45" fill="#d3d4d7"/>
    <path id="Trazado_11781" data-name="Trazado 11781" d="M1005.008,6557.33H992.324l.07-4.77h12.563l.051,4.77" fill="#7b818e"/>
    <path id="Trazado_11782" data-name="Trazado 11782" d="M1045.446,6551.2h-.112l-.558-3.407h-12.715l-.06-.681h12.775l.669,4.088" fill="#d3d4d7"/>
    <path id="Trazado_11783" data-name="Trazado 11783" d="M1045.334,6551.2H1032.36l-.3-3.407h12.715l.558,3.407" fill="#7b818e"/>
    <path id="Trazado_11784" data-name="Trazado 11784" d="M921.278,6551.2h-.119l.713-4.088h14.767l-.072.681h-14.7l-.593,3.407" fill="#d3d4d7"/>
    <path id="Trazado_11785" data-name="Trazado 11785" d="M936.209,6551.2h-14.93l.593-3.407h14.7l-.358,3.407" fill="#7b818e"/>
    <path id="Trazado_11786" data-name="Trazado 11786" d="M977.871,6562.1h-.012l.074-4.089h13.692l-.01.682H977.933l-.062,3.408" fill="#d3d4d7"/>
    <path id="Trazado_11787" data-name="Trazado 11787" d="M991.56,6562.1h-13.69l.062-3.408h13.681l-.053,3.408" fill="#7b818e"/>
    <path id="Trazado_11788" data-name="Trazado 11788" d="M935.818,6562.1h-.072l.431-4.089h13.94l-.033.682H936.176l-.359,3.408" fill="#d3d4d7"/>
    <path id="Trazado_11789" data-name="Trazado 11789" d="M949.916,6562.1h-14.1l.359-3.408h13.907l-.168,3.408" fill="#7b818e"/>
    <path id="Trazado_11790" data-name="Trazado 11790" d="M1059.656,6562.1h-.182l-.9-3.408h-11.2l-.111-.682h11.316l1.086,4.089" fill="#d3d4d7"/>
    <path id="Trazado_11791" data-name="Trazado 11791" d="M1059.475,6562.1H1047.92l-.555-3.408h11.2l.9,3.408" fill="#7b818e"/>
    <path id="Trazado_11792" data-name="Trazado 11792" d="M1005.066,6562.1h-.007l-.037-3.408H992.305l-.052,3.408h-.01l.063-4.089h12.717l.044,4.089" fill="#d3d4d7"/>
    <path id="Trazado_11793" data-name="Trazado 11793" d="M1005.059,6562.1H992.253l.052-3.408h12.717l.037,3.408" fill="#7b818e"/>
    <path id="Trazado_11794" data-name="Trazado 11794" d="M1032.625,6562.1h-.06l-.3-3.408H1019.13l-.025-.682h13.164l.356,4.089" fill="#d3d4d7"/>
    <path id="Trazado_11795" data-name="Trazado 11795" d="M1032.566,6562.1h-13.312l-.124-3.408h13.139l.3,3.408" fill="#7b818e"/>
    <path id="Trazado_11796" data-name="Trazado 11796" d="M1047.231,6562.1h-.112l-.557-3.408h-13.55l-.06-.682h13.609l.668,4.089" fill="#d3d4d7"/>
    <path id="Trazado_11797" data-name="Trazado 11797" d="M1047.119,6562.1H1033.31l-.3-3.408h13.55l.557,3.408" fill="#7b818e"/>
    <path id="Trazado_11798" data-name="Trazado 11798" d="M905.091,6557.33h-.182l1.453-5.45h13.986l-.119.681H906.362l-1.271,4.77" fill="#d3d4d7"/>
    <path id="Trazado_11799" data-name="Trazado 11799" d="M919.4,6557.33H905.091l1.271-4.77H920.23l-.833,4.77" fill="#7b818e"/>
    <path id="Trazado_11800" data-name="Trazado 11800" d="M906.725,6551.2h-.182l1.089-4.088h13.548l-.119.681H907.631l-.907,3.407" fill="#d3d4d7"/>
    <path id="Trazado_11801" data-name="Trazado 11801" d="M920.467,6551.2H906.725l.907-3.407H921.06l-.593,3.407" fill="#7b818e"/>
    <path id="Trazado_11802" data-name="Trazado 11802" d="M919.379,6562.1h-.119l.71-4.089h15.518l-.071.682H919.97l-.591,3.408" fill="#d3d4d7"/>
    <path id="Trazado_11803" data-name="Trazado 11803" d="M935.062,6562.1H919.379l.591-3.408h15.448l-.356,3.408" fill="#7b818e"/>
    <path id="Trazado_11804" data-name="Trazado 11804" d="M903.821,6562.1h-.182l1.089-4.089h14.55l-.119.682H904.728l-.907,3.408" fill="#d3d4d7"/>
    <path id="Trazado_11805" data-name="Trazado 11805" d="M918.567,6562.1H903.821l.907-3.408h14.431l-.592,3.408" fill="#7b818e"/>
    <path id="Trazado_11806" data-name="Trazado 11806" d="M1071.959,6562.1h-.277l-1.384-3.408h-10.843l-.181-.682H1070.3l1.661,4.089" fill="#d3d4d7"/>
    <path id="Trazado_11807" data-name="Trazado 11807" d="M1071.682,6562.1h-11.32l-.906-3.408H1070.3l1.384,3.408" fill="#7b818e"/>
    <path id="Trazado_11808" data-name="Trazado 11808" d="M889.871,6566.932h-.253l1.531-4.145h11.6l-.182.683H891.149l-1.278,3.462" fill="#d3d4d7"/>
    <path id="Trazado_11809" data-name="Trazado 11809" d="M901.649,6566.932H889.871l1.278-3.462h11.422l-.923,3.462" fill="#7b818e"/>
    <path id="Trazado_11810" data-name="Trazado 11810" d="M1048.02,6566.932h-.112l-.569-3.462H1033.43l-.06-.683h13.969l.681,4.145" fill="#d3d4d7"/>
    <path id="Trazado_11811" data-name="Trazado 11811" d="M1047.908,6566.932h-14.177l-.3-3.462h13.909l.569,3.462" fill="#7b818e"/>
    <path id="Trazado_11812" data-name="Trazado 11812" d="M936.32,6557.33h-.072l.574-5.45h13.6l-.034.681H936.822l-.5,4.77" fill="#d3d4d7"/>
    <path id="Trazado_11813" data-name="Trazado 11813" d="M950.149,6557.33H936.32l.5-4.77h13.561l-.234,4.77" fill="#7b818e"/>
    <path id="Trazado_11814" data-name="Trazado 11814" d="M1058.387,6557.33h-.181l-1.264-4.77h-10.582l-.111-.681h10.693l1.446,5.45" fill="#d3d4d7"/>
    <path id="Trazado_11815" data-name="Trazado 11815" d="M1058.206,6557.33H1047.14l-.781-4.77h10.582l1.264,4.77" fill="#7b818e"/>
    <path id="Trazado_11816" data-name="Trazado 11816" d="M1060.936,6566.932h-.182l-.918-3.462h-11.692l-.112-.683h11.8l1.1,4.145" fill="#d3d4d7"/>
    <path id="Trazado_11817" data-name="Trazado 11817" d="M1060.754,6566.932h-12.042l-.568-3.462h11.692l.918,3.462" fill="#7b818e"/>
    <path id="Trazado_11818" data-name="Trazado 11818" d="M1073.917,6566.932h-.277l-1.405-3.462h-11.511l-.181-.683h11.692l1.683,4.145" fill="#d3d4d7"/>
    <path id="Trazado_11819" data-name="Trazado 11819" d="M1073.64,6566.932h-12l-.918-3.462h11.511l1.405,3.462" fill="#7b818e"/>
    <path id="Trazado_11820" data-name="Trazado 11820" d="M964.268,6562.1h-.033l.2-4.089h12.816l-.012.682h-12.8l-.165,3.408" fill="#d3d4d7"/>
    <path id="Trazado_11821" data-name="Trazado 11821" d="M977.175,6562.1H964.268l.165-3.408h12.8l-.061,3.408" fill="#7b818e"/>
    <path id="Trazado_11822" data-name="Trazado 11822" d="M950.632,6562.1H950.6l.2-4.089h12.952l-.033.682H950.8l-.166,3.408" fill="#d3d4d7"/>
    <path id="Trazado_11823" data-name="Trazado 11823" d="M963.551,6562.1H950.632l.166-3.408h12.919l-.166,3.408" fill="#7b818e"/>
    <path id="Trazado_11824" data-name="Trazado 11824" d="M920.208,6557.33h-.119l.951-5.45h15.1l-.072.681H921.04l-.832,4.77" fill="#d3d4d7"/>
    <path id="Trazado_11825" data-name="Trazado 11825" d="M935.563,6557.33H920.208l.832-4.77h15.025l-.5,4.77" fill="#7b818e"/>
    <path id="Trazado_11826" data-name="Trazado 11826" d="M918.535,6566.932h-.12l.724-4.145h15.85l-.071.683H919.14l-.6,3.462" fill="#d3d4d7"/>
    <path id="Trazado_11827" data-name="Trazado 11827" d="M934.553,6566.932H918.535l.6-3.462h15.778l-.365,3.462" fill="#7b818e"/>
    <path id="Trazado_11828" data-name="Trazado 11828" d="M902.536,6566.932h-.183l1.105-4.145h14.989l-.119.683H903.459l-.923,3.462" fill="#d3d4d7"/>
    <path id="Trazado_11829" data-name="Trazado 11829" d="M917.724,6566.932H902.536l.923-3.462h14.869l-.6,3.462" fill="#7b818e"/>
    <path id="Trazado_11830" data-name="Trazado 11830" d="M964.5,6557.33h-.033l.267-5.45h12.624l-.012.681H964.734l-.234,4.77" fill="#d3d4d7"/>
    <path id="Trazado_11831" data-name="Trazado 11831" d="M977.263,6557.33H964.5l.234-4.77h12.612l-.084,4.77" fill="#7b818e"/>
    <path id="Trazado_11832" data-name="Trazado 11832" d="M1018.57,6562.1h-.024l-.122-3.408h-12.713l-.007-.682h12.72l.146,4.089" fill="#d3d4d7"/>
    <path id="Trazado_11833" data-name="Trazado 11833" d="M1018.546,6562.1h-12.8l-.036-3.408h12.713l.122,3.408" fill="#7b818e"/>
    <path id="Trazado_11834" data-name="Trazado 11834" d="M1005.119,6566.932h-.008l-.038-3.462h-12.84l-.051,3.462h-.01l.061-4.145h12.84l.045,4.145" fill="#d3d4d7"/>
    <path id="Trazado_11835" data-name="Trazado 11835" d="M1005.111,6566.932H992.183l.051-3.462h12.84l.038,3.462" fill="#7b818e"/>
    <path id="Trazado_11836" data-name="Trazado 11836" d="M1018.745,6566.932h-.025l-.126-3.462h-12.834l-.008-.683h12.841l.151,4.145" fill="#d3d4d7"/>
    <path id="Trazado_11837" data-name="Trazado 11837" d="M1018.721,6566.932H1005.8l-.04-3.462h12.834l.126,3.462" fill="#7b818e"/>
    <path id="Trazado_11838" data-name="Trazado 11838" d="M935.31,6566.932h-.071l.436-4.145h55.877l-.01.683H935.674l-.364,3.462" fill="#d3d4d7"/>
    <path id="Trazado_11839" data-name="Trazado 11839" d="M991.489,6566.932H935.31l.364-3.462h55.867l-.052,3.462" fill="#7b818e"/>
    <path id="Trazado_11840" data-name="Trazado 11840" d="M1033.047,6566.932h-.06l-.3-3.462H1019.3l-.025-.683h13.409l.361,4.145" fill="#d3d4d7"/>
    <path id="Trazado_11841" data-name="Trazado 11841" d="M1032.988,6566.932h-13.56l-.126-3.462h13.384l.3,3.462" fill="#7b818e"/>
    <path id="Trazado_11842" data-name="Trazado 11842" d="M950.867,6557.33h-.033l.266-5.45h12.951l-.033.681H951.1l-.233,4.77" fill="#d3d4d7"/>
    <path id="Trazado_11843" data-name="Trazado 11843" d="M963.784,6557.33H950.867l.233-4.77h12.918l-.234,4.77" fill="#7b818e"/>
    <path id="Trazado_11844" data-name="Trazado 11844" d="M977.956,6557.33h-.012l.1-5.45h13.672l-.01.681H978.04l-.085,4.77" fill="#d3d4d7"/>
    <path id="Trazado_11845" data-name="Trazado 11845" d="M991.633,6557.33H977.956l.085-4.77H991.7l-.07,4.77" fill="#7b818e"/>
    <path id="Trazado_11846" data-name="Trazado 11846" d="M1056.208,6513.607a7.178,7.178,0,0,1-7.178,7.178H914.992a7.18,7.18,0,0,1-7.18-7.178v-93.639a7.179,7.179,0,0,1,7.18-7.179H1049.03a7.177,7.177,0,0,1,7.178,7.179v93.639" fill="#fff"/>
    <path id="Trazado_11847" data-name="Trazado 11847" d="M1056.208,6426.028v-6.06a7.177,7.177,0,0,0-7.178-7.179H914.992a7.179,7.179,0,0,0-7.18,7.179v6.06h148.4" fill="#354f66"/>
    <path id="Trazado_11848" data-name="Trazado 11848" d="M1033.089,6422.1a2.692,2.692,0,1,1,2.693-2.695,2.693,2.693,0,0,1-2.693,2.695" fill="#0b111c"/>
    <path id="Trazado_11849" data-name="Trazado 11849" d="M1043.259,6422.1a2.692,2.692,0,1,1,2.694-2.695,2.693,2.693,0,0,1-2.694,2.695" fill="#0b111c"/>
    <path id="Trazado_11850" data-name="Trazado 11850" d="M1022.75,6422.1a2.692,2.692,0,1,1,2.693-2.695,2.695,2.695,0,0,1-2.693,2.695" fill="#0b111c"/>
    <path id="Trazado_11851" data-name="Trazado 11851" d="M1053.825,6458.406H910.2v-29.744h143.628v29.744Z" fill="#8aed8a"/>
    <path id="Trazado_11852" data-name="Trazado 11852" d="M961.606,6419.408a2.8,2.8,0,0,1-2.8,2.8H923.872a2.8,2.8,0,0,1,0-5.6h34.934a2.8,2.8,0,0,1,2.8,2.8Z" fill="#fff"/>
    <path id="Trazado_11853" data-name="Trazado 11853" d="M926.365,6420.068a.759.759,0,0,1-.285.625,1.24,1.24,0,0,1-.794.228,1.877,1.877,0,0,1-.83-.176v-.577a3.357,3.357,0,0,0,.5.185,1.444,1.444,0,0,0,.376.055.536.536,0,0,0,.313-.078.267.267,0,0,0,.109-.232.253.253,0,0,0-.047-.153.533.533,0,0,0-.142-.13,3.794,3.794,0,0,0-.38-.2,1.785,1.785,0,0,1-.4-.242.9.9,0,0,1-.213-.271.765.765,0,0,1-.081-.36.754.754,0,0,1,.264-.611,1.091,1.091,0,0,1,.727-.223,1.733,1.733,0,0,1,.437.053,3.058,3.058,0,0,1,.433.153l-.2.484a2.838,2.838,0,0,0-.388-.135,1.261,1.261,0,0,0-.3-.039.4.4,0,0,0-.271.083.292.292,0,0,0-.056.358.42.42,0,0,0,.122.119,3.883,3.883,0,0,0,.394.205,1.569,1.569,0,0,1,.562.393.775.775,0,0,1,.152.485Z" fill="#283042"/>
    <path id="Trazado_11854" data-name="Trazado 11854" d="M927.777,6419.033a.394.394,0,0,0-.3.123.575.575,0,0,0-.126.35h.857a.516.516,0,0,0-.117-.35.407.407,0,0,0-.309-.123Zm.086,1.888a1.162,1.162,0,0,1-.846-.3,1.136,1.136,0,0,1-.305-.847,1.232,1.232,0,0,1,.283-.869,1.143,1.143,0,0,1,1.517-.039,1.022,1.022,0,0,1,.265.748v.3h-1.446a.59.59,0,0,0,.155.406.54.54,0,0,0,.4.147,1.722,1.722,0,0,0,.383-.042,1.885,1.885,0,0,0,.375-.136v.475a1.415,1.415,0,0,1-.342.118,2.133,2.133,0,0,1-.444.039Z" fill="#283042"/>
    <path id="Trazado_11855" data-name="Trazado 11855" d="M930.516,6419.843l-.237.008a.765.765,0,0,0-.4.095.3.3,0,0,0-.131.269c0,.172.1.259.3.259a.472.472,0,0,0,.34-.122.434.434,0,0,0,.127-.325v-.184Zm.181,1.038-.118-.3h-.017a.888.888,0,0,1-.318.27,1.022,1.022,0,0,1-.425.075.694.694,0,0,1-.509-.184.715.715,0,0,1-.184-.525.591.591,0,0,1,.249-.527,1.454,1.454,0,0,1,.752-.187l.389-.012v-.1a.3.3,0,0,0-.348-.34,1.593,1.593,0,0,0-.632.162l-.2-.413a1.826,1.826,0,0,1,.859-.2,1.081,1.081,0,0,1,.692.2.729.729,0,0,1,.241.6v1.493Z" fill="#283042"/>
    <path id="Trazado_11856" data-name="Trazado 11856" d="M933,6418.6a.92.92,0,0,1,.207.017l-.047.574a.656.656,0,0,0-.18-.02.649.649,0,0,0-.456.15.543.543,0,0,0-.163.421v1.14h-.612v-2.241h.464l.09.377h.031a.838.838,0,0,1,.28-.3.7.7,0,0,1,.386-.114Z" fill="#283042"/>
    <path id="Trazado_11857" data-name="Trazado 11857" d="M934.526,6420.921q-1.046,0-1.046-1.148a1.224,1.224,0,0,1,.285-.873,1.073,1.073,0,0,1,.816-.3,1.548,1.548,0,0,1,.7.152l-.18.473a2.852,2.852,0,0,0-.269-.1.855.855,0,0,0-.248-.037q-.477,0-.477.678,0,.657.477.657a1.066,1.066,0,0,0,.327-.047,1.222,1.222,0,0,0,.3-.147v.522a.992.992,0,0,1-.3.131,1.674,1.674,0,0,1-.383.036Z" fill="#283042"/>
    <path id="Trazado_11858" data-name="Trazado 11858" d="M937.795,6420.881h-.611v-1.309c0-.323-.12-.485-.36-.485a.409.409,0,0,0-.371.175,1.064,1.064,0,0,0-.115.565v1.054h-.611v-3.118h.611v.635c0,.049,0,.166-.014.348l-.014.18h.032a.711.711,0,0,1,.65-.327.8.8,0,0,1,.6.211.848.848,0,0,1,.2.61v1.461Z" fill="#283042"/>
    <path id="Trazado_11859" data-name="Trazado 11859" d="M980.2,6435.175a2.35,2.35,0,0,1-2.35,2.349h-28.6a2.349,2.349,0,0,1,0-4.7h28.6a2.349,2.349,0,0,1,2.35,2.349Z" fill="#4baa4d"/>
    <path id="Trazado_11860" data-name="Trazado 11860" d="M1043.592,6442.222a1.317,1.317,0,0,1-1.315,1.316H948.214a1.315,1.315,0,0,1,0-2.631h94.063a1.317,1.317,0,0,1,1.315,1.315Z" fill="#60c967"/>
    <path id="Trazado_11861" data-name="Trazado 11861" d="M1043.592,6447.861a1.316,1.316,0,0,1-1.315,1.315H948.214a1.315,1.315,0,0,1,0-2.631h94.063a1.317,1.317,0,0,1,1.315,1.316Z" fill="#60c967"/>
    <path id="Trazado_11862" data-name="Trazado 11862" d="M1013.942,6453.5a1.316,1.316,0,0,1-1.314,1.316H948.214a1.316,1.316,0,0,1,0-2.632h64.414a1.315,1.315,0,0,1,1.314,1.316Z" fill="#60c967"/>
    <path id="Trazado_11863" data-name="Trazado 11863" d="M920.046,6443.979a11.347,11.347,0,1,0,11.25-11.443,11.348,11.348,0,0,0-11.25,11.443Z" fill="#fff"/>
    <path id="Trazado_11864" data-name="Trazado 11864" d="M980.2,6463.414a2.351,2.351,0,0,1-2.35,2.35h-28.6a2.35,2.35,0,0,1,0-4.7h28.6a2.351,2.351,0,0,1,2.35,2.35Z" fill="#a3c4c1"/>
    <path id="Trazado_11865" data-name="Trazado 11865" d="M1043.592,6470.462a1.316,1.316,0,0,1-1.315,1.314H948.214a1.315,1.315,0,0,1,0-2.63h94.063a1.317,1.317,0,0,1,1.315,1.316Z" fill="#daedec"/>
    <path id="Trazado_11866" data-name="Trazado 11866" d="M1043.592,6476.1a1.317,1.317,0,0,1-1.315,1.315H948.214a1.315,1.315,0,0,1,0-2.631h94.063a1.317,1.317,0,0,1,1.315,1.316Z" fill="#daedec"/>
    <path id="Trazado_11867" data-name="Trazado 11867" d="M1013.942,6481.738a1.315,1.315,0,0,1-1.314,1.315H948.214a1.315,1.315,0,0,1,0-2.63h64.414a1.315,1.315,0,0,1,1.314,1.315Z" fill="#daedec"/>
    <path id="Trazado_11868" data-name="Trazado 11868" d="M920.046,6472.218a11.347,11.347,0,1,0,11.25-11.443,11.349,11.349,0,0,0-11.25,11.443Z" fill="#daedec"/>
    <path id="Trazado_11869" data-name="Trazado 11869" d="M980.2,6490.857a2.35,2.35,0,0,1-2.35,2.349h-28.6a2.349,2.349,0,0,1,0-4.7h28.6a2.351,2.351,0,0,1,2.35,2.349Z" fill="#a3c4c1"/>
    <path id="Trazado_11870" data-name="Trazado 11870" d="M1043.592,6497.908a1.316,1.316,0,0,1-1.315,1.312H948.214a1.315,1.315,0,0,1,0-2.63h94.063a1.317,1.317,0,0,1,1.315,1.318Z" fill="#daedec"/>
    <path id="Trazado_11871" data-name="Trazado 11871" d="M1043.592,6503.543a1.317,1.317,0,0,1-1.315,1.317H948.214a1.316,1.316,0,0,1,0-2.632h94.063a1.317,1.317,0,0,1,1.315,1.315Z" fill="#daedec"/>
    <path id="Trazado_11872" data-name="Trazado 11872" d="M1013.942,6509.184a1.315,1.315,0,0,1-1.314,1.314H948.214a1.316,1.316,0,0,1,0-2.632h64.414a1.315,1.315,0,0,1,1.314,1.318Z" fill="#daedec"/>
    <path id="Trazado_11873" data-name="Trazado 11873" d="M920.046,6499.663a11.347,11.347,0,1,0,11.25-11.444,11.349,11.349,0,0,0-11.25,11.444Z" fill="#daedec"/>
    <path id="Trazado_11874" data-name="Trazado 11874" d="M931.053,6449.173a1.978,1.978,0,0,1-.367.034,1.69,1.69,0,0,1-1.252-.367l-4.551-3.931a1.1,1.1,0,0,1-.376-.812,1.894,1.894,0,0,1,.57-1.343,1.437,1.437,0,0,1,.746-.421,1.4,1.4,0,0,1,1.183.384l3.481,2.961,3.79-5.3c.011-.02,2.387-3.357,3.447-3.556a.542.542,0,0,1,.3.021.521.521,0,0,1,.316.333c.3.905-1.466,3.824-1.484,3.852l-4.635,7.4a1.766,1.766,0,0,1-1.173.752Z" fill="#60c967"/>
  </g>
</svg>
