<svg xmlns="http://www.w3.org/2000/svg" width="172.236" height="179.969" viewBox="0 0 172.236 179.969">
  <g id="Grupo_10090" data-name="Grupo 10090" transform="translate(-353.953 -5641.959)">
    <path id="Trazado_12232" data-name="Trazado 12232" d="M362.541,5773.337a86.127,86.127,0,1,0,92.35-122.37L415.3,5693.63v78.385l-50.827.348Zm0,0" fill="#8ab512"/>
    <path id="Trazado_12233" data-name="Trazado 12233" d="M364.514,5775.01l51.937-.355V5694.56l40.159-43.275a86.21,86.21,0,0,0-77.534,23.734L367.455,5689.5a86.2,86.2,0,0,0-3.843,85.968Zm0,0" fill="#5fc6ff"/>
    <path id="Trazado_12234" data-name="Trazado 12234" d="M406.279,5798.313a8.116,8.116,0,0,0,2.574-2.951c2.926-6.874,8.868-8.956,5.879-15.028a17.29,17.29,0,0,1-1.434-8.306l-48.826.335-1.931.974a86.474,86.474,0,0,0,28.468,33.253c3.6-2.389,11.138-5.08,15.27-8.277Zm0,0" fill="#7e9e0b"/>
    <path id="Trazado_12235" data-name="Trazado 12235" d="M371.439,5693.63c1.7,3.317,3.776,10.274,10.072,14.379-1.926-4.55,1.569-7.495,5.064-7.495,4.379,0,.375-10.534,9.518-11.971l-.187-.422s-4.549-1.521-9.821-6.794a68.422,68.422,0,0,0-7.009-6.308,86.417,86.417,0,0,0-11.621,14.479,10.252,10.252,0,0,1,3.984,4.132Zm0,0" fill="#8ab512"/>
    <path id="Trazado_12236" data-name="Trazado 12236" d="M516.116,5777.518a19.862,19.862,0,0,0-6.547-13.05,4.015,4.015,0,0,1-1.118-1.72,4.081,4.081,0,0,1,.743-3.916l.769-.916a4.066,4.066,0,0,0,.176-5.045c-5.115-6.814-3.513-13.65-3.513-19.111,0-6.1,6.913-6.838,5.353-12.826s-16.279-2.485-21.854-.478-7.136-2.453-12.266-10.629-19.327,0-23.191,0-8.623-5.055-6.542-11.448-.891-7.88-7.731-12.339-.445-2.529,1.785-14.421,6.393-3.718,10.7-12.489,12.042-3.121,12.042-9.756-4.236-7.415-4.236-7.415c-6.245,0-20.182,14.829-23.69,14.829a29.464,29.464,0,0,1-6.239-.985,3.047,3.047,0,0,0-3.713,2.338c-.549,2.618-1.8,5.6-4.641,3.889-4.683-2.825-10.832,3.064-12.56,4.794s4.459,12.153-2.565,12.153-1.562,8.027-11.373,9.142-5.576,12.043-10.036,12.043-8.919,4.795-2.118,11.6-1.673,12.6,1.338,17.505.112,10.258,3.122,16.05-2.677,7.924-5.352,14.614a7.867,7.867,0,0,1-2.42,2.9h0c-6.523,5.276-22.2,9.4-14.232,12.562,9.366,3.717,5.8,16.206,21.11,16.206s8.623,4.311,21.259,6.243,4.3,9.364,15.907,11.894c8.6,1.875,9.679,7.843,12.394,12.132,1.058.039,2.12.066,3.189.066A85.708,85.708,0,0,0,485.3,5809.1c-2.274-3.647-6.538-8.022-7.019-10.628-.958-5.157,10.435-3.74,10.435-8.817,0-3.655-2.94-5.744-5.111-6.79a4,4,0,0,1-2.285-3.6V5776.4a3.982,3.982,0,0,1,3.983-3.982h15.419c4.441,0,6.536,3.96,7.466,6.792a4.08,4.08,0,0,0,7.932-1.688Zm0,0" fill="#c0e54c"/>
    <path id="Trazado_12237" data-name="Trazado 12237" d="M441.311,5739.953H433.2a3.05,3.05,0,0,1,0-6.1h8.116a3.05,3.05,0,0,1,0,6.1Zm0,0" fill="#a5d130"/>
    <path id="Trazado_12238" data-name="Trazado 12238" d="M408.852,5795.362c2.927-6.874,8.869-8.956,5.88-15.028s.137-11.556-2.873-16.711,5.906-10.973-.992-18.179-2.164-12.076,2.459-11.975.479-11.323,10.677-12.259,4.715-9.381,12-9.221,1.1-10.789,2.935-12.543c1.424-1.364,5.686-5.281,9.763-5.519-.5-3.03-3.414-4.7-8.3-7.887-6.838-4.462-.445-2.529,1.785-14.421s6.393-3.718,10.7-12.489,12.042-3.121,12.042-9.756-4.236-7.415-4.236-7.415c-6.245,0-20.182,14.829-23.69,14.829a29.464,29.464,0,0,1-6.239-.985,3.047,3.047,0,0,0-3.713,2.338c-.549,2.618-1.8,5.6-4.641,3.889-4.683-2.825-10.832,3.064-12.56,4.794s4.459,12.153-2.565,12.153-1.562,8.027-11.373,9.142-5.576,12.043-10.036,12.043-8.919,4.795-2.118,11.6-1.673,12.6,1.338,17.505.112,10.258,3.122,16.05-2.675,7.924-5.352,14.614a7.881,7.881,0,0,1-2.418,2.9c-6.523,5.276-22.194,9.4-14.232,12.562,9.366,3.717,5.8,16.206,21.11,16.206,14.692,0,9.132,3.969,19.819,6a6.767,6.767,0,0,0,1.711-2.228Zm0,0" fill="#a5d130"/>
    <path id="Trazado_12239" data-name="Trazado 12239" d="M422.662,5729.141a10.974,10.974,0,1,1-15.519,0,10.973,10.973,0,0,1,15.519,0Zm0,0" fill="#ffc82e"/>
    <path id="Trazado_12240" data-name="Trazado 12240" d="M403.945,5736.9a10.975,10.975,0,0,0,10.975,10.975c.18,0,.357,0,.533-.012-5.955-7.147.011-11.021.011-11.021l-.121-10.906c-.141,0-.28-.011-.423-.011a10.974,10.974,0,0,0-10.975,10.975Zm0,0" fill="#f7b126"/>
    <path id="Trazado_12241" data-name="Trazado 12241" d="M415.187,5647c-31.49,0-48.261,37.142-27.439,60.764l24.522,27.818a3.889,3.889,0,0,0,5.834,0l24.521-27.818c20.823-23.622,4.051-60.764-27.438-60.764Zm0,0" fill="#f4456f"/>
    <path id="Trazado_12242" data-name="Trazado 12242" d="M418.1,5735.587l23.207-26.326c-8.087-.268-10.278-4.52-10.84-7.325a4.122,4.122,0,0,0-2.88-3.143c-20.8-6.053-24.161-23.278-24.644-30.413a4.214,4.214,0,0,0-3.026-3.749,8.7,8.7,0,0,1-6.473-10.569c-16.045,11.92-20.931,36.43-5.7,53.707l24.522,27.818a3.889,3.889,0,0,0,5.834,0Zm0,0" fill="#dd2a44"/>
    <path id="Trazado_12243" data-name="Trazado 12243" d="M415.187,5661.33a22.158,22.158,0,1,0,22.158,22.159,22.185,22.185,0,0,0-22.158-22.159Zm0,0" fill="#dd2a44"/>
    <path id="Trazado_12244" data-name="Trazado 12244" d="M415.187,5705.647a22.058,22.058,0,0,0,14.493-5.419,4.1,4.1,0,0,0-2.089-1.435c-20.8-6.053-24.161-23.278-24.644-30.413a4.172,4.172,0,0,0-1.109-2.563,22.148,22.148,0,0,0,13.349,39.83Zm0,0" fill="#cc1f41"/>
  </g>
</svg>
