<svg xmlns="http://www.w3.org/2000/svg" width="1095" height="261.018" viewBox="0 0 1095 261.018">
  <g id="Grupo_10016" data-name="Grupo 10016" transform="translate(-172 -3053.874)">
    <rect id="Rectángulo_2945" data-name="Rectángulo 2945" width="1095" height="261.018" rx="6" transform="translate(172 3053.874)" fill="#bfe8ff"/>
    <g id="Grupo_8326" data-name="Grupo 8326">
      <path id="Trazado_1716" data-name="Trazado 1716" d="M520.859,3182.063l-15.912-10.649a2.791,2.791,0,0,0-4.344,2.32v3.532H483.267a4.2,4.2,0,0,0-4.2,4.2v5.839a4.2,4.2,0,0,0,4.2,4.2H500.6v3.531a2.791,2.791,0,0,0,4.344,2.32l15.912-10.648A2.791,2.791,0,0,0,520.859,3182.063Z" fill="#e53e5e"/>
      <path id="Trazado_1717" data-name="Trazado 1717" d="M837.05,3182.063l-15.912-10.649a2.791,2.791,0,0,0-4.344,2.32v3.532H799.458a4.2,4.2,0,0,0-4.2,4.2v5.839a4.2,4.2,0,0,0,4.2,4.2h17.336v3.531a2.791,2.791,0,0,0,4.344,2.32L837.05,3186.7A2.791,2.791,0,0,0,837.05,3182.063Z" fill="#e53e5e"/>
      <g id="Grupo_8311" data-name="Grupo 8311">
        <g id="Grupo_8306" data-name="Grupo 8306">
          <g id="Grupo_8305" data-name="Grupo 8305">
            <path id="Trazado_1718" data-name="Trazado 1718" d="M303.692,3177.171l1.041-4.181-1.041-3.263h-4.1l-.711,3.722.711,3.722Zm0,0" fill="#eff6ff" fill-rule="evenodd"/>
            <path id="Trazado_1719" data-name="Trazado 1719" d="M299.594,3169.728v7.443l-5.579,6.926a.233.233,0,0,1-.326.037,8.485,8.485,0,0,1-3.075-6.485,10.093,10.093,0,0,1,.145-1.832,12.784,12.784,0,0,1,.652-2.368,12.181,12.181,0,0,1-.74-3.015,9.422,9.422,0,0,1-.026-1.831,8.477,8.477,0,0,1,3.043-5.838.233.233,0,0,1,.327.037Zm0,0" fill="#5fd1fa" fill-rule="evenodd"/>
            <path id="Trazado_1720" data-name="Trazado 1720" d="M294.015,3184.1l5.579-6.926v-3.778c-.44.648-7.9,8.381-7.612,8.825a8.192,8.192,0,0,0,1.707,1.917c.116.092.326-.038.326-.038Zm0,0" fill="#4dc1f9" fill-rule="evenodd"/>
            <path id="Trazado_1721" data-name="Trazado 1721" d="M335.291,3192.539c3.242-2.171,4.28-6.623,4.072-8.673h-4.051c-.1.043-2.3,3.028-2.4,3.068l-.016.006c-1.451,3.388-3.262,4.618-6.207,7.086-1.14.956,5.649.5,8.6-1.487Zm0,0" fill="#5fd1fa" fill-rule="evenodd"/>
            <path id="Trazado_1722" data-name="Trazado 1722" d="M303.692,3177.171l-3.431,7.905c-3.932,9.063,12.645,8.508,27.435,3.749a41.619,41.619,0,0,1-24-11.654Zm0,0" fill="#5fd1fa" fill-rule="evenodd"/>
            <path id="Trazado_1723" data-name="Trazado 1723" d="M328.843,3156.448c-15.438-5.678-33.262-4.64-28.985,4.8l3.834,8.474c3.259-11.508,13.921-12.965,25.151-13.279Zm0,0" fill="#5fd1fa" fill-rule="evenodd"/>
            <path id="Trazado_1724" data-name="Trazado 1724" d="M310.649,3185.747c3.163-13.96-1.924-13.858-.949-26.887-4.392,3.19-5.446,8.048-6.008,10.867v7.444a18.317,18.317,0,0,0,6.957,8.576Zm0,0" fill="#fde588" fill-rule="evenodd"/>
            <path id="Trazado_1725" data-name="Trazado 1725" d="M329.306,3188.285c1.728-7.221,1.863-17.212.565-22.881s-1.213-6.415-.466-8.745c-.188-.069-.373-.142-.562-.211a46.977,46.977,0,0,0-6.118-.688c-2.762,11.743,3.5,17.494.129,33.216a44.1,44.1,0,0,0,4.842-.151c.539-.176,1.077-.354,1.61-.54Zm0,0" fill="#fde588" fill-rule="evenodd"/>
            <path id="Trazado_1726" data-name="Trazado 1726" d="M333.209,3186.812c9.089-3.735,16.221-8.964,15.259-14.192-2.231-6.264-8.375-11.165-15.6-14.507-2.955,4.519,1.973,17.657.039,28.821.1-.04.2-.079.3-.122Zm8.391-15.25a2.041,2.041,0,1,1,0-2.886,2.039,2.039,0,0,1,0,2.886Zm0,0" fill="#fde588" fill-rule="evenodd"/>
            <path id="Trazado_1727" data-name="Trazado 1727" d="M319.6,3188.739c2.151-8.914,1.854-15.505.74-21s-1.411-10.044-.859-11.961a21.625,21.625,0,0,0-5.986,1.124c-3.364,11.729,2.952,19.417.126,30.347a24.19,24.19,0,0,0,5.979,1.488Zm0,0" fill="#fde588" fill-rule="evenodd"/>
            <path id="Trazado_1728" data-name="Trazado 1728" d="M338.712,3171.562a2.041,2.041,0,1,0,0-2.886,2.039,2.039,0,0,0,0,2.886Zm0,0" fill="#7e707d" fill-rule="evenodd"/>
            <path id="Trazado_1729" data-name="Trazado 1729" d="M313.62,3187.251a29.414,29.414,0,0,0,1.312-9.149c.027-3.7-1.021-6.2-1.464-8.427a32.2,32.2,0,0,1,.026-12.771,14.675,14.675,0,0,0-3.794,1.957c-1.8,12.655,3.259,12.543.949,26.886a18.178,18.178,0,0,0,2.971,1.5Zm0,0" fill="#fe8d94" fill-rule="evenodd"/>
            <path id="Trazado_1730" data-name="Trazado 1730" d="M322.854,3188.976c4.432-15.527-1.916-21.3-.129-33.216q-1.73-.069-3.245.02a27.5,27.5,0,0,0,.05,11.905c1.113,5.493,2.22,12.14.069,21.054,1.018.125,2.1.208,3.255.237Zm0,0" fill="#fe8d94" fill-rule="evenodd"/>
            <path id="Trazado_1731" data-name="Trazado 1731" d="M333.209,3186.812c9.089-3.735,16.221-8.964,15.259-14.192a17.623,17.623,0,0,0-2.251-4.281c.053.136.106.271.153.407.882,4.789-5.024,9.575-13.006,13.217a33.432,33.432,0,0,1-.453,4.971c.1-.04.2-.079.3-.122Zm0,0" fill="#fdd76f" fill-rule="evenodd"/>
            <path id="Trazado_1732" data-name="Trazado 1732" d="M319.6,3188.739c.139-.566.261-1.124.373-1.673.136-.671.251-1.329.354-1.977q-1.492-.054-2.822-.224a26.765,26.765,0,0,1-3.124-.572c-.026.155-.059.311-.089.463a21.661,21.661,0,0,1-.671,2.495,24.19,24.19,0,0,0,5.979,1.488Zm0,0" fill="#fdd76f" fill-rule="evenodd"/>
            <path id="Trazado_1733" data-name="Trazado 1733" d="M322.854,3188.976c.1-.347.192-.691.281-1.028q.393-1.5.655-2.879l-.261.014c-.969.039-1.891.046-2.773.023-.13,0-.258-.01-.387-.013a.16.16,0,0,1-.043,0c-.1.648-.218,1.306-.354,1.977-.112.549-.234,1.1-.37,1.669l0,0c1.018.125,2.1.208,3.255.237Zm0,0" fill="#ff6d75" fill-rule="evenodd"/>
            <path id="Trazado_1734" data-name="Trazado 1734" d="M327.7,3188.825c.539-.176,1.077-.354,1.61-.54.343-1.434.624-2.977.843-4.574v0c.016-.132.036-.268.049-.4-.978.387-1.98.754-2.991,1.1-.532.185-1.071.367-1.609.539-.619.053-1.22.093-1.808.119q-.263,1.383-.655,2.879-.134.505-.281,1.028a44.353,44.353,0,0,0,4.842-.152Zm0,0" fill="#fdd76f" fill-rule="evenodd"/>
            <path id="Trazado_1735" data-name="Trazado 1735" d="M332.911,3186.934c.7-2.208.86-1.6,1.213-8.832s-3.14-15.375-1.252-19.989c-1.134-.522-2.294-1.008-3.467-1.454a16.253,16.253,0,0,0-.264,8.745,50.2,50.2,0,0,1,.165,22.881c1.226-.422,2.432-.875,3.605-1.351Zm0,0" fill="#fe8d94" fill-rule="evenodd"/>
            <path id="Trazado_1736" data-name="Trazado 1736" d="M332.911,3186.934a14.159,14.159,0,0,0,1.012-5.229c-.912.427-1.851.84-2.81,1.233-.1.043-.2.083-.3.122-.2.083-.407.166-.615.248a44.381,44.381,0,0,1-.892,4.977c1.226-.422,2.432-.875,3.605-1.351Zm0,0" fill="#ff6d75" fill-rule="evenodd"/>
            <path id="Trazado_1737" data-name="Trazado 1737" d="M310.649,3185.747c.149-.919.264-1.774.357-2.581a18.212,18.212,0,0,1-2.456-1.292,16.381,16.381,0,0,1-4.858-4.7,18.317,18.317,0,0,0,6.957,8.576Zm0,0" fill="#fdd76f" fill-rule="evenodd"/>
            <path id="Trazado_1738" data-name="Trazado 1738" d="M313.62,3187.251a21.868,21.868,0,0,0,.671-2.495c.03-.152.063-.308.089-.463-.063-.016-.125-.033-.188-.046-.684-.176-1.329-.373-1.94-.592-.248-.089-.492-.182-.73-.274-.123-.05-.241-.1-.364-.152l-.152-.063c-.093.807-.208,1.662-.357,2.581a18.178,18.178,0,0,0,2.971,1.5Zm0,0" fill="#ff6d75" fill-rule="evenodd"/>
            <rect id="Rectángulo_2946" data-name="Rectángulo 2946" width="4.098" height="3.778" transform="translate(299.594 3173.393)" fill="#d9eeff"/>
            <path id="Trazado_1739" data-name="Trazado 1739" d="M295.611,3171.4a.874.874,0,0,1-1.131.5l-3.809-1.468a9.422,9.422,0,0,1-.026-1.831.836.836,0,0,1,.283.057l4.181,1.61a.874.874,0,0,1,.5,1.13Zm0,0" fill="#4dc1f9"/>
            <path id="Trazado_1740" data-name="Trazado 1740" d="M295.047,3176.352l-4.18,1.259a.867.867,0,0,1-.253.038,10.093,10.093,0,0,1,.145-1.832l3.783-1.139a.874.874,0,1,1,.505,1.674Zm0,0" fill="#4dc1f9"/>
          </g>
          <path id="Trazado_1741" data-name="Trazado 1741" d="M316.973,3173.614a60.63,60.63,0,0,0-25.942-.3c.015.043.028.086.044.128a13.145,13.145,0,0,0-.583,2.12l-.011,0-.033.193a10.478,10.478,0,0,0-.15,1.888h0l.005.31h.011a8.8,8.8,0,0,0,1.392,4.4l.012.022c.011.017.023.031.034.048.152.23.3.443.457.635l.059.072c.148.184.295.353.433.5.021.023.04.041.061.062.132.138.258.261.37.364l.056.05c.109.1.205.18.284.243l.02.018a.461.461,0,0,0,.067.035.534.534,0,0,0,.273.083.542.542,0,0,0,.324-.124.231.231,0,0,0,.025-.011l.017-.022a.5.5,0,0,0,.062-.048l5.485-6.809h3.466l-3.239,7.465c-.929,2.141-.806,3.882.366,5.175,1.517,1.674,4.682,2.384,8.652,2.384a65.9,65.9,0,0,0,18.8-3.385l1.281-.412-.028,0,.357-.124.007,0,.163-.056v0c.911-.316,1.815-.655,2.708-1-1.206,2.462-2.7,3.7-4.867,5.495-.3.245-.606.5-.929.771-.394.331-.195.639-.151.7.177.235.732.342,1.5.342a16.918,16.918,0,0,0,7.634-2.023c3.172-2.125,4.369-6.374,4.223-8.746.5-.281.979-.565,1.438-.85a29.544,29.544,0,0,0,3.219-2.285c.188-.154.369-.309.545-.464,2.348-2.068,3.688-4.185,3.925-6.258C341.949,3175.209,328.936,3176.426,316.973,3173.614Z" fill="#7e9e0b" opacity="0.5"/>
        </g>
        <g id="Grupo_8308" data-name="Grupo 8308">
          <g id="Grupo_8307" data-name="Grupo 8307">
            <path id="Trazado_1742" data-name="Trazado 1742" d="M390.984,3156.763l1.207-4.845-1.207-3.78h-4.748l-.823,4.312.823,4.313Zm0,0" fill="#eff6ff" fill-rule="evenodd"/>
            <path id="Trazado_1743" data-name="Trazado 1743" d="M386.236,3148.139v8.624l-6.465,8.025a.268.268,0,0,1-.377.043,9.836,9.836,0,0,1-3.564-7.515,11.767,11.767,0,0,1,.169-2.122,14.766,14.766,0,0,1,.756-2.744,14.05,14.05,0,0,1-.858-3.493,10.924,10.924,0,0,1-.03-2.122,9.815,9.815,0,0,1,3.526-6.764.269.269,0,0,1,.378.042Zm0,0" fill="#5fd1fa" fill-rule="evenodd"/>
            <path id="Trazado_1744" data-name="Trazado 1744" d="M379.771,3164.788l6.465-8.025v-4.378c-.509.751-9.152,9.712-8.82,10.226a9.5,9.5,0,0,0,1.978,2.221c.134.107.377-.044.377-.044Zm0,0" fill="#4dc1f9" fill-rule="evenodd"/>
            <path id="Trazado_1745" data-name="Trazado 1745" d="M427.6,3174.57c3.756-2.516,4.959-7.674,4.718-10.049h-4.7c-.114.05-2.666,3.509-2.781,3.554l-.019.008c-1.681,3.926-3.78,5.35-7.192,8.211-1.321,1.107,6.545.575,9.969-1.724Zm0,0" fill="#5fd1fa" fill-rule="evenodd"/>
            <path id="Trazado_1746" data-name="Trazado 1746" d="M390.984,3156.763l-3.975,9.16c-4.556,10.5,14.652,9.858,31.79,4.343a48.22,48.22,0,0,1-27.815-13.5Zm0,0" fill="#5fd1fa" fill-rule="evenodd"/>
            <path id="Trazado_1747" data-name="Trazado 1747" d="M420.128,3132.75c-17.888-6.579-38.541-5.376-33.586,5.569l4.442,9.819c3.777-13.335,16.131-15.024,29.144-15.388Zm0,0" fill="#5fd1fa" fill-rule="evenodd"/>
            <path id="Trazado_1748" data-name="Trazado 1748" d="M399.046,3166.7c3.665-16.177-2.229-16.058-1.1-31.155-5.09,3.7-6.311,9.325-6.963,12.592v8.625a21.231,21.231,0,0,0,8.062,9.938Zm0,0" fill="#fde588" fill-rule="evenodd"/>
            <path id="Trazado_1749" data-name="Trazado 1749" d="M420.664,3169.641c2-8.367,2.159-19.944.655-26.512s-1.406-7.434-.54-10.133c-.218-.081-.433-.165-.651-.246a54.571,54.571,0,0,0-7.089-.8c-3.2,13.607,4.052,20.271.15,38.488a51.18,51.18,0,0,0,5.61-.176c.624-.2,1.248-.409,1.865-.625Zm0,0" fill="#fde588" fill-rule="evenodd"/>
            <path id="Trazado_1750" data-name="Trazado 1750" d="M425.187,3167.934c10.531-4.327,18.795-10.386,17.681-16.445-2.585-7.257-9.7-12.937-18.072-16.809-3.424,5.236,2.286,20.459.046,33.4.115-.045.23-.091.345-.141Zm9.723-17.67a2.366,2.366,0,1,1,0-3.344,2.363,2.363,0,0,1,0,3.344Zm0,0" fill="#fde588" fill-rule="evenodd"/>
            <path id="Trazado_1751" data-name="Trazado 1751" d="M409.417,3170.167c2.492-10.329,2.148-17.965.857-24.331s-1.635-11.638-.995-13.859a25.042,25.042,0,0,0-6.936,1.3c-3.9,13.591,3.42,22.5.146,35.164a28,28,0,0,0,6.928,1.724Zm0,0" fill="#fde588" fill-rule="evenodd"/>
            <path id="Trazado_1752" data-name="Trazado 1752" d="M431.563,3150.264a2.366,2.366,0,1,0,0-3.344,2.363,2.363,0,0,0,0,3.344Zm0,0" fill="#7e707d" fill-rule="evenodd"/>
            <path id="Trazado_1753" data-name="Trazado 1753" d="M402.489,3168.443a34.1,34.1,0,0,0,1.52-10.6c.031-4.285-1.183-7.184-1.7-9.765a37.309,37.309,0,0,1,.031-14.8,17,17,0,0,0-4.4,2.267c-2.091,14.664,3.776,14.534,1.1,31.155a21.118,21.118,0,0,0,3.443,1.742Zm0,0" fill="#fe8d94" fill-rule="evenodd"/>
            <path id="Trazado_1754" data-name="Trazado 1754" d="M413.189,3170.442c5.135-17.992-2.221-24.675-.15-38.488q-2-.081-3.76.023a31.846,31.846,0,0,0,.057,13.794c1.29,6.365,2.573,14.067.081,24.4,1.179.145,2.435.241,3.772.275Zm0,0" fill="#fe8d94" fill-rule="evenodd"/>
            <path id="Trazado_1755" data-name="Trazado 1755" d="M425.187,3167.934c10.531-4.327,18.795-10.386,17.681-16.445a20.492,20.492,0,0,0-2.608-4.96c.061.158.122.315.176.472,1.023,5.549-5.821,11.095-15.069,15.315a38.71,38.71,0,0,1-.525,5.759c.115-.045.23-.091.345-.141Zm0,0" fill="#fdd76f" fill-rule="evenodd"/>
            <path id="Trazado_1756" data-name="Trazado 1756" d="M409.417,3170.167c.16-.655.3-1.3.432-1.939.157-.777.291-1.539.41-2.29-1.153-.042-2.241-.13-3.27-.26a31.172,31.172,0,0,1-3.619-.662c-.031.179-.069.36-.1.536a25.245,25.245,0,0,1-.777,2.891,28,28,0,0,0,6.928,1.724Zm0,0" fill="#fdd76f" fill-rule="evenodd"/>
            <path id="Trazado_1757" data-name="Trazado 1757" d="M413.189,3170.442c.114-.4.222-.8.325-1.191q.454-1.735.759-3.336c-.1,0-.2.012-.3.016-1.122.046-2.191.053-3.213.027-.15-.005-.3-.012-.448-.015a.166.166,0,0,1-.05-.005c-.119.751-.253,1.513-.41,2.29q-.2.954-.429,1.935l0,0c1.179.145,2.435.241,3.772.275Zm0,0" fill="#ff6d75" fill-rule="evenodd"/>
            <path id="Trazado_1758" data-name="Trazado 1758" d="M418.8,3170.266c.624-.2,1.248-.409,1.865-.625.4-1.661.724-3.45.977-5.3v0c.019-.153.042-.31.057-.463-1.134.448-2.294.874-3.466,1.28-.616.214-1.24.425-1.865.624q-1.074.092-2.094.138-.3,1.6-.759,3.335-.154.587-.325,1.192a51.5,51.5,0,0,0,5.61-.177Zm0,0" fill="#fdd76f" fill-rule="evenodd"/>
            <path id="Trazado_1759" data-name="Trazado 1759" d="M424.842,3168.075c.812-2.558,1-1.857,1.4-10.233s-3.638-17.815-1.451-23.162c-1.313-.6-2.658-1.167-4.017-1.684a18.832,18.832,0,0,0-.306,10.133,58.16,58.16,0,0,1,.191,26.512c1.421-.489,2.819-1.014,4.178-1.566Zm0,0" fill="#fe8d94" fill-rule="evenodd"/>
            <path id="Trazado_1760" data-name="Trazado 1760" d="M424.842,3168.075a16.408,16.408,0,0,0,1.172-6.058c-1.057.494-2.145.973-3.255,1.428-.119.05-.234.1-.349.142-.237.1-.471.192-.712.287a51.494,51.494,0,0,1-1.034,5.767c1.421-.489,2.819-1.014,4.178-1.566Zm0,0" fill="#ff6d75" fill-rule="evenodd"/>
            <path id="Trazado_1761" data-name="Trazado 1761" d="M399.046,3166.7c.172-1.065.306-2.057.413-2.991a21.111,21.111,0,0,1-2.845-1.5,18.987,18.987,0,0,1-5.63-5.449,21.231,21.231,0,0,0,8.062,9.938Zm0,0" fill="#fdd76f" fill-rule="evenodd"/>
            <path id="Trazado_1762" data-name="Trazado 1762" d="M402.489,3168.443a25.454,25.454,0,0,0,.777-2.891c.035-.176.073-.357.1-.536-.073-.02-.146-.039-.219-.054-.792-.2-1.539-.433-2.248-.685-.286-.1-.57-.211-.846-.319-.142-.057-.279-.114-.421-.176-.058-.022-.119-.05-.177-.072-.107.934-.241,1.926-.413,2.991a21.118,21.118,0,0,0,3.443,1.742Zm0,0" fill="#ff6d75" fill-rule="evenodd"/>
            <rect id="Rectángulo_2947" data-name="Rectángulo 2947" width="4.748" height="4.377" transform="translate(386.236 3152.385)" fill="#d9eeff"/>
            <path id="Trazado_1763" data-name="Trazado 1763" d="M381.621,3150.076a1.012,1.012,0,0,1-1.31.582l-4.414-1.7a10.924,10.924,0,0,1-.03-2.122.953.953,0,0,1,.328.066l4.845,1.866a1.013,1.013,0,0,1,.581,1.309Zm0,0" fill="#4dc1f9"/>
            <path id="Trazado_1764" data-name="Trazado 1764" d="M380.968,3155.815l-4.844,1.458a1,1,0,0,1-.294.043,11.767,11.767,0,0,1,.169-2.122l4.384-1.32a1.014,1.014,0,1,1,.585,1.941Zm0,0" fill="#4dc1f9"/>
          </g>
          <path id="Trazado_1765" data-name="Trazado 1765" d="M406.374,3152.642a70.227,70.227,0,0,0-30.059-.343c.017.049.031.1.05.148a15.288,15.288,0,0,0-.676,2.456l-.012,0-.038.223a12.108,12.108,0,0,0-.174,2.188h0l.005.36h.013a10.2,10.2,0,0,0,1.613,5.1c.005.008.008.016.014.025s.026.035.04.056c.175.266.353.513.529.735.023.03.045.055.068.084.172.213.342.408.5.579.025.026.047.047.071.073.153.159.3.3.429.421l.064.058c.126.113.238.208.329.281l.024.021a.562.562,0,0,0,.077.041.572.572,0,0,0,.693-.047.212.212,0,0,0,.028-.014l.02-.025c.023-.021.052-.031.072-.056l6.355-7.889h4.017l-3.754,8.65c-1.076,2.48-.933,4.5.424,6,1.758,1.94,5.425,2.762,10.026,2.762,6.342,0,14.459-1.564,21.787-3.922l1.485-.477-.033-.005.414-.143.007,0,.189-.065v0c1.056-.366,2.1-.759,3.138-1.165-1.4,2.853-3.127,4.289-5.639,6.367-.344.284-.7.58-1.076.894-.457.383-.227.74-.176.808.2.273.849.4,1.737.4,2.451,0,6.764-.948,8.846-2.345,3.676-2.462,5.062-7.385,4.894-10.134.577-.326,1.134-.654,1.666-.985a34.3,34.3,0,0,0,3.73-2.647q.326-.268.631-.538c2.721-2.4,4.274-4.849,4.548-7.251C435.314,3154.49,420.236,3155.9,406.374,3152.642Z" fill="#7e9e0b" opacity="0.5"/>
        </g>
        <g id="Grupo_8310" data-name="Grupo 8310">
          <g id="Grupo_8309" data-name="Grupo 8309">
            <path id="Trazado_1766" data-name="Trazado 1766" d="M365.058,3218.059l1.3-5.208-1.3-4.064h-5.1l-.886,4.636.886,4.636Zm0,0" fill="#eff6ff" fill-rule="evenodd"/>
            <path id="Trazado_1767" data-name="Trazado 1767" d="M359.954,3208.788v9.271L353,3226.688a.29.29,0,0,1-.406.046,10.573,10.573,0,0,1-3.831-8.079,12.673,12.673,0,0,1,.181-2.282,16,16,0,0,1,.812-2.95,15.207,15.207,0,0,1-.922-3.756,11.772,11.772,0,0,1-.032-2.281,10.562,10.562,0,0,1,3.791-7.273.29.29,0,0,1,.407.046Zm0,0" fill="#5fd1fa" fill-rule="evenodd"/>
            <path id="Trazado_1768" data-name="Trazado 1768" d="M353,3226.688l6.951-8.629v-4.706c-.548.807-9.841,10.442-9.483,10.994a10.2,10.2,0,0,0,2.126,2.388c.144.115.406-.047.406-.047Zm0,0" fill="#4dc1f9" fill-rule="evenodd"/>
            <path id="Trazado_1769" data-name="Trazado 1769" d="M404.424,3237.205c4.039-2.705,5.332-8.251,5.073-10.8H404.45c-.123.053-2.867,3.772-2.991,3.821l-.02.008c-1.807,4.221-4.064,5.752-7.732,8.828-1.421,1.19,7.036.618,10.717-1.853Zm0,0" fill="#5fd1fa" fill-rule="evenodd"/>
            <path id="Trazado_1770" data-name="Trazado 1770" d="M365.058,3218.059l-4.273,9.849c-4.9,11.29,15.752,10.6,34.177,4.67a51.85,51.85,0,0,1-29.9-14.519Zm0,0" fill="#5fd1fa" fill-rule="evenodd"/>
            <path id="Trazado_1771" data-name="Trazado 1771" d="M396.391,3192.243c-19.232-7.073-41.436-5.78-36.109,5.987l4.776,10.557c4.06-14.336,17.343-16.152,31.333-16.544Zm0,0" fill="#5fd1fa" fill-rule="evenodd"/>
            <path id="Trazado_1772" data-name="Trazado 1772" d="M373.726,3228.744c3.94-17.392-2.4-17.264-1.182-33.495-5.472,3.974-6.785,10.026-7.486,13.538v9.272a22.825,22.825,0,0,0,8.668,10.685Zm0,0" fill="#fde588" fill-rule="evenodd"/>
            <path id="Trazado_1773" data-name="Trazado 1773" d="M396.968,3231.906c2.153-9,2.321-21.443.7-28.505s-1.511-7.991-.581-10.894c-.234-.087-.465-.177-.7-.264a58.721,58.721,0,0,0-7.621-.856c-3.442,14.629,4.356,21.794.161,41.379a55.056,55.056,0,0,0,6.031-.188c.671-.219,1.342-.441,2.006-.672Zm0,0" fill="#fde588" fill-rule="evenodd"/>
            <path id="Trazado_1774" data-name="Trazado 1774" d="M401.83,3230.07c11.323-4.652,20.208-11.166,19.009-17.68-2.779-7.8-10.433-13.909-19.429-18.072-3.681,5.629,2.458,22,.049,35.9.124-.049.248-.1.371-.152Zm10.454-19a2.543,2.543,0,1,1,0-3.595,2.543,2.543,0,0,1,0,3.595Zm0,0" fill="#fde588" fill-rule="evenodd"/>
            <path id="Trazado_1775" data-name="Trazado 1775" d="M384.875,3232.471c2.68-11.1,2.31-19.315.923-26.159s-1.759-12.512-1.071-14.9a26.921,26.921,0,0,0-7.457,1.4c-4.191,14.612,3.677,24.189.157,37.8a30.085,30.085,0,0,0,7.448,1.854Zm0,0" fill="#fde588" fill-rule="evenodd"/>
            <path id="Trazado_1776" data-name="Trazado 1776" d="M408.685,3211.073a2.543,2.543,0,1,0,0-3.595,2.543,2.543,0,0,0,0,3.595Zm0,0" fill="#7e707d" fill-rule="evenodd"/>
            <path id="Trazado_1777" data-name="Trazado 1777" d="M377.427,3230.617a36.629,36.629,0,0,0,1.634-11.4c.033-4.607-1.272-7.724-1.824-10.5a40.1,40.1,0,0,1,.033-15.909,18.266,18.266,0,0,0-4.726,2.437c-2.248,15.766,4.06,15.626,1.182,33.495a22.589,22.589,0,0,0,3.7,1.873Zm0,0" fill="#fe8d94" fill-rule="evenodd"/>
            <path id="Trazado_1778" data-name="Trazado 1778" d="M388.931,3232.766c5.521-19.343-2.388-26.528-.161-41.379q-2.155-.087-4.043.025a34.241,34.241,0,0,0,.062,14.83c1.387,6.843,2.766,15.124.086,26.229,1.268.156,2.619.259,4.056.3Zm0,0" fill="#fe8d94" fill-rule="evenodd"/>
            <path id="Trazado_1779" data-name="Trazado 1779" d="M401.83,3230.07c11.323-4.652,20.208-11.166,19.009-17.68a21.951,21.951,0,0,0-2.8-5.333c.066.169.131.338.189.507,1.1,5.966-6.258,11.929-16.2,16.466a41.672,41.672,0,0,1-.565,6.192c.124-.049.248-.1.371-.152Zm0,0" fill="#fdd76f" fill-rule="evenodd"/>
            <path id="Trazado_1780" data-name="Trazado 1780" d="M384.875,3232.471c.173-.7.326-1.4.465-2.084.169-.836.313-1.656.441-2.463-1.24-.045-2.409-.14-3.516-.279a33.637,33.637,0,0,1-3.891-.713c-.033.194-.074.387-.111.577a27.093,27.093,0,0,1-.836,3.108,30.085,30.085,0,0,0,7.448,1.854Zm0,0" fill="#fdd76f" fill-rule="evenodd"/>
            <path id="Trazado_1781" data-name="Trazado 1781" d="M388.931,3232.766c.123-.431.238-.86.349-1.28q.489-1.865.816-3.587c-.107.005-.218.013-.325.017-1.207.05-2.356.058-3.455.029-.161,0-.321-.012-.482-.016a.2.2,0,0,1-.053,0c-.128.807-.272,1.627-.441,2.463q-.209,1.025-.461,2.079l0,0c1.268.156,2.619.259,4.056.3Zm0,0" fill="#ff6d75" fill-rule="evenodd"/>
            <path id="Trazado_1782" data-name="Trazado 1782" d="M394.962,3232.578c.671-.219,1.342-.441,2.006-.672.428-1.787.778-3.71,1.05-5.7v-.005c.02-.164.045-.333.061-.5-1.219.481-2.466.939-3.726,1.375-.663.23-1.334.457-2.005.671-.77.066-1.519.115-2.252.148q-.327,1.724-.816,3.586c-.111.421-.226.849-.349,1.281a55.314,55.314,0,0,0,6.031-.189Zm0,0" fill="#fdd76f" fill-rule="evenodd"/>
            <path id="Trazado_1783" data-name="Trazado 1783" d="M401.459,3230.222c.873-2.751,1.071-2,1.511-11s-3.911-19.154-1.56-24.9c-1.412-.65-2.857-1.255-4.319-1.811a20.257,20.257,0,0,0-.329,10.894,62.533,62.533,0,0,1,.206,28.505c1.527-.527,3.03-1.091,4.491-1.684Zm0,0" fill="#fe8d94" fill-rule="evenodd"/>
            <path id="Trazado_1784" data-name="Trazado 1784" d="M401.459,3230.222a17.626,17.626,0,0,0,1.26-6.514c-1.136.532-2.3,1.047-3.5,1.536-.128.054-.252.1-.375.152-.255.1-.506.207-.766.31a55.253,55.253,0,0,1-1.111,6.2c1.527-.527,3.03-1.091,4.491-1.684Zm0,0" fill="#ff6d75" fill-rule="evenodd"/>
            <path id="Trazado_1785" data-name="Trazado 1785" d="M373.726,3228.744c.185-1.145.329-2.211.444-3.216a22.575,22.575,0,0,1-3.059-1.61,20.41,20.41,0,0,1-6.053-5.859,22.825,22.825,0,0,0,8.668,10.685Zm0,0" fill="#fdd76f" fill-rule="evenodd"/>
            <path id="Trazado_1786" data-name="Trazado 1786" d="M377.427,3230.617a27.093,27.093,0,0,0,.836-3.108c.037-.19.078-.383.111-.577-.079-.02-.156-.041-.235-.058-.852-.218-1.655-.464-2.417-.736-.308-.112-.613-.227-.909-.342-.153-.062-.3-.124-.453-.19-.062-.024-.128-.053-.19-.078-.115,1-.259,2.071-.444,3.216a22.589,22.589,0,0,0,3.7,1.873Zm0,0" fill="#ff6d75" fill-rule="evenodd"/>
            <rect id="Rectángulo_2948" data-name="Rectángulo 2948" width="5.105" height="4.706" transform="translate(359.954 3213.353)" fill="#d9eeff"/>
            <path id="Trazado_1787" data-name="Trazado 1787" d="M354.992,3210.87a1.09,1.09,0,0,1-1.016.7,1.106,1.106,0,0,1-.393-.073l-4.746-1.829a11.772,11.772,0,0,1-.032-2.281,1.057,1.057,0,0,1,.353.071l5.208,2.006a1.09,1.09,0,0,1,.626,1.407Zm0,0" fill="#4dc1f9"/>
            <path id="Trazado_1788" data-name="Trazado 1788" d="M354.289,3217.04l-5.208,1.569a1.112,1.112,0,0,1-.315.046,12.673,12.673,0,0,1,.181-2.282l4.713-1.419a1.089,1.089,0,1,1,.629,2.086Zm0,0" fill="#4dc1f9"/>
          </g>
          <path id="Trazado_1789" data-name="Trazado 1789" d="M381.6,3213.629a75.52,75.52,0,0,0-32.317-.369c.018.054.034.107.053.16a16.409,16.409,0,0,0-.726,2.64l-.013,0-.041.24a13.048,13.048,0,0,0-.187,2.353h0l.006.387h.014a10.962,10.962,0,0,0,1.734,5.487c0,.008.009.018.014.026.015.023.029.039.044.061.188.286.379.552.568.791l.074.09c.185.228.367.439.539.622l.077.078c.164.171.32.325.461.453.024.023.044.041.069.062.135.122.256.224.354.3l.025.022a.6.6,0,0,0,.083.045.683.683,0,0,0,.34.1.675.675,0,0,0,.4-.154c.009,0,.021-.008.03-.014l.022-.027a.705.705,0,0,0,.077-.06l6.833-8.482h4.318l-4.036,9.3c-1.157,2.668-1,4.837.457,6.447,1.889,2.086,5.832,2.97,10.778,2.97,6.819,0,15.545-1.682,23.424-4.216l1.6-.514-.035-.006.445-.153.008,0,.2-.07v0c1.135-.394,2.261-.816,3.374-1.253-1.5,3.067-3.362,4.611-6.064,6.846q-.553.457-1.156.96c-.491.412-.244.8-.189.869.221.294.912.427,1.868.427,2.635,0,7.271-1.019,9.51-2.521,3.952-2.647,5.443-7.94,5.261-10.9q.932-.525,1.792-1.059a37.012,37.012,0,0,0,4.01-2.846c.233-.193.459-.385.678-.578,2.926-2.576,4.6-5.214,4.89-7.8C412.719,3215.616,396.507,3217.132,381.6,3213.629Z" fill="#7e9e0b" opacity="0.5"/>
        </g>
      </g>
      <g id="Grupo_8318" data-name="Grupo 8318">
        <g id="Grupo_8313" data-name="Grupo 8313">
          <g id="Grupo_8312" data-name="Grupo 8312">
            <path id="Trazado_1790" data-name="Trazado 1790" d="M575.545,3174.88l1.372-5.509-1.372-4.3h-5.4l-.936,4.9.936,4.9Zm0,0" fill="#eff6ff" fill-rule="evenodd"/>
            <path id="Trazado_1791" data-name="Trazado 1791" d="M570.145,3165.073v9.807l-7.351,9.126a.308.308,0,0,1-.43.049,11.185,11.185,0,0,1-4.052-8.545,13.351,13.351,0,0,1,.192-2.414,16.916,16.916,0,0,1,.859-3.12,16.025,16.025,0,0,1-.975-3.973,12.5,12.5,0,0,1-.035-2.413,11.172,11.172,0,0,1,4.01-7.692.308.308,0,0,1,.431.048Zm0,0" fill="#5fd1fa" fill-rule="evenodd"/>
            <path id="Trazado_1792" data-name="Trazado 1792" d="M562.794,3184.006l7.351-9.126V3169.9c-.579.854-10.408,11.044-10.029,11.628a10.8,10.8,0,0,0,2.248,2.526c.153.122.43-.05.43-.05Zm0,0" fill="#4dc1f9" fill-rule="evenodd"/>
            <path id="Trazado_1793" data-name="Trazado 1793" d="M617.182,3195.13c4.272-2.861,5.639-8.727,5.365-11.428h-5.338c-.13.057-3.032,3.99-3.163,4.042a.126.126,0,0,1-.022.009c-1.911,4.464-4.3,6.084-8.178,9.337-1.5,1.259,7.443.654,11.336-1.96Zm0,0" fill="#5fd1fa" fill-rule="evenodd"/>
            <path id="Trazado_1794" data-name="Trazado 1794" d="M575.545,3174.88l-4.52,10.417c-5.182,11.941,16.661,11.209,36.149,4.939a54.845,54.845,0,0,1-31.629-15.356Zm0,0" fill="#5fd1fa" fill-rule="evenodd"/>
            <path id="Trazado_1795" data-name="Trazado 1795" d="M608.685,3147.574c-20.341-7.482-43.827-6.114-38.192,6.332l5.052,11.166c4.294-15.163,18.343-17.084,33.14-17.5Zm0,0" fill="#5fd1fa" fill-rule="evenodd"/>
            <path id="Trazado_1796" data-name="Trazado 1796" d="M584.712,3186.181c4.168-18.4-2.535-18.26-1.25-35.428-5.788,4.2-7.176,10.6-7.917,14.319v9.808c1.25,2.7,3.454,7.7,9.167,11.3Zm0,0" fill="#fde588" fill-rule="evenodd"/>
            <path id="Trazado_1797" data-name="Trazado 1797" d="M609.295,3189.525c2.277-9.516,2.456-22.68.745-30.149s-1.6-8.453-.614-11.523c-.248-.092-.492-.187-.741-.279a62.214,62.214,0,0,0-8.061-.906c-3.64,15.474,4.608,23.052.171,43.767a58.073,58.073,0,0,0,6.379-.2c.71-.232,1.42-.466,2.121-.711Zm0,0" fill="#fde588" fill-rule="evenodd"/>
            <path id="Trazado_1798" data-name="Trazado 1798" d="M614.438,3187.583c11.976-4.921,21.374-11.81,20.106-18.7-2.939-8.253-11.035-14.711-20.55-19.114-3.894,5.954,2.6,23.265.052,37.975.131-.052.262-.1.392-.161Zm11.057-20.093a2.69,2.69,0,1,1,0-3.8,2.688,2.688,0,0,1,0,3.8Zm0,0" fill="#fde588" fill-rule="evenodd"/>
            <path id="Trazado_1799" data-name="Trazado 1799" d="M596.505,3190.122c2.835-11.745,2.443-20.429.976-27.667s-1.861-13.235-1.133-15.76a28.484,28.484,0,0,0-7.887,1.48c-4.433,15.456,3.889,25.585.166,39.987a31.8,31.8,0,0,0,7.878,1.96Zm0,0" fill="#fde588" fill-rule="evenodd"/>
            <path id="Trazado_1800" data-name="Trazado 1800" d="M621.689,3167.49a2.69,2.69,0,1,0,0-3.8,2.688,2.688,0,0,0,0,3.8Zm0,0" fill="#7e707d" fill-rule="evenodd"/>
            <path id="Trazado_1801" data-name="Trazado 1801" d="M588.627,3188.162a38.752,38.752,0,0,0,1.729-12.054c.035-4.873-1.346-8.17-1.93-11.1a42.432,42.432,0,0,1,.035-16.828,19.31,19.31,0,0,0-5,2.579c-2.377,16.674,4.294,16.527,1.25,35.427a23.924,23.924,0,0,0,3.915,1.981Zm0,0" fill="#fe8d94" fill-rule="evenodd"/>
            <path id="Trazado_1802" data-name="Trazado 1802" d="M600.795,3190.435c5.839-20.459-2.526-28.059-.171-43.767q-2.279-.092-4.276.027c-.728,2.525-1.4,8.444.066,15.686s2.926,16,.091,27.741c1.341.166,2.77.274,4.29.313Zm0,0" fill="#fe8d94" fill-rule="evenodd"/>
            <path id="Trazado_1803" data-name="Trazado 1803" d="M614.438,3187.583c11.976-4.921,21.374-11.81,20.106-18.7a23.243,23.243,0,0,0-2.965-5.64c.07.179.139.357.2.536,1.163,6.31-6.619,12.617-17.136,17.416a44.167,44.167,0,0,1-.6,6.549c.131-.052.262-.1.392-.161Zm0,0" fill="#fdd76f" fill-rule="evenodd"/>
            <path id="Trazado_1804" data-name="Trazado 1804" d="M596.505,3190.122c.183-.744.344-1.481.492-2.2.178-.884.331-1.75.466-2.6-1.311-.048-2.548-.148-3.719-.3a35.42,35.42,0,0,1-4.115-.753c-.035.2-.079.409-.118.609a28.763,28.763,0,0,1-.884,3.288,31.8,31.8,0,0,0,7.878,1.96Zm0,0" fill="#fdd76f" fill-rule="evenodd"/>
            <path id="Trazado_1805" data-name="Trazado 1805" d="M600.795,3190.435c.13-.456.252-.91.369-1.354q.517-1.972.863-3.793c-.113,0-.231.013-.344.017q-1.914.078-3.654.031c-.17,0-.339-.013-.51-.017a.211.211,0,0,1-.056-.005c-.135.854-.288,1.72-.466,2.6-.148.723-.309,1.455-.488,2.2l0,0c1.341.166,2.77.274,4.29.313Zm0,0" fill="#ff6d75" fill-rule="evenodd"/>
            <path id="Trazado_1806" data-name="Trazado 1806" d="M607.174,3190.236c.71-.232,1.42-.466,2.121-.711.453-1.89.823-3.924,1.111-6.027v0c.021-.174.048-.353.065-.527-1.289.509-2.609.993-3.941,1.455-.7.243-1.411.483-2.121.709-.815.07-1.607.123-2.382.157q-.346,1.822-.863,3.793c-.117.445-.239.9-.369,1.355a58.33,58.33,0,0,0,6.379-.2Zm0,0" fill="#fdd76f" fill-rule="evenodd"/>
            <path id="Trazado_1807" data-name="Trazado 1807" d="M614.046,3187.744c.923-2.909,1.132-2.112,1.6-11.636s-4.137-20.26-1.65-26.339c-1.494-.688-3.022-1.328-4.568-1.916a21.422,21.422,0,0,0-.348,11.523,66.144,66.144,0,0,1,.217,30.149c1.616-.557,3.205-1.153,4.751-1.781Zm0,0" fill="#fe8d94" fill-rule="evenodd"/>
            <path id="Trazado_1808" data-name="Trazado 1808" d="M614.046,3187.744c.728-2.3,1.015-2.286,1.333-6.89-1.2.563-2.439,1.107-3.7,1.625-.135.057-.266.109-.4.161-.27.11-.536.218-.81.327a58.473,58.473,0,0,1-1.176,6.558c1.616-.557,3.205-1.153,4.751-1.781Zm0,0" fill="#ff6d75" fill-rule="evenodd"/>
            <path id="Trazado_1809" data-name="Trazado 1809" d="M584.712,3186.181c.2-1.211.348-2.339.47-3.4a24.017,24.017,0,0,1-3.235-1.7,21.586,21.586,0,0,1-6.4-6.2c1.25,2.7,3.454,7.7,9.167,11.3Zm0,0" fill="#fdd76f" fill-rule="evenodd"/>
            <path id="Trazado_1810" data-name="Trazado 1810" d="M588.627,3188.162a28.763,28.763,0,0,0,.884-3.288c.039-.2.083-.405.118-.609-.083-.022-.166-.044-.249-.062-.9-.23-1.751-.491-2.556-.779-.326-.118-.649-.24-.962-.362-.162-.065-.318-.13-.479-.2-.066-.026-.136-.057-.2-.082-.122,1.062-.274,2.19-.47,3.4a23.924,23.924,0,0,0,3.915,1.981Zm0,0" fill="#ff6d75" fill-rule="evenodd"/>
            <rect id="Rectángulo_2949" data-name="Rectángulo 2949" width="5.399" height="4.978" transform="translate(570.145 3169.902)" fill="#d9eeff"/>
            <path id="Trazado_1811" data-name="Trazado 1811" d="M564.9,3167.275a1.153,1.153,0,0,1-1.075.74,1.168,1.168,0,0,1-.416-.077L558.388,3166a12.5,12.5,0,0,1-.035-2.413,1.117,1.117,0,0,1,.374.075l5.509,2.122a1.153,1.153,0,0,1,.662,1.488Zm0,0" fill="#4dc1f9"/>
            <path id="Trazado_1812" data-name="Trazado 1812" d="M564.154,3173.8l-5.508,1.659a1.181,1.181,0,0,1-.334.049,13.351,13.351,0,0,1,.192-2.414l4.985-1.5a1.153,1.153,0,1,1,.665,2.207Zm0,0" fill="#4dc1f9"/>
          </g>
          <path id="Trazado_1813" data-name="Trazado 1813" d="M593.045,3170.194a79.86,79.86,0,0,0-34.182-.39c.02.056.036.112.057.169a17.307,17.307,0,0,0-.769,2.792l-.014,0-.043.254a13.743,13.743,0,0,0-.2,2.489h0l.006.41h.015a11.589,11.589,0,0,0,1.834,5.8c.005.01.009.019.015.029s.03.04.046.064c.2.3.4.583.6.836.027.034.051.062.078.095.2.242.388.465.571.659l.08.082c.175.181.34.344.488.479l.073.066c.144.129.271.237.374.32l.027.023a.706.706,0,0,0,.088.048.649.649,0,0,0,.788-.055c.01-.005.022-.009.032-.015l.023-.028a.622.622,0,0,0,.081-.064l7.227-8.971h4.568l-4.269,9.836c-1.224,2.821-1.061,5.115.483,6.819,2,2.205,6.169,3.141,11.4,3.141,7.213,0,16.442-1.779,24.776-4.46l1.688-.543-.037-.006.47-.162.009,0,.215-.075v0c1.2-.416,2.391-.863,3.568-1.325-1.588,3.244-3.556,4.877-6.413,7.241-.39.323-.8.659-1.223,1.016-.52.436-.258.842-.2.919.233.31.965.451,1.975.451,2.788,0,7.691-1.077,10.059-2.666,4.18-2.8,5.757-8.4,5.565-11.524.656-.371,1.29-.744,1.895-1.12a39.08,39.08,0,0,0,4.242-3.011q.369-.3.717-.611c3.094-2.725,4.86-5.515,5.172-8.245C625.955,3172.295,608.808,3173.9,593.045,3170.194Z" fill="#7e9e0b" opacity="0.5"/>
        </g>
        <g id="Grupo_8315" data-name="Grupo 8315">
          <g id="Grupo_8314" data-name="Grupo 8314">
            <path id="Trazado_1814" data-name="Trazado 1814" d="M690.566,3147.989l1.59-6.383-1.59-4.981H684.31l-1.086,5.682,1.086,5.682Zm0,0" fill="#eff6ff" fill-rule="evenodd"/>
            <path id="Trazado_1815" data-name="Trazado 1815" d="M684.31,3136.626v11.363l-8.519,10.575a.355.355,0,0,1-.5.057,12.957,12.957,0,0,1-4.7-9.9,15.334,15.334,0,0,1,.222-2.8,19.55,19.55,0,0,1,.995-3.616,18.589,18.589,0,0,1-1.13-4.6,14.5,14.5,0,0,1-.04-2.8,12.938,12.938,0,0,1,4.647-8.912.353.353,0,0,1,.5.055Zm0,0" fill="#5fd1fa" fill-rule="evenodd"/>
            <path id="Trazado_1816" data-name="Trazado 1816" d="M675.791,3158.564l8.519-10.575v-5.768c-.672.989-12.06,12.8-11.622,13.474a12.492,12.492,0,0,0,2.606,2.927c.177.141.5-.058.5-.058Zm0,0" fill="#4dc1f9" fill-rule="evenodd"/>
            <path id="Trazado_1817" data-name="Trazado 1817" d="M738.812,3171.454c4.95-3.316,6.535-10.113,6.217-13.242h-6.185c-.151.066-3.514,4.623-3.666,4.683a.123.123,0,0,1-.025.01c-2.214,5.173-4.98,7.05-9.476,10.819-1.741,1.459,8.624.758,13.135-2.27Zm0,0" fill="#5fd1fa" fill-rule="evenodd"/>
            <path id="Trazado_1818" data-name="Trazado 1818" d="M690.566,3147.989l-5.238,12.071c-6,13.836,19.307,12.988,41.888,5.722-12.6-1.888-24.422-6.192-36.65-17.793Zm0,0" fill="#5fd1fa" fill-rule="evenodd"/>
            <path id="Trazado_1819" data-name="Trazado 1819" d="M728.967,3116.349c-23.57-8.669-50.784-7.084-44.254,7.337l5.853,12.939c4.976-17.571,21.255-19.8,38.4-20.276Zm0,0" fill="#5fd1fa" fill-rule="evenodd"/>
            <path id="Trazado_1820" data-name="Trazado 1820" d="M701.189,3161.084c4.829-21.315-2.937-21.158-1.449-41.051-6.706,4.87-8.315,12.287-9.174,16.592v11.364c1.449,3.133,4,8.917,10.623,13.095Zm0,0" fill="#fde588" fill-rule="evenodd"/>
            <path id="Trazado_1821" data-name="Trazado 1821" d="M729.674,3164.959c2.638-11.026,2.845-26.28.863-34.934s-1.852-9.795-.712-13.353c-.287-.106-.57-.216-.858-.323a71.732,71.732,0,0,0-9.34-1.049c-4.218,17.929,5.338,26.71.2,50.714a67.233,67.233,0,0,0,7.392-.232c.822-.268,1.645-.54,2.458-.823Zm0,0" fill="#fde588" fill-rule="evenodd"/>
            <path id="Trazado_1822" data-name="Trazado 1822" d="M735.633,3162.709c13.877-5.7,24.766-13.685,23.3-21.668-3.406-9.563-12.786-17.047-23.812-22.148-4.511,6.9,3.012,26.957.06,44,.152-.06.3-.12.455-.186Zm12.812-23.283a3.117,3.117,0,1,1,0-4.406,3.113,3.113,0,0,1,0,4.406Zm0,0" fill="#fde588" fill-rule="evenodd"/>
            <path id="Trazado_1823" data-name="Trazado 1823" d="M714.854,3165.651c3.284-13.61,2.83-23.672,1.13-32.059s-2.156-15.335-1.312-18.261a32.981,32.981,0,0,0-9.139,1.715c-5.137,17.908,4.506,29.646.192,46.333a36.835,36.835,0,0,0,9.129,2.272Zm0,0" fill="#fde588" fill-rule="evenodd"/>
            <path id="Trazado_1824" data-name="Trazado 1824" d="M744.035,3139.426a3.117,3.117,0,1,0,0-4.406,3.113,3.113,0,0,0,0,4.406Zm0,0" fill="#7e707d" fill-rule="evenodd"/>
            <path id="Trazado_1825" data-name="Trazado 1825" d="M705.725,3163.379a44.9,44.9,0,0,0,2-13.967c.04-5.646-1.559-9.467-2.236-12.867a49.156,49.156,0,0,1,.041-19.5,22.384,22.384,0,0,0-5.793,2.988c-2.755,19.321,4.976,19.15,1.449,41.05a27.654,27.654,0,0,0,4.536,2.295Zm0,0" fill="#fe8d94" fill-rule="evenodd"/>
            <path id="Trazado_1826" data-name="Trazado 1826" d="M719.824,3166.014c6.766-23.707-2.927-32.513-.2-50.714q-2.641-.107-4.955.031c-.844,2.926-1.626,9.784.075,18.175s3.391,18.535.107,32.145c1.554.192,3.209.318,4.97.363Zm0,0" fill="#fe8d94" fill-rule="evenodd"/>
            <path id="Trazado_1827" data-name="Trazado 1827" d="M735.633,3162.709c13.877-5.7,24.766-13.685,23.3-21.668a26.907,26.907,0,0,0-3.436-6.536c.081.207.161.414.232.621,1.348,7.312-7.67,14.62-19.856,20.18a50.9,50.9,0,0,1-.692,7.589c.152-.06.3-.12.455-.186Zm0,0" fill="#fdd76f" fill-rule="evenodd"/>
            <path id="Trazado_1828" data-name="Trazado 1828" d="M714.854,3165.651c.211-.863.4-1.716.569-2.554.207-1.024.383-2.028.54-3.018-1.519-.055-2.952-.171-4.309-.342a41.355,41.355,0,0,1-4.768-.873c-.041.236-.091.474-.136.706a33.366,33.366,0,0,1-1.025,3.809,36.835,36.835,0,0,0,9.129,2.272Zm0,0" fill="#fdd76f" fill-rule="evenodd"/>
            <path id="Trazado_1829" data-name="Trazado 1829" d="M719.824,3166.014c.151-.53.292-1.055.428-1.57q.6-2.285,1-4.4c-.131,0-.267.015-.4.021q-2.217.09-4.234.035c-.2-.006-.393-.016-.59-.02a.255.255,0,0,1-.066-.006c-.157.99-.333,1.994-.54,3.018-.171.838-.358,1.685-.565,2.549l0,0c1.554.192,3.209.318,4.97.363Zm0,0" fill="#ff6d75" fill-rule="evenodd"/>
            <path id="Trazado_1830" data-name="Trazado 1830" d="M727.216,3165.782c.822-.268,1.645-.54,2.458-.823.524-2.19.953-4.546,1.286-6.984v-.005c.026-.2.056-.409.076-.61-1.494.59-3.023,1.151-4.566,1.686-.813.282-1.635.559-2.458.822-.944.081-1.862.141-2.76.182q-.4,2.11-1,4.4c-.136.515-.277,1.039-.428,1.57a67.489,67.489,0,0,0,7.392-.233Zm0,0" fill="#fdd76f" fill-rule="evenodd"/>
            <path id="Trazado_1831" data-name="Trazado 1831" d="M735.178,3162.9c1.07-3.371,1.313-2.446,1.852-13.483s-4.793-23.475-1.912-30.519c-1.73-.8-3.5-1.539-5.293-2.221a24.837,24.837,0,0,0-.4,13.353,76.635,76.635,0,0,1,.253,34.934c1.871-.645,3.714-1.336,5.5-2.064Zm0,0" fill="#fe8d94" fill-rule="evenodd"/>
            <path id="Trazado_1832" data-name="Trazado 1832" d="M735.178,3162.9c.843-2.664,1.177-2.649,1.545-7.983-1.393.652-2.826,1.283-4.289,1.883-.157.066-.308.126-.459.186-.313.127-.621.253-.939.379a67.881,67.881,0,0,1-1.362,7.6c1.871-.645,3.714-1.336,5.5-2.064Zm0,0" fill="#ff6d75" fill-rule="evenodd"/>
            <path id="Trazado_1833" data-name="Trazado 1833" d="M701.189,3161.084c.227-1.4.4-2.71.544-3.941a27.869,27.869,0,0,1-3.749-1.973,25.024,25.024,0,0,1-7.418-7.181c1.449,3.133,4,8.917,10.623,13.095Zm0,0" fill="#fdd76f" fill-rule="evenodd"/>
            <path id="Trazado_1834" data-name="Trazado 1834" d="M705.725,3163.379a33.582,33.582,0,0,0,1.025-3.809c.045-.232.095-.47.136-.706-.1-.026-.192-.051-.288-.071-1.045-.268-2.029-.57-2.962-.9-.378-.137-.752-.278-1.115-.419-.187-.076-.368-.151-.555-.233-.076-.029-.157-.065-.233-.095-.141,1.231-.317,2.538-.544,3.941a27.654,27.654,0,0,0,4.536,2.295Zm0,0" fill="#ff6d75" fill-rule="evenodd"/>
            <rect id="Rectángulo_2950" data-name="Rectángulo 2950" width="6.256" height="5.768" transform="translate(684.31 3142.221)" fill="#d9eeff"/>
            <path id="Trazado_1835" data-name="Trazado 1835" d="M678.229,3139.178a1.337,1.337,0,0,1-1.727.767l-5.816-2.241a14.5,14.5,0,0,1-.04-2.8,1.3,1.3,0,0,1,.433.088l6.383,2.458a1.335,1.335,0,0,1,.767,1.725Zm0,0" fill="#4dc1f9"/>
            <path id="Trazado_1836" data-name="Trazado 1836" d="M677.368,3146.74l-6.383,1.922a1.338,1.338,0,0,1-.386.057,15.334,15.334,0,0,1,.222-2.8l5.776-1.74a1.335,1.335,0,1,1,.771,2.557Zm0,0" fill="#4dc1f9"/>
          </g>
          <path id="Trazado_1837" data-name="Trazado 1837" d="M710.844,3142.56a92.535,92.535,0,0,0-39.608-.453c.024.066.042.131.066.2a20.108,20.108,0,0,0-.89,3.236l-.016,0-.05.294a15.972,15.972,0,0,0-.229,2.883h0l.007.474h.017a13.427,13.427,0,0,0,2.125,6.724c.007.011.011.022.018.033.017.027.035.047.053.074.231.351.465.676.7.969l.09.11c.227.281.45.539.661.763.033.035.062.063.094.1.2.21.393.4.565.555l.084.076c.167.15.315.275.434.371l.031.027a.724.724,0,0,0,.1.055.753.753,0,0,0,.913-.063c.011-.006.026-.01.037-.017l.027-.033a.864.864,0,0,0,.094-.074l8.374-10.4h5.292l-4.945,11.4c-1.418,3.269-1.23,5.927.559,7.9,2.316,2.556,7.148,3.64,13.21,3.64,8.357,0,19.052-2.061,28.707-5.168l1.957-.63-.043-.006.545-.188.01,0,.249-.086v0c1.391-.482,2.771-1,4.135-1.535-1.841,3.759-4.121,5.652-7.431,8.39-.453.374-.925.764-1.418,1.177-.6.5-.3.976-.231,1.065.27.359,1.118.523,2.289.523,3.23,0,8.912-1.248,11.655-3.089,4.843-3.245,6.671-9.732,6.448-13.353.761-.43,1.495-.862,2.2-1.3a45.155,45.155,0,0,0,4.915-3.489q.429-.352.831-.708c3.586-3.157,5.631-6.39,5.993-9.554C748.978,3145,729.109,3146.853,710.844,3142.56Z" fill="#7e9e0b" opacity="0.5"/>
        </g>
        <g id="Grupo_8317" data-name="Grupo 8317">
          <g id="Grupo_8316" data-name="Grupo 8316">
            <path id="Trazado_1838" data-name="Trazado 1838" d="M656.405,3228.757l1.709-6.863-1.709-5.355h-6.727l-1.167,6.109,1.167,6.109Zm0,0" fill="#eff6ff" fill-rule="evenodd"/>
            <path id="Trazado_1839" data-name="Trazado 1839" d="M649.678,3216.54v12.217l-9.158,11.369a.381.381,0,0,1-.535.061,13.93,13.93,0,0,1-5.048-10.645,16.546,16.546,0,0,1,.239-3.007,20.953,20.953,0,0,1,1.07-3.887,19.979,19.979,0,0,1-1.215-4.949,15.626,15.626,0,0,1-.043-3.006,13.912,13.912,0,0,1,5-9.583.382.382,0,0,1,.536.06Zm0,0" fill="#5fd1fa" fill-rule="evenodd"/>
            <path id="Trazado_1840" data-name="Trazado 1840" d="M640.52,3240.126l9.158-11.369v-6.2c-.722,1.063-12.966,13.758-12.494,14.486a13.388,13.388,0,0,0,2.8,3.146c.19.152.535-.062.535-.062Zm0,0" fill="#4dc1f9" fill-rule="evenodd"/>
            <path id="Trazado_1841" data-name="Trazado 1841" d="M708.275,3253.984c5.322-3.564,7.026-10.872,6.684-14.236h-6.65c-.162.071-3.777,4.97-3.941,5.035a.15.15,0,0,1-.027.011c-2.381,5.561-5.354,7.579-10.188,11.632-1.871,1.568,9.272.814,14.122-2.442Zm0,0" fill="#5fd1fa" fill-rule="evenodd"/>
            <path id="Trazado_1842" data-name="Trazado 1842" d="M656.405,3228.757l-5.631,12.977c-6.456,14.876,20.756,13.965,45.034,6.153-13.541-2.03-26.257-6.658-39.4-19.13Zm0,0" fill="#5fd1fa" fill-rule="evenodd"/>
            <path id="Trazado_1843" data-name="Trazado 1843" d="M697.69,3194.74c-25.34-9.32-54.6-7.616-47.578,7.888l6.293,13.911c5.349-18.89,22.851-21.283,41.285-21.8Zm0,0" fill="#5fd1fa" fill-rule="evenodd"/>
            <path id="Trazado_1844" data-name="Trazado 1844" d="M667.825,3242.836c5.192-22.917-3.158-22.748-1.557-44.136-7.21,5.237-8.94,13.211-9.863,17.839v12.218c1.557,3.369,4.3,9.586,11.42,14.079Zm0,0" fill="#fde588" fill-rule="evenodd"/>
            <path id="Trazado_1845" data-name="Trazado 1845" d="M698.45,3247c2.837-11.855,3.059-28.254.928-37.559s-1.991-10.531-.766-14.355c-.308-.115-.612-.234-.922-.348a77.346,77.346,0,0,0-10.042-1.128c-4.534,19.276,5.74,28.717.212,54.524a72.359,72.359,0,0,0,7.948-.249c.884-.288,1.768-.581,2.642-.885Zm0,0" fill="#fde588" fill-rule="evenodd"/>
            <path id="Trazado_1846" data-name="Trazado 1846" d="M704.857,3244.583c14.919-6.131,26.627-14.713,25.047-23.3-3.662-10.281-13.746-18.328-25.6-23.812-4.85,7.417,3.239,28.982.065,47.308.164-.065.326-.13.489-.2Zm13.775-25.032a3.351,3.351,0,1,1,0-4.737,3.349,3.349,0,0,1,0,4.737Zm0,0" fill="#fde588" fill-rule="evenodd"/>
            <path id="Trazado_1847" data-name="Trazado 1847" d="M682.517,3247.746c3.531-14.632,3.042-25.45,1.215-34.468s-2.318-16.487-1.411-19.633a35.518,35.518,0,0,0-9.825,1.844c-5.523,19.254,4.844,31.874.206,49.815a39.665,39.665,0,0,0,9.815,2.442Zm0,0" fill="#fde588" fill-rule="evenodd"/>
            <path id="Trazado_1848" data-name="Trazado 1848" d="M713.89,3219.551a3.351,3.351,0,1,0,0-4.737,3.349,3.349,0,0,0,0,4.737Zm0,0" fill="#7e707d" fill-rule="evenodd"/>
            <path id="Trazado_1849" data-name="Trazado 1849" d="M672.7,3245.3a48.293,48.293,0,0,0,2.154-15.017c.043-6.071-1.676-10.178-2.4-13.834a52.855,52.855,0,0,1,.044-20.964,24.111,24.111,0,0,0-6.228,3.212c-2.962,20.773,5.349,20.59,1.557,44.135a29.922,29.922,0,0,0,4.877,2.468Zm0,0" fill="#fe8d94" fill-rule="evenodd"/>
            <path id="Trazado_1850" data-name="Trazado 1850" d="M687.86,3248.136c7.275-25.488-3.146-34.955-.212-54.524q-2.84-.114-5.327.033c-.907,3.146-1.747,10.519.081,19.541s3.646,19.928.115,34.56c1.671.206,3.45.341,5.343.39Zm0,0" fill="#fe8d94" fill-rule="evenodd"/>
            <path id="Trazado_1851" data-name="Trazado 1851" d="M704.857,3244.583c14.919-6.131,26.627-14.713,25.047-23.3a28.908,28.908,0,0,0-3.694-7.027c.087.223.174.445.25.668,1.448,7.861-8.246,15.718-21.348,21.7a54.889,54.889,0,0,1-.744,8.159c.164-.065.326-.13.489-.2Zm0,0" fill="#fdd76f" fill-rule="evenodd"/>
            <path id="Trazado_1852" data-name="Trazado 1852" d="M682.517,3247.746c.227-.928.428-1.845.612-2.746.223-1.1.412-2.181.58-3.244-1.633-.06-3.173-.185-4.632-.369a44.346,44.346,0,0,1-5.127-.938c-.044.254-.1.509-.146.759a35.9,35.9,0,0,1-1.1,4.1,39.665,39.665,0,0,0,9.815,2.442Zm0,0" fill="#fdd76f" fill-rule="evenodd"/>
            <path id="Trazado_1853" data-name="Trazado 1853" d="M687.86,3248.136c.163-.569.315-1.134.461-1.688q.644-2.457,1.075-4.725c-.141.006-.288.016-.429.022q-2.383.1-4.552.038c-.212-.006-.423-.017-.635-.021a.3.3,0,0,1-.071-.006c-.168,1.063-.357,2.143-.58,3.244-.184.9-.385,1.812-.608,2.74l0,.006c1.671.206,3.45.341,5.343.39Zm0,0" fill="#ff6d75" fill-rule="evenodd"/>
            <path id="Trazado_1854" data-name="Trazado 1854" d="M695.808,3247.887c.884-.288,1.768-.581,2.642-.885.564-2.354,1.025-4.888,1.384-7.508v-.006c.027-.217.059-.44.081-.656-1.606.635-3.25,1.237-4.91,1.812-.873.3-1.757.6-2.642.884-1.015.087-2,.152-2.967.2q-.432,2.269-1.075,4.725c-.146.554-.3,1.118-.461,1.688a72.616,72.616,0,0,0,7.948-.25Zm0,0" fill="#fdd76f" fill-rule="evenodd"/>
            <path id="Trazado_1855" data-name="Trazado 1855" d="M704.368,3244.783c1.151-3.624,1.411-2.631,1.991-14.5s-5.153-25.239-2.056-32.812c-1.86-.858-3.764-1.655-5.691-2.387a26.7,26.7,0,0,0-.433,14.355A82.385,82.385,0,0,1,698.45,3247c2.012-.694,3.993-1.437,5.918-2.219Zm0,0" fill="#fe8d94" fill-rule="evenodd"/>
            <path id="Trazado_1856" data-name="Trazado 1856" d="M704.368,3244.783c.907-2.865,1.265-2.848,1.661-8.583q-2.246,1.051-4.612,2.024c-.168.071-.331.136-.493.2-.337.136-.668.271-1.009.407a73.071,73.071,0,0,1-1.465,8.17c2.012-.694,3.993-1.437,5.918-2.219Zm0,0" fill="#ff6d75" fill-rule="evenodd"/>
            <path id="Trazado_1857" data-name="Trazado 1857" d="M667.825,3242.836c.244-1.509.434-2.914.586-4.237a30.043,30.043,0,0,1-4.031-2.122,26.9,26.9,0,0,1-7.975-7.72c1.557,3.369,4.3,9.586,11.42,14.079Zm0,0" fill="#fdd76f" fill-rule="evenodd"/>
            <path id="Trazado_1858" data-name="Trazado 1858" d="M672.7,3245.3a36.108,36.108,0,0,0,1.1-4.1c.048-.25.1-.505.146-.759-.1-.028-.206-.055-.31-.077-1.122-.287-2.18-.612-3.184-.97-.406-.147-.808-.3-1.2-.451-.2-.081-.4-.163-.6-.25-.081-.032-.168-.07-.249-.1-.152,1.323-.342,2.728-.586,4.237a29.922,29.922,0,0,0,4.877,2.468Zm0,0" fill="#ff6d75" fill-rule="evenodd"/>
            <rect id="Rectángulo_2951" data-name="Rectángulo 2951" width="6.726" height="6.201" transform="translate(649.678 3222.556)" fill="#d9eeff"/>
            <path id="Trazado_1859" data-name="Trazado 1859" d="M643.141,3219.284a1.436,1.436,0,0,1-1.857.825l-6.253-2.41a15.626,15.626,0,0,1-.043-3.006,1.4,1.4,0,0,1,.466.094l6.862,2.643a1.435,1.435,0,0,1,.825,1.854Zm0,0" fill="#4dc1f9"/>
            <path id="Trazado_1860" data-name="Trazado 1860" d="M642.215,3227.414l-6.863,2.067a1.458,1.458,0,0,1-.415.061,16.546,16.546,0,0,1,.239-3.007l6.21-1.87a1.436,1.436,0,1,1,.829,2.749Zm0,0" fill="#4dc1f9"/>
          </g>
          <path id="Trazado_1861" data-name="Trazado 1861" d="M678.206,3222.92a99.489,99.489,0,0,0-42.583-.487c.025.071.045.141.071.211a21.427,21.427,0,0,0-.957,3.479l-.018,0-.054.316a17.133,17.133,0,0,0-.245,3.1h0l.007.51h.018a14.449,14.449,0,0,0,2.285,7.229c.007.011.012.023.019.035.019.029.038.051.057.08.249.377.5.727.75,1.042.032.042.063.077.1.118.244.3.484.579.711.821l.1.1c.217.226.423.428.607.6l.091.082c.179.161.338.3.467.4l.033.029a.79.79,0,0,0,.109.059.811.811,0,0,0,.982-.068c.012-.007.028-.011.039-.018l.029-.036a.782.782,0,0,0,.1-.08l9-11.176h5.69l-5.317,12.254c-1.525,3.514-1.323,6.372.6,8.5,2.49,2.747,7.685,3.913,14.2,3.913,8.985,0,20.483-2.216,30.864-5.556l2.1-.677-.047-.007.587-.2.01,0,.268-.093v0c1.495-.519,2.98-1.075,4.446-1.651-1.98,4.042-4.43,6.077-7.99,9.021q-.729.6-1.524,1.265c-.647.543-.321,1.049-.248,1.145.29.387,1.2.563,2.46.563,3.473,0,9.582-1.343,12.531-3.322,5.207-3.488,7.172-10.462,6.933-14.356q1.226-.693,2.361-1.4a48.712,48.712,0,0,0,5.284-3.751q.461-.379.893-.761c3.855-3.4,6.055-6.87,6.443-10.272C719.2,3225.537,697.843,3227.535,678.206,3222.92Z" fill="#7e9e0b" opacity="0.5"/>
        </g>
      </g>
      <g id="Grupo_8325" data-name="Grupo 8325">
        <g id="Grupo_8320" data-name="Grupo 8320">
          <g id="Grupo_8319" data-name="Grupo 8319">
            <path id="Trazado_1862" data-name="Trazado 1862" d="M898.132,3171.436l1.869-7.505-1.869-5.857h-7.356l-1.277,6.681,1.277,6.681Zm0,0" fill="#eff6ff" fill-rule="evenodd"/>
            <path id="Trazado_1863" data-name="Trazado 1863" d="M890.776,3158.075v13.361L880.76,3183.87a.419.419,0,0,1-.586.066,15.235,15.235,0,0,1-5.52-11.642,18.1,18.1,0,0,1,.262-3.288,22.949,22.949,0,0,1,1.17-4.251,21.817,21.817,0,0,1-1.329-5.413,17.028,17.028,0,0,1-.047-3.287,15.222,15.222,0,0,1,5.463-10.48.418.418,0,0,1,.587.066Zm0,0" fill="#5fd1fa" fill-rule="evenodd"/>
            <path id="Trazado_1864" data-name="Trazado 1864" d="M880.76,3183.87l10.016-12.434v-6.782c-.79,1.163-14.18,15.047-13.665,15.842a14.666,14.666,0,0,0,3.063,3.441c.209.166.586-.067.586-.067Zm0,0" fill="#4dc1f9" fill-rule="evenodd"/>
            <path id="Trazado_1865" data-name="Trazado 1865" d="M954.859,3199.025c5.819-3.9,7.683-11.89,7.309-15.569H954.9c-.178.077-4.131,5.435-4.31,5.506a.162.162,0,0,1-.03.012c-2.6,6.082-5.855,8.289-11.142,12.721-2.046,1.715,10.14.891,15.445-2.67Zm0,0" fill="#5fd1fa" fill-rule="evenodd"/>
            <path id="Trazado_1866" data-name="Trazado 1866" d="M898.132,3171.436l-6.159,14.192c-7.059,16.269,22.7,15.272,49.251,6.729-14.809-2.22-28.716-7.281-43.092-20.921Zm0,0" fill="#5fd1fa" fill-rule="evenodd"/>
            <path id="Trazado_1867" data-name="Trazado 1867" d="M943.283,3134.234c-27.713-10.193-59.711-8.329-52.033,8.627l6.882,15.213c5.85-20.659,24.991-23.276,45.151-23.84Zm0,0" fill="#5fd1fa" fill-rule="evenodd"/>
            <path id="Trazado_1868" data-name="Trazado 1868" d="M910.622,3186.833c5.678-25.062-3.454-24.878-1.7-48.268-7.885,5.727-9.777,14.448-10.786,19.509v13.362c1.7,3.684,4.7,10.484,12.49,15.4Zm0,0" fill="#fde588" fill-rule="evenodd"/>
            <path id="Trazado_1869" data-name="Trazado 1869" d="M944.114,3191.389c3.1-12.965,3.345-30.9,1.014-41.076s-2.177-11.516-.837-15.7c-.337-.125-.67-.255-1.008-.38A84.434,84.434,0,0,0,932.3,3133c-4.96,21.08,6.276,31.405.231,59.628a79.221,79.221,0,0,0,8.692-.272c.967-.315,1.934-.635,2.89-.968Zm0,0" fill="#fde588" fill-rule="evenodd"/>
            <path id="Trazado_1870" data-name="Trazado 1870" d="M951.12,3188.743c16.316-6.7,29.12-16.09,27.393-25.477-4.005-11.244-15.034-20.043-28-26.041-5.3,8.111,3.542,31.7.071,51.737.179-.071.357-.141.534-.219Zm15.065-27.375a3.665,3.665,0,1,1,0-5.181,3.662,3.662,0,0,1,0,5.181Zm0,0" fill="#fde588" fill-rule="evenodd"/>
            <path id="Trazado_1871" data-name="Trazado 1871" d="M926.688,3192.2c3.862-16,3.328-27.832,1.329-37.694s-2.534-18.03-1.543-21.471a38.82,38.82,0,0,0-10.744,2.016c-6.04,21.057,5.3,34.858.225,54.479a43.329,43.329,0,0,0,10.733,2.67Zm0,0" fill="#fde588" fill-rule="evenodd"/>
            <path id="Trazado_1872" data-name="Trazado 1872" d="M961,3161.368a3.665,3.665,0,1,0,0-5.181,3.662,3.662,0,0,0,0,5.181Zm0,0" fill="#7e707d" fill-rule="evenodd"/>
            <path id="Trazado_1873" data-name="Trazado 1873" d="M915.955,3189.532a52.808,52.808,0,0,0,2.355-16.423c.048-6.639-1.833-11.131-2.628-15.129a57.776,57.776,0,0,1,.048-22.927,26.378,26.378,0,0,0-6.812,3.513c-3.239,22.718,5.851,22.517,1.7,48.267a32.645,32.645,0,0,0,5.333,2.7Zm0,0" fill="#fe8d94" fill-rule="evenodd"/>
            <path id="Trazado_1874" data-name="Trazado 1874" d="M932.532,3192.629c7.956-27.874-3.441-38.228-.231-59.628q-3.107-.126-5.827.036c-.991,3.441-1.91,11.5.09,21.37s3.986,21.794.124,37.795c1.828.226,3.774.374,5.844.427Zm0,0" fill="#fe8d94" fill-rule="evenodd"/>
            <path id="Trazado_1875" data-name="Trazado 1875" d="M951.12,3188.743c16.316-6.7,29.12-16.09,27.393-25.477a31.649,31.649,0,0,0-4.04-7.684c.095.243.189.487.273.73,1.584,8.6-9.018,17.189-23.346,23.727a60.112,60.112,0,0,1-.814,8.923c.179-.071.357-.141.534-.219Zm0,0" fill="#fdd76f" fill-rule="evenodd"/>
            <path id="Trazado_1876" data-name="Trazado 1876" d="M926.688,3192.2c.249-1.014.469-2.017.67-3,.244-1.2.451-2.385.635-3.547-1.786-.066-3.471-.2-5.066-.4a48.231,48.231,0,0,1-5.607-1.026c-.048.278-.107.558-.16.831a39.083,39.083,0,0,1-1.2,4.479,43.329,43.329,0,0,0,10.733,2.67Zm0,0" fill="#fdd76f" fill-rule="evenodd"/>
            <path id="Trazado_1877" data-name="Trazado 1877" d="M932.532,3192.629c.178-.622.344-1.24.5-1.845q.7-2.688,1.176-5.169c-.155.007-.315.019-.469.025-1.739.071-3.395.082-4.979.041-.231-.006-.462-.018-.694-.023a.346.346,0,0,1-.077-.006c-.184,1.162-.391,2.343-.635,3.547-.2.986-.421,1.982-.664,3l-.006.006c1.828.226,3.774.374,5.844.427Zm0,0" fill="#ff6d75" fill-rule="evenodd"/>
            <path id="Trazado_1878" data-name="Trazado 1878" d="M941.224,3192.357c.967-.315,1.934-.635,2.89-.968.616-2.575,1.121-5.346,1.513-8.211v-.007c.029-.237.065-.48.089-.717-1.757.694-3.555,1.353-5.37,1.982-.955.332-1.922.658-2.889.967q-1.665.142-3.245.214-.473,2.483-1.176,5.167c-.16.606-.326,1.223-.5,1.846a79.478,79.478,0,0,0,8.692-.273Zm0,0" fill="#fdd76f" fill-rule="evenodd"/>
            <path id="Trazado_1879" data-name="Trazado 1879" d="M950.586,3188.962c1.258-3.963,1.543-2.877,2.178-15.853s-5.637-27.6-2.249-35.884c-2.035-.938-4.117-1.81-6.224-2.611a29.2,29.2,0,0,0-.474,15.7,90.116,90.116,0,0,1,.3,41.076c2.2-.759,4.366-1.572,6.472-2.427Zm0,0" fill="#fe8d94" fill-rule="evenodd"/>
            <path id="Trazado_1880" data-name="Trazado 1880" d="M950.586,3188.962c.991-3.133,1.383-3.115,1.816-9.386-1.637.766-3.323,1.508-5.043,2.213-.185.078-.362.148-.54.219-.368.15-.73.3-1.1.446a79.99,79.99,0,0,1-1.6,8.935c2.2-.759,4.366-1.572,6.472-2.427Zm0,0" fill="#ff6d75" fill-rule="evenodd"/>
            <path id="Trazado_1881" data-name="Trazado 1881" d="M910.622,3186.833c.266-1.65.474-3.187.64-4.634a32.648,32.648,0,0,1-4.408-2.32,29.42,29.42,0,0,1-8.722-8.443c1.7,3.684,4.7,10.484,12.49,15.4Zm0,0" fill="#fdd76f" fill-rule="evenodd"/>
            <path id="Trazado_1882" data-name="Trazado 1882" d="M915.955,3189.532a39.284,39.284,0,0,0,1.2-4.479c.053-.273.112-.553.16-.831-.113-.03-.226-.059-.339-.084-1.227-.314-2.385-.669-3.482-1.061-.444-.161-.884-.327-1.311-.493-.22-.089-.433-.178-.653-.273-.089-.035-.184-.077-.273-.112-.166,1.447-.374,2.984-.64,4.634a32.645,32.645,0,0,0,5.333,2.7Zm0,0" fill="#ff6d75" fill-rule="evenodd"/>
            <rect id="Rectángulo_2952" data-name="Rectángulo 2952" width="7.356" height="6.781" transform="translate(890.776 3164.654)" fill="#d9eeff"/>
            <path id="Trazado_1883" data-name="Trazado 1883" d="M883.626,3161.076a1.57,1.57,0,0,1-2.03.9l-6.839-2.636a17.028,17.028,0,0,1-.047-3.287,1.532,1.532,0,0,1,.509.1l7.506,2.891a1.57,1.57,0,0,1,.9,2.028Zm0,0" fill="#4dc1f9"/>
            <path id="Trazado_1884" data-name="Trazado 1884" d="M882.613,3169.967l-7.505,2.26a1.559,1.559,0,0,1-.454.067,18.1,18.1,0,0,1,.262-3.288l6.791-2.045a1.57,1.57,0,1,1,.906,3.006Zm0,0" fill="#4dc1f9"/>
          </g>
          <path id="Trazado_1885" data-name="Trazado 1885" d="M921.974,3165.052a108.811,108.811,0,0,0-46.57-.532c.027.077.049.153.078.23a23.649,23.649,0,0,0-1.047,3.8l-.019.006-.059.346a18.822,18.822,0,0,0-.269,3.39h0l.008.558h.021a15.785,15.785,0,0,0,2.5,7.906c.008.013.013.026.021.038.021.033.042.056.063.088.271.412.546.795.819,1.139.036.046.07.085.1.13.268.329.53.633.778.9.039.041.072.073.11.112.238.247.463.468.664.653l.1.09c.2.176.369.323.51.436.011.008.027.023.037.031a.81.81,0,0,0,.119.065.884.884,0,0,0,1.073-.074c.014-.008.031-.012.044-.02l.031-.039a.942.942,0,0,0,.112-.087L891.047,3172h6.222l-5.815,13.4c-1.667,3.843-1.446,6.969.657,9.29,2.724,3.005,8.4,4.279,15.533,4.279,9.826,0,22.4-2.423,33.753-6.076l2.3-.74-.051-.008.641-.221.012,0,.292-.1v0c1.635-.568,3.258-1.176,4.861-1.806-2.164,4.42-4.844,6.645-8.737,9.865-.532.44-1.087.9-1.666,1.384-.709.594-.352,1.147-.273,1.252.318.423,1.315.615,2.691.615,3.8,0,10.479-1.468,13.705-3.632,5.694-3.815,7.843-11.442,7.581-15.7.894-.505,1.757-1.014,2.582-1.526a53.209,53.209,0,0,0,5.779-4.1q.5-.416.977-.833c4.216-3.712,6.621-7.513,7.046-11.233C966.811,3167.915,943.45,3170.1,921.974,3165.052Z" fill="#7e9e0b" opacity="0.5"/>
        </g>
        <g id="Grupo_8322" data-name="Grupo 8322">
          <g id="Grupo_8321" data-name="Grupo 8321">
            <path id="Trazado_1886" data-name="Trazado 1886" d="M1054.838,3134.8l2.166-8.7-2.166-6.786h-8.524l-1.479,7.741,1.479,7.742Zm0,0" fill="#eff6ff" fill-rule="evenodd"/>
            <path id="Trazado_1887" data-name="Trazado 1887" d="M1046.314,3119.318V3134.8l-11.606,14.407a.484.484,0,0,1-.678.077,17.654,17.654,0,0,1-6.4-13.49,20.849,20.849,0,0,1,.3-3.809,26.447,26.447,0,0,1,1.356-4.927,25.288,25.288,0,0,1-1.54-6.271,19.656,19.656,0,0,1-.054-3.81,17.623,17.623,0,0,1,6.33-12.142.482.482,0,0,1,.679.076Zm0,0" fill="#5fd1fa" fill-rule="evenodd"/>
            <path id="Trazado_1888" data-name="Trazado 1888" d="M1034.708,3149.207l11.606-14.407v-7.858c-.915,1.347-16.43,17.434-15.833,18.357a17.02,17.02,0,0,0,3.549,3.987c.242.192.678-.079.678-.079Zm0,0" fill="#4dc1f9" fill-rule="evenodd"/>
            <path id="Trazado_1889" data-name="Trazado 1889" d="M1120.569,3166.768c6.743-4.516,8.9-13.777,8.469-18.04h-8.427c-.206.089-4.786,6.3-4.994,6.38a.174.174,0,0,1-.034.014c-3.017,7.047-6.785,9.6-12.91,14.74-2.372,1.987,11.749,1.032,17.9-3.094Zm0,0" fill="#5fd1fa" fill-rule="evenodd"/>
            <path id="Trazado_1890" data-name="Trazado 1890" d="M1054.838,3134.8l-7.136,16.445c-8.18,18.851,26.3,17.7,57.067,7.8-17.158-2.573-33.273-8.437-49.931-24.242Zm0,0" fill="#5fd1fa" fill-rule="evenodd"/>
            <path id="Trazado_1891" data-name="Trazado 1891" d="M1107.155,3091.694c-32.112-11.811-69.188-9.652-60.292,10l7.975,17.627c6.778-23.938,28.957-26.97,52.317-27.623Zm0,0" fill="#5fd1fa" fill-rule="evenodd"/>
            <path id="Trazado_1892" data-name="Trazado 1892" d="M1069.31,3152.64c6.579-29.039-4-28.826-1.974-55.928-9.136,6.636-11.329,16.741-12.5,22.6V3134.8c1.974,4.269,5.452,12.148,14.472,17.84Zm0,0" fill="#fde588" fill-rule="evenodd"/>
            <path id="Trazado_1893" data-name="Trazado 1893" d="M1108.118,3157.92c3.595-15.022,3.876-35.8,1.176-47.595s-2.524-13.344-.97-18.191c-.391-.145-.777-.3-1.169-.44a97.77,97.77,0,0,0-12.725-1.43c-5.747,24.427,7.273,36.39.268,69.093a91.945,91.945,0,0,0,10.071-.315c1.121-.366,2.241-.736,3.349-1.122Zm0,0" fill="#fde588" fill-rule="evenodd"/>
            <path id="Trazado_1894" data-name="Trazado 1894" d="M1116.237,3154.854c18.906-7.768,33.741-18.644,31.74-29.521-4.64-13.028-17.42-23.224-32.442-30.174-6.146,9.4,4.1,36.727.082,59.949.208-.082.414-.164.62-.254Zm17.455-31.72a4.247,4.247,0,1,1,0-6,4.244,4.244,0,0,1,0,6Zm0,0" fill="#fde588" fill-rule="evenodd"/>
            <path id="Trazado_1895" data-name="Trazado 1895" d="M1087.927,3158.863c4.475-18.542,3.856-32.251,1.54-43.678s-2.937-20.892-1.788-24.879a44.949,44.949,0,0,0-12.45,2.337c-7,24.4,6.138,40.39.261,63.125a50.209,50.209,0,0,0,12.437,3.095Zm0,0" fill="#fde588" fill-rule="evenodd"/>
            <path id="Trazado_1896" data-name="Trazado 1896" d="M1127.683,3123.134a4.247,4.247,0,1,0,0-6,4.244,4.244,0,0,0,0,6Zm0,0" fill="#7e707d" fill-rule="evenodd"/>
            <path id="Trazado_1897" data-name="Trazado 1897" d="M1075.49,3155.768a61.163,61.163,0,0,0,2.729-19.03c.055-7.692-2.124-12.9-3.046-17.53a66.941,66.941,0,0,1,.056-26.565,30.493,30.493,0,0,0-7.893,4.07c-3.753,26.324,6.779,26.091,1.974,55.927a37.8,37.8,0,0,0,6.18,3.128Zm0,0" fill="#fe8d94" fill-rule="evenodd"/>
            <path id="Trazado_1898" data-name="Trazado 1898" d="M1094.7,3159.357c9.219-32.3-3.987-44.3-.268-69.093q-3.6-.145-6.751.042c-1.149,3.987-2.214,13.33.1,24.762s4.62,25.253.145,43.795c2.117.261,4.372.432,6.771.494Zm0,0" fill="#fe8d94" fill-rule="evenodd"/>
            <path id="Trazado_1899" data-name="Trazado 1899" d="M1116.237,3154.854c18.906-7.768,33.741-18.644,31.74-29.521a36.707,36.707,0,0,0-4.681-8.9c.11.283.22.564.317.847,1.835,9.961-10.45,19.917-27.053,27.493a69.466,69.466,0,0,1-.943,10.339c.208-.082.414-.164.62-.254Zm0,0" fill="#fdd76f" fill-rule="evenodd"/>
            <path id="Trazado_1900" data-name="Trazado 1900" d="M1087.927,3158.863c.288-1.176.543-2.338.776-3.48.282-1.4.522-2.764.736-4.111-2.07-.076-4.022-.234-5.871-.467a56.116,56.116,0,0,1-6.5-1.189c-.055.322-.124.646-.185.962a45.485,45.485,0,0,1-1.4,5.19,50.209,50.209,0,0,0,12.437,3.095Zm0,0" fill="#fdd76f" fill-rule="evenodd"/>
            <path id="Trazado_1901" data-name="Trazado 1901" d="M1094.7,3159.357c.206-.721.4-1.437.584-2.138q.818-3.114,1.362-5.989c-.179.008-.364.021-.543.028-2.014.083-3.933.1-5.769.048-.268-.007-.535-.021-.8-.027a.382.382,0,0,1-.089-.007c-.214,1.347-.454,2.716-.736,4.111-.233,1.142-.488,2.3-.77,3.472l-.006.008c2.117.261,4.372.432,6.771.494Zm0,0" fill="#ff6d75" fill-rule="evenodd"/>
            <path id="Trazado_1902" data-name="Trazado 1902" d="M1104.769,3159.042c1.121-.366,2.241-.736,3.349-1.122.714-2.983,1.3-6.194,1.753-9.515v-.007c.034-.275.076-.557.1-.831-2.035.8-4.118,1.568-6.221,2.3-1.107.385-2.228.763-3.349,1.121-1.286.11-2.536.192-3.76.247q-.546,2.877-1.362,5.989c-.185.7-.378,1.416-.584,2.138a92.2,92.2,0,0,0,10.071-.316Zm0,0" fill="#fdd76f" fill-rule="evenodd"/>
            <path id="Trazado_1903" data-name="Trazado 1903" d="M1115.617,3155.108c1.458-4.593,1.788-3.333,2.524-18.37s-6.531-31.982-2.606-41.579c-2.357-1.087-4.77-2.1-7.211-3.025a33.821,33.821,0,0,0-.55,18.191c3.74,16.328,3.94,32.573.344,47.595,2.55-.879,5.06-1.821,7.5-2.812Zm0,0" fill="#fe8d94" fill-rule="evenodd"/>
            <path id="Trazado_1904" data-name="Trazado 1904" d="M1115.617,3155.108c1.149-3.63,1.6-3.609,2.1-10.876-1.9.888-3.849,1.747-5.843,2.565-.213.089-.419.171-.625.254-.427.173-.846.344-1.279.516a92.6,92.6,0,0,1-1.856,10.353c2.55-.879,5.06-1.821,7.5-2.812Zm0,0" fill="#ff6d75" fill-rule="evenodd"/>
            <path id="Trazado_1905" data-name="Trazado 1905" d="M1069.31,3152.64c.309-1.911.549-3.691.742-5.369a37.839,37.839,0,0,1-5.108-2.688,34.092,34.092,0,0,1-10.106-9.783c1.974,4.269,5.452,12.148,14.472,17.84Zm0,0" fill="#fdd76f" fill-rule="evenodd"/>
            <path id="Trazado_1906" data-name="Trazado 1906" d="M1075.49,3155.768a45.688,45.688,0,0,0,1.4-5.19c.061-.316.13-.64.185-.962-.131-.035-.261-.069-.392-.1-1.423-.364-2.764-.776-4.035-1.23-.515-.186-1.024-.379-1.519-.571-.255-.1-.5-.206-.757-.317-.1-.04-.213-.089-.316-.13-.193,1.678-.433,3.458-.742,5.369a37.8,37.8,0,0,0,6.18,3.128Zm0,0" fill="#ff6d75" fill-rule="evenodd"/>
            <rect id="Rectángulo_2953" data-name="Rectángulo 2953" width="8.524" height="7.858" transform="translate(1046.314 3126.942)" fill="#d9eeff"/>
            <path id="Trazado_1907" data-name="Trazado 1907" d="M1038.03,3122.795a1.822,1.822,0,0,1-2.353,1.046l-7.924-3.054a19.656,19.656,0,0,1-.054-3.81,1.779,1.779,0,0,1,.589.119l8.7,3.35a1.819,1.819,0,0,1,1.045,2.349Zm0,0" fill="#4dc1f9"/>
            <path id="Trazado_1908" data-name="Trazado 1908" d="M1036.856,3133.1l-8.7,2.619a1.817,1.817,0,0,1-.526.077,20.849,20.849,0,0,1,.3-3.809l7.868-2.37a1.819,1.819,0,1,1,1.051,3.483Zm0,0" fill="#4dc1f9"/>
          </g>
          <path id="Trazado_1909" data-name="Trazado 1909" d="M1082.464,3127.4a126.058,126.058,0,0,0-53.961-.616c.031.089.057.177.089.266a27.322,27.322,0,0,0-1.212,4.409l-.023.006-.068.4a21.844,21.844,0,0,0-.311,3.929h0l.009.647h.024a18.294,18.294,0,0,0,2.9,9.16c.009.015.014.03.024.045.024.037.048.064.072.1.315.478.634.921.95,1.32.042.053.081.1.122.15.31.382.614.734.9,1.04.044.047.083.084.127.13.275.286.536.542.769.757l.116.1c.227.2.428.374.591.506l.042.036a.99.99,0,0,0,.139.075,1.021,1.021,0,0,0,1.243-.086c.016-.009.036-.014.051-.023l.036-.045a1.165,1.165,0,0,0,.129-.1l11.409-14.163h7.21l-6.738,15.528c-1.932,4.453-1.676,8.075.762,10.765,3.155,3.482,9.738,4.958,18,4.958,11.386,0,25.956-2.808,39.112-7.04l2.665-.858-.059-.009.743-.256.014-.005.339-.118v0c1.9-.658,3.776-1.363,5.633-2.092-2.508,5.121-5.613,7.7-10.124,11.43-.616.51-1.26,1.042-1.931,1.6-.821.688-.407,1.33-.315,1.451.368.49,1.523.713,3.118.713,4.4,0,12.142-1.7,15.88-4.209,6.6-4.42,9.087-13.258,8.784-18.192,1.036-.585,2.036-1.175,2.992-1.768a61.62,61.62,0,0,0,6.7-4.753q.584-.482,1.133-.965c4.884-4.3,7.672-8.706,8.164-13.017C1134.418,3130.72,1107.349,3133.252,1082.464,3127.4Z" fill="#7e9e0b" opacity="0.5"/>
        </g>
        <g id="Grupo_8324" data-name="Grupo 8324">
          <g id="Grupo_8323" data-name="Grupo 8323">
            <path id="Trazado_1910" data-name="Trazado 1910" d="M1008.3,3244.838l2.329-9.349-2.329-7.3h-9.164l-1.59,8.323,1.59,8.322Zm0,0" fill="#eff6ff" fill-rule="evenodd"/>
            <path id="Trazado_1911" data-name="Trazado 1911" d="M999.132,3228.194v16.644l-12.478,15.49a.52.52,0,0,1-.729.083,18.979,18.979,0,0,1-6.877-14.5,22.661,22.661,0,0,1,.326-4.1,28.5,28.5,0,0,1,1.458-5.3,27.246,27.246,0,0,1-1.656-6.743,21.184,21.184,0,0,1-.058-4.1,18.956,18.956,0,0,1,6.806-13.055.519.519,0,0,1,.73.082Zm0,0" fill="#5fd1fa" fill-rule="evenodd"/>
            <path id="Trazado_1912" data-name="Trazado 1912" d="M986.654,3260.328l12.478-15.49v-8.448c-.984,1.449-17.665,18.745-17.023,19.736a18.3,18.3,0,0,0,3.816,4.287c.26.206.729-.085.729-.085Zm0,0" fill="#4dc1f9" fill-rule="evenodd"/>
            <path id="Trazado_1913" data-name="Trazado 1913" d="M1078.965,3279.208c7.25-4.856,9.571-14.812,9.106-19.4h-9.06c-.222.1-5.147,6.771-5.369,6.86-.015.007-.021.007-.037.014-3.244,7.577-7.295,10.327-13.881,15.847-2.549,2.137,12.633,1.11,19.241-3.326Zm0,0" fill="#5fd1fa" fill-rule="evenodd"/>
            <path id="Trazado_1914" data-name="Trazado 1914" d="M1008.3,3244.838l-7.672,17.681c-8.8,20.267,28.279,19.025,61.355,8.382-18.448-2.765-35.773-9.07-53.683-26.063Zm0,0" fill="#5fd1fa" fill-rule="evenodd"/>
            <path id="Trazado_1915" data-name="Trazado 1915" d="M1064.544,3198.494c-34.525-12.7-74.386-10.377-64.822,10.747l8.574,18.952c7.288-25.737,31.133-29,56.248-29.7Zm0,0" fill="#5fd1fa" fill-rule="evenodd"/>
            <path id="Trazado_1916" data-name="Trazado 1916" d="M1023.856,3264.019c7.073-31.221-4.3-30.991-2.123-60.13-9.823,7.134-12.18,18-13.437,24.3v16.645c2.122,4.59,5.862,13.061,15.56,19.181Zm0,0" fill="#fde588" fill-rule="evenodd"/>
            <path id="Trazado_1917" data-name="Trazado 1917" d="M1065.579,3269.7c3.864-16.15,4.167-38.493,1.264-51.17s-2.713-14.347-1.043-19.558c-.42-.155-.835-.317-1.256-.473a105.262,105.262,0,0,0-13.682-1.537c-6.178,26.262,7.82,39.124.289,74.283a98.281,98.281,0,0,0,10.828-.339c1.2-.392,2.409-.791,3.6-1.206Zm0,0" fill="#fde588" fill-rule="evenodd"/>
            <path id="Trazado_1918" data-name="Trazado 1918" d="M1074.308,3266.4c20.326-8.352,36.276-20.046,34.124-31.739-4.989-14.007-18.728-24.969-34.879-32.442-6.608,10.1,4.413,39.486.089,64.454.222-.089.444-.177.666-.273Zm18.766-34.1a4.566,4.566,0,1,1,0-6.454,4.56,4.56,0,0,1,0,6.454Zm0,0" fill="#fde588" fill-rule="evenodd"/>
            <path id="Trazado_1919" data-name="Trazado 1919" d="M1043.871,3270.709c4.811-19.935,4.146-34.673,1.655-46.959s-3.157-22.462-1.922-26.748a48.37,48.37,0,0,0-13.385,2.512c-7.525,26.232,6.6,43.425.28,67.868a53.986,53.986,0,0,0,13.372,3.327Zm0,0" fill="#fde588" fill-rule="evenodd"/>
            <path id="Trazado_1920" data-name="Trazado 1920" d="M1086.614,3232.3a4.566,4.566,0,1,0,0-6.454,4.56,4.56,0,0,0,0,6.454Zm0,0" fill="#7e707d" fill-rule="evenodd"/>
            <path id="Trazado_1921" data-name="Trazado 1921" d="M1030.5,3267.382c1.686-5.019,2.875-11.678,2.935-20.459.059-8.271-2.284-13.866-3.275-18.848a71.987,71.987,0,0,1,.06-28.561,32.8,32.8,0,0,0-8.486,4.377c-4.035,28.3,7.289,28.05,2.123,60.128a40.629,40.629,0,0,0,6.643,3.363Zm0,0" fill="#fe8d94" fill-rule="evenodd"/>
            <path id="Trazado_1922" data-name="Trazado 1922" d="M1051.151,3271.24c9.911-34.724-4.287-47.623-.289-74.283q-3.869-.156-7.258.045c-1.235,4.286-2.38,14.331.111,26.623s4.967,27.149.156,47.084c2.276.281,4.7.465,7.28.531Zm0,0" fill="#fe8d94" fill-rule="evenodd"/>
            <path id="Trazado_1923" data-name="Trazado 1923" d="M1074.308,3266.4c20.326-8.352,36.276-20.046,34.124-31.739a39.438,39.438,0,0,0-5.032-9.573c.118.3.236.606.34.91,1.973,10.71-11.235,21.414-29.085,29.558a74.758,74.758,0,0,1-1.013,11.117c.222-.089.444-.177.666-.273Zm0,0" fill="#fdd76f" fill-rule="evenodd"/>
            <path id="Trazado_1924" data-name="Trazado 1924" d="M1043.871,3270.709c.31-1.264.584-2.514.834-3.741.3-1.5.562-2.971.791-4.42-2.225-.082-4.324-.252-6.311-.5a60.138,60.138,0,0,1-6.985-1.279c-.06.347-.134.695-.2,1.035a48.666,48.666,0,0,1-1.5,5.58,53.986,53.986,0,0,0,13.372,3.327Zm0,0" fill="#fdd76f" fill-rule="evenodd"/>
            <path id="Trazado_1925" data-name="Trazado 1925" d="M1051.151,3271.24c.222-.775.428-1.545.627-2.3q.879-3.346,1.465-6.438c-.192.008-.391.023-.584.031-2.166.088-4.229.1-6.2.051-.289-.008-.576-.022-.865-.029a.4.4,0,0,1-.1-.008c-.229,1.449-.488,2.92-.791,4.42q-.375,1.841-.828,3.733l-.006.008c2.276.281,4.7.465,7.28.531Zm0,0" fill="#ff6d75" fill-rule="evenodd"/>
            <path id="Trazado_1926" data-name="Trazado 1926" d="M1061.979,3270.9c1.2-.392,2.409-.791,3.6-1.206.768-3.207,1.4-6.659,1.885-10.229v-.008c.036-.295.081-.6.11-.893-2.188.864-4.427,1.686-6.688,2.469-1.191.413-2.4.82-3.6,1.2-1.383.119-2.728.207-4.043.267q-.586,3.092-1.465,6.437c-.2.755-.4,1.523-.627,2.3a98.791,98.791,0,0,0,10.828-.341Zm0,0" fill="#fdd76f" fill-rule="evenodd"/>
            <path id="Trazado_1927" data-name="Trazado 1927" d="M1073.642,3266.673c1.567-4.938,1.922-3.584,2.713-19.75s-7.022-34.385-2.8-44.7c-2.534-1.168-5.129-2.254-7.753-3.252a36.374,36.374,0,0,0-.591,19.558c4.021,17.554,4.236,35.02.37,51.17,2.741-.945,5.44-1.957,8.063-3.022Zm0,0" fill="#fe8d94" fill-rule="evenodd"/>
            <path id="Trazado_1928" data-name="Trazado 1928" d="M1073.642,3266.673c1.235-3.9,1.723-3.881,2.262-11.694q-3.06,1.433-6.283,2.758c-.229.1-.451.184-.672.273-.458.186-.909.37-1.375.555a99.465,99.465,0,0,1-1.995,11.13c2.741-.945,5.44-1.957,8.063-3.022Zm0,0" fill="#ff6d75" fill-rule="evenodd"/>
            <path id="Trazado_1929" data-name="Trazado 1929" d="M1023.856,3264.019c.332-2.055.59-3.969.8-5.772a40.639,40.639,0,0,1-5.491-2.891,36.618,36.618,0,0,1-10.866-10.518c2.122,4.59,5.862,13.061,15.56,19.181Zm0,0" fill="#fdd76f" fill-rule="evenodd"/>
            <path id="Trazado_1930" data-name="Trazado 1930" d="M1030.5,3267.382a48.867,48.867,0,0,0,1.5-5.58c.065-.34.139-.688.2-1.035-.141-.037-.281-.074-.422-.1-1.529-.391-2.971-.834-4.338-1.322-.554-.2-1.1-.407-1.634-.614-.274-.111-.539-.222-.813-.34-.111-.044-.229-.1-.34-.14-.207,1.8-.465,3.717-.8,5.772a40.629,40.629,0,0,0,6.643,3.363Zm0,0" fill="#ff6d75" fill-rule="evenodd"/>
            <rect id="Rectángulo_2954" data-name="Rectángulo 2954" width="9.164" height="8.448" transform="translate(999.132 3236.39)" fill="#d9eeff"/>
            <path id="Trazado_1931" data-name="Trazado 1931" d="M990.225,3231.932a1.955,1.955,0,0,1-1.824,1.255,1.981,1.981,0,0,1-.706-.13l-8.519-3.284a21.184,21.184,0,0,1-.058-4.1,1.932,1.932,0,0,1,.634.128l9.35,3.6a1.956,1.956,0,0,1,1.123,2.526Zm0,0" fill="#4dc1f9"/>
            <path id="Trazado_1932" data-name="Trazado 1932" d="M988.964,3243.009l-9.35,2.816a1.984,1.984,0,0,1-.566.083,22.661,22.661,0,0,1,.326-4.1l8.46-2.548a1.956,1.956,0,1,1,1.13,3.745Zm0,0" fill="#4dc1f9"/>
          </g>
          <path id="Trazado_1933" data-name="Trazado 1933" d="M1038,3236.886a135.554,135.554,0,0,0-58.015-.663c.033.1.061.191.1.287a29.512,29.512,0,0,0-1.3,4.739l-.024.008-.073.431a23.411,23.411,0,0,0-.335,4.223h0l.01.695h.025a19.673,19.673,0,0,0,3.113,9.848c.01.016.016.033.026.049.026.039.052.069.078.108.338.514.681.991,1.021,1.42.044.057.086.106.131.161.333.411.66.789.969,1.118.048.05.09.091.137.14.3.307.576.583.828.813.044.041.08.073.124.112.243.219.46.4.635.543.013.011.033.029.046.039a1.027,1.027,0,0,0,.148.081,1.1,1.1,0,0,0,1.337-.092c.018-.01.039-.016.055-.026l.039-.048a1.116,1.116,0,0,0,.138-.109l12.266-15.226h7.752l-7.244,16.694c-2.077,4.788-1.8,8.682.819,11.574,3.393,3.743,10.47,5.33,19.35,5.33,12.241,0,27.906-3.018,42.049-7.569l2.866-.922-.064-.01.8-.275.015-.005.364-.127v-.005c2.037-.707,4.059-1.465,6.056-2.249-2.7,5.506-6.035,8.278-10.885,12.289-.662.549-1.354,1.12-2.076,1.725-.882.74-.437,1.429-.339,1.56.4.526,1.638.766,3.352.766,4.731,0,13.054-1.829,17.073-4.525,7.094-4.753,9.771-14.255,9.445-19.559,1.114-.629,2.189-1.263,3.216-1.9a66.158,66.158,0,0,0,7.2-5.11q.628-.517,1.218-1.037c5.252-4.625,8.248-9.36,8.777-13.995C1093.855,3240.452,1064.752,3243.174,1038,3236.886Z" fill="#7e9e0b" opacity="0.5"/>
        </g>
      </g>
    </g>
  </g>
</svg>
