<svg xmlns="http://www.w3.org/2000/svg" width="705.16" height="193.418" viewBox="0 0 705.16 193.418">
  <g id="Grupo_8358" data-name="Grupo 8358" transform="translate(-366.727 -6549.689)">
    <g id="Grupo_8353" data-name="Grupo 8353">
      <circle id="Elipse_15" data-name="Elipse 15" cx="96.709" cy="96.709" r="96.709" transform="translate(366.727 6549.689)" fill="#5fc6ff"/>
      <g id="Grupo_8352" data-name="Grupo 8352">
        <path id="Trazado_1962" data-name="Trazado 1962" d="M426.523,6584.54a7.475,7.475,0,0,0,12.222,3.971.9.9,0,0,1,1.42,1.031,7.475,7.475,0,0,0,7.554,10.4.9.9,0,0,1,.542,1.669,7.475,7.475,0,0,0,0,12.851.9.9,0,0,1-.542,1.669,7.475,7.475,0,0,0-7.554,10.4.9.9,0,0,1-1.42,1.031,7.475,7.475,0,0,0-12.222,3.971.9.9,0,0,1-1.754,0,7.476,7.476,0,0,0-12.223-3.971.9.9,0,0,1-1.42-1.031,7.475,7.475,0,0,0-7.553-10.4.9.9,0,0,1-.543-1.669,7.474,7.474,0,0,0,0-12.851.9.9,0,0,1,.543-1.669,7.475,7.475,0,0,0,7.553-10.4.9.9,0,0,1,1.42-1.031,7.476,7.476,0,0,0,12.223-3.971.9.9,0,0,1,1.754,0Zm0,0" fill="#fd8f31"/>
        <path id="Trazado_1963" data-name="Trazado 1963" d="M435.566,6608.033a9.92,9.92,0,1,1-9.921-9.919,9.92,9.92,0,0,1,9.921,9.919Zm0,0" fill="#fccf3f"/>
        <path id="Trazado_1964" data-name="Trazado 1964" d="M497.6,6663.282v-72.021a17.682,17.682,0,1,0-35.363,0v72.021a30.762,30.762,0,1,0,35.363,0Zm0,0" fill="#d8d8d8"/>
        <path id="Trazado_1965" data-name="Trazado 1965" d="M479.916,6709.143a21.245,21.245,0,0,1-7.422-41.151v-76.731a7.423,7.423,0,1,1,14.845,0v76.731a21.245,21.245,0,0,1-7.423,41.151Zm0,0" fill="#f3e8d7"/>
        <path id="Trazado_1966" data-name="Trazado 1966" d="M472.494,6604.832v63.16a21.245,21.245,0,1,0,14.845,0v-63.16Zm0,0" fill="#fc4e51"/>
        <path id="Trazado_1967" data-name="Trazado 1967" d="M522.087,6624.843h-12.75a2.2,2.2,0,1,1,0-4.4h12.75a2.2,2.2,0,1,1,0,4.4Zm0,0" fill="#0d6e9a"/>
        <path id="Trazado_1968" data-name="Trazado 1968" d="M515.126,6607.03h-5.789a2.2,2.2,0,1,1,0-4.4h5.789a2.2,2.2,0,1,1,0,4.4Zm0,0" fill="#0d6e9a"/>
        <path id="Trazado_1969" data-name="Trazado 1969" d="M517.177,6589.218h-7.84a2.2,2.2,0,1,1,0-4.4h7.84a2.2,2.2,0,1,1,0,4.4Zm0,0" fill="#0d6e9a"/>
        <path id="Trazado_1970" data-name="Trazado 1970" d="M517.177,6660.468h-7.84a2.2,2.2,0,1,1,0-4.4h7.84a2.2,2.2,0,1,1,0,4.4Zm0,0" fill="#0d6e9a"/>
        <path id="Trazado_1971" data-name="Trazado 1971" d="M515.126,6642.655h-5.789a2.2,2.2,0,1,1,0-4.4h5.789a2.2,2.2,0,1,1,0,4.4Zm0,0" fill="#0d6e9a"/>
      </g>
    </g>
    <g id="Grupo_8355" data-name="Grupo 8355">
      <circle id="Elipse_16" data-name="Elipse 16" cx="96.709" cy="96.709" r="96.709" transform="translate(878.469 6549.689)" fill="#5fc6ff"/>
      <g id="Grupo_8354" data-name="Grupo 8354">
        <path id="Trazado_1972" data-name="Trazado 1972" d="M938.768,6609.989l1.9-4.741a51.571,51.571,0,0,0,2.15-31.669l12.281,3.509a28.875,28.875,0,0,1,20.083,20.765Zm0,0" fill="#5a798c"/>
        <path id="Trazado_1973" data-name="Trazado 1973" d="M1048,6605.944l-4.562,7.3a70.53,70.53,0,0,1-59.818,33.155H968.868a31.37,31.37,0,0,0-30.1,40.455l-2.362-2.947a63.041,63.041,0,0,1-10.264-18.53c-.071-.2-.137-.4-.2-.6a63.036,63.036,0,0,1-.116-40.226,45.9,45.9,0,0,1,36.734-30.878l15.332-2.3A103.367,103.367,0,0,1,1048,6605.944Zm0,0" fill="#7b94a3"/>
        <path id="Trazado_1974" data-name="Trazado 1974" d="M963.042,6646.4l24.273,28.318a69.408,69.408,0,0,0-3.616-39.38l-.43-1.075Zm0,0" fill="#ccc"/>
        <path id="Trazado_1975" data-name="Trazado 1975" d="M963.042,6670.672l-24.274-4.046,4.046-24.273,1.446.579a29.875,29.875,0,0,1,18.782,27.74Zm0,0" fill="#ccc"/>
        <path id="Trazado_1976" data-name="Trazado 1976" d="M926.632,6642.353a32.181,32.181,0,0,0-20.228,29.878v2.486l24.273-8.091Zm0,0" fill="#ccc"/>
        <path id="Trazado_1977" data-name="Trazado 1977" d="M1048,6605.944l-4.562,7.3a70.585,70.585,0,0,1-16.342,18.161q-1.352,1.062-2.753,2.054-2.266,1.606-4.661,3.023a70.485,70.485,0,0,1-36.062,9.917H968.868a31.37,31.37,0,0,0-30.1,40.455l-2.362-2.947a63.041,63.041,0,0,1-10.264-18.53c-.071-.2-.137-.4-.2-.6a45.605,45.605,0,0,1-1.457-10.949v-.4a37.841,37.841,0,0,1,33.706-37.619Zm0,0" fill="#e6e6e6"/>
        <path id="Trazado_1978" data-name="Trazado 1978" d="M938.768,6622.126l-1.923,3.848-7.242,9.173-7.7.653-17.81-5.088-1.735-.5.779-.78a33.032,33.032,0,0,1,35.63-7.311Zm0,0" fill="#7b94a3"/>
        <path id="Trazado_1979" data-name="Trazado 1979" d="M936.845,6625.974l-6.168,12.334-26.569-7.591a33.044,33.044,0,0,1,32.737-4.743Zm0,0" fill="#e6e6e6"/>
        <path id="Trazado_1980" data-name="Trazado 1980" d="M938.768,6686.854a25.1,25.1,0,0,0,4.7,28.974l3.389,3.39,1-1.494a26.157,26.157,0,0,0,3.05-22.779,26.158,26.158,0,0,0,22.78-3.05l1.493-1-5.043-4.034a25.1,25.1,0,0,0-30.742-.48Zm0,0" fill="#bdc9d1"/>
        <path id="Trazado_1981" data-name="Trazado 1981" d="M1027.093,6631.4q-1.352,1.062-2.753,2.054-2.266,1.606-4.661,3.023a10.2,10.2,0,0,0-10.2-10.311H972.6v-5.993l36.878-2.1a18.316,18.316,0,0,1,17.61,13.325Zm0,0" fill="#ccc"/>
        <path id="Trazado_1982" data-name="Trazado 1982" d="M960.181,6633.077a31.454,31.454,0,0,1-9.276-22.393v-.7H959v.7c-.016,6.256-1.726,12.261,2.709,16.672Zm0,0" fill="#ccc"/>
        <path id="Trazado_1983" data-name="Trazado 1983" d="M944,6641.168a31.453,31.453,0,0,1-9.276-22.393v-.695h8.091v.695c-.016,6.256-.677,13.31,3.758,17.722Zm0,0" fill="#ccc"/>
        <path id="Trazado_1984" data-name="Trazado 1984" d="M1003.5,6600.944a4.046,4.046,0,1,1-4.046-4.046,4.047,4.047,0,0,1,4.046,4.046Zm0,0" fill="#2d3d46"/>
      </g>
    </g>
    <g id="Grupo_8357" data-name="Grupo 8357">
      <circle id="Elipse_17" data-name="Elipse 17" cx="96.709" cy="96.709" r="96.709" transform="translate(622.598 6549.689)" fill="#5fc6ff"/>
      <g id="Grupo_8356" data-name="Grupo 8356">
        <path id="Trazado_1985" data-name="Trazado 1985" d="M715.462,6691.477H674.145l.335,2.606h0v14.184a3.145,3.145,0,0,0,3.145,3.145h34.355a3.147,3.147,0,0,0,3.146-3.145v-14.184Zm0,0" fill="#fe4fb7"/>
        <path id="Trazado_1986" data-name="Trazado 1986" d="M702.894,6711.413H686.712v-5.632a3.034,3.034,0,0,1,3.033-3.033h10.116a3.033,3.033,0,0,1,3.033,3.033Zm0,0" fill="#efedef"/>
        <path id="Trazado_1987" data-name="Trazado 1987" d="M694.8,6581.384H667.508a2.023,2.023,0,0,0-1.966,2.21l8.939,110.49h40.644l8.941-110.49a2.024,2.024,0,0,0-1.967-2.21Zm0,0" fill="#feaee1"/>
        <path id="Trazado_1988" data-name="Trazado 1988" d="M695.711,6626.778a1.318,1.318,0,0,0-1.815,0c-3.058,3.015-12.669,13.453-10.292,23.484a12.229,12.229,0,0,0,6.582,7.984l.038.02a10.233,10.233,0,0,0,9.157,0l.04-.02a12.235,12.235,0,0,0,6.582-7.984c2.377-10.031-7.234-20.469-10.292-23.484Zm0,0" fill="#efedef"/>
        <path id="Trazado_1989" data-name="Trazado 1989" d="M724.065,6583.5l-.629,8.383H666.17l-.628-8.383a1.971,1.971,0,0,1,1.966-2.119H722.1a1.972,1.972,0,0,1,1.967,2.119Zm0,0" fill="#fe4fb7"/>
        <path id="Trazado_1990" data-name="Trazado 1990" d="M769.366,6681.144h-54.59v-12.487l.245-1.243,54.11-.048.235,1.291Zm0,0" fill="#7ca1b1"/>
        <path id="Trazado_1991" data-name="Trazado 1991" d="M767.315,6711.413H716.827a5.761,5.761,0,0,1-5.762-5.762v-25.039a1.762,1.762,0,0,1,1.763-1.762h58.487a1.763,1.763,0,0,1,1.763,1.762v25.039a5.763,5.763,0,0,1-5.763,5.762Zm0,0" fill="#fdb441"/>
        <path id="Trazado_1992" data-name="Trazado 1992" d="M714.776,6668.657c-.016-.717-.027-1.433-.034-2.152a8.13,8.13,0,0,1,2.136-5.966,16.462,16.462,0,0,1,7.673-3.982c3.971-.89,8.044-1.178,12.06-1.795a37.315,37.315,0,0,0,8.821-2.3c2.377-1,4.579-2.386,6.867-3.607a1.309,1.309,0,0,1,1.855.7,9.013,9.013,0,0,0,.42,1.014,16.105,16.105,0,0,0,1.957,3.3,14.144,14.144,0,0,0,1.457,1.469,67.829,67.829,0,0,0,7.06,5.135c.353.241.706.483,1.055.729a6.975,6.975,0,0,1,3.232,5.541c0,.132.07,1.915.031,1.915Zm0,0" fill="#fee8c7"/>
        <path id="Trazado_1993" data-name="Trazado 1993" d="M759.37,6702.01h-34.6a2.018,2.018,0,0,1-2.018-2.019v-9.721a2.018,2.018,0,0,1,2.018-2.017h34.6a2.019,2.019,0,0,1,2.018,2.017v9.721a2.019,2.019,0,0,1-2.018,2.019Zm0,0" fill="#efedef"/>
      </g>
    </g>
  </g>
</svg>
