<svg xmlns="http://www.w3.org/2000/svg" width="99.429" height="99.429" viewBox="0 0 99.429 99.429">
  <g id="Grupo_8414" data-name="Grupo 8414" transform="translate(-211.583 -987.398)">
    <path id="Trazado_2099" data-name="Trazado 2099" d="M311.012,1037.112c0,.541-.008,1.081-.027,1.616a49.72,49.72,0,0,1-97.992,10.182l0,0a49.751,49.751,0,0,1-1.38-10.18c-.02-.535-.028-1.075-.028-1.616q0-2.437.231-4.816a49.724,49.724,0,0,1,96.768-10.576l0,.006a49.207,49.207,0,0,1,1.728,7.034,50,50,0,0,1,.7,8.352Zm0,0" fill="#5fc6ff"/>
    <path id="Trazado_2100" data-name="Trazado 2100" d="M308.582,1021.72l-15.928,5.744A111.77,111.77,0,0,1,229.1,1031.1l-16.526-3.9v0a49.293,49.293,0,0,1,3.982-11.78,10.96,10.96,0,0,1,4.37,1.34c1.769.958,2.564,2.837,4.517,3.591a6.138,6.138,0,0,0,4.606-.1c.758-.33,1.439-.811,2.17-1.2,4.22-2.243,6.558,2.711,10.051,3.954,3.4,1.208,5.438-2.67,8.749-2.248,3.815.485,5.8,6.2,9.867,5.262a4.3,4.3,0,0,0,.534-.162,5.381,5.381,0,0,0,.715-.314c1.7-.885,2.9-2.472,4.29-3.792s3.244-2.453,5.12-2.062c1.43.3,2.618,1.44,4.075,1.535,1.95.128,3.461-1.613,4.571-3.222,1.7-2.46,4.718-5.049,7.929-3.514a29.194,29.194,0,0,1,3.364,2.343,4.364,4.364,0,0,0,3.87.789,5.509,5.509,0,0,0,2.4-2.484c1.4-2.263,3.016-4.112,5.484-4.739q.645,1.01,1.239,2.048a49.187,49.187,0,0,1,4.111,9.27Zm0,0" fill="#43af3e"/>
    <path id="Trazado_2101" data-name="Trazado 2101" d="M310.985,1038.728a49.663,49.663,0,0,1-1.381,10.18,78.08,78.08,0,0,1-96.422.15l-.189-.148,0,0a49.751,49.751,0,0,1-1.38-10.18l49.8-1.318Zm0,0" fill="#6e6f83"/>
    <path id="Trazado_2102" data-name="Trazado 2102" d="M310.985,1038.728a49.663,49.663,0,0,1-1.381,10.18,77.936,77.936,0,0,1-48.188,16.738V1037.41Zm0,0" fill="#605f74"/>
    <path id="Trazado_2103" data-name="Trazado 2103" d="M311.012,1037.112c0,.541-.008,1.081-.027,1.616h-1.037a2.048,2.048,0,0,0-2.049,2.049l-.389,4.917c0,.66.121.872-.312,1.305a2.389,2.389,0,0,1-1.693.7,1.786,1.786,0,0,1-2.008-2.006v-.548a3.113,3.113,0,0,0-2.783-2.784,1.787,1.787,0,0,1-2.008-2.007,2.37,2.37,0,0,0-2.016-2.016c-2.336,0-4.837,1.679-4.837,4.015,0,1.082.166.695-.54,1.4s-1.688.236-2.769.236c-2.162,0-1.838-.948-1.838-3.112,0-2.336-2.918-4.071-5.255-4.071l-35.163,1.917a2.754,2.754,0,0,0-2.753,2.754v6.607a3.219,3.219,0,0,1-6.438,0v-.737a3.218,3.218,0,0,0-3.219-3.217,3.219,3.219,0,0,1-3.219-3.22,2.187,2.187,0,0,0-2.186-2.187H211.611c-.02-.535-.028-1.075-.028-1.616q0-2.437.231-4.816a49.793,49.793,0,0,1,.757-5.092h28.192a14.449,14.449,0,0,1,10.211,4.228q.42.419.872.8a14.421,14.421,0,0,0,9.337,3.428h.233a14.449,14.449,0,0,0,7.66-2.275,14.031,14.031,0,0,0,1.56-1.153c.3-.255.591-.523.87-.8l5.485-5.484a14.432,14.432,0,0,1,10.207-4.228h21.384l0,.006a49.207,49.207,0,0,1,1.728,7.034,50,50,0,0,1,.7,8.352Zm0,0" fill="#b6e337"/>
    <path id="Trazado_2104" data-name="Trazado 2104" d="M311.012,1037.112c0,.541-.008,1.081-.027,1.616h-1.037a2.048,2.048,0,0,0-2.049,2.049v4.917a2.395,2.395,0,1,1-4.79,0v-.548a2.4,2.4,0,0,0-2.4-2.4,2.4,2.4,0,0,1-2.4-2.4,1.626,1.626,0,0,0-1.627-1.627,4.233,4.233,0,0,0-4.232,4.232,3.915,3.915,0,1,1-7.83,0,4.231,4.231,0,0,0-4.231-4.232H246.288a2.754,2.754,0,0,0-2.753,2.754v6.607a3.219,3.219,0,0,1-6.438,0v-.737a3.218,3.218,0,0,0-3.219-3.217,3.219,3.219,0,0,1-3.219-3.22,2.187,2.187,0,0,0-2.186-2.187H211.611c-.02-.535-.028-1.075-.028-1.616q0-2.437.231-4.816h28.949a19.175,19.175,0,0,1,10.211,2.725q.42.272.872.517a17.124,17.124,0,0,0,3.812,1.5,21.494,21.494,0,0,0,5.525.709h.233a20.609,20.609,0,0,0,7.66-1.467,15.233,15.233,0,0,0,1.56-.743c.3-.163.591-.336.87-.517l5.485-3.536a19.173,19.173,0,0,1,10.207-2.725h23.115a50,50,0,0,1,.7,8.352Zm0,0" fill="#6cdc2d"/>
    <path id="Trazado_2105" data-name="Trazado 2105" d="M311.012,1037.112v1.616h-1.064a2.048,2.048,0,0,0-2.049,2.049v3.751a2.395,2.395,0,1,1-4.79,0v-.547a2.4,2.4,0,0,0-2.4-2.4,2.4,2.4,0,0,1-2.4-2.4,1.627,1.627,0,0,0-1.627-1.628,4.234,4.234,0,0,0-4.232,4.232,3.915,3.915,0,1,1-7.83,0,4.231,4.231,0,0,0-4.231-4.232H261.416v-1.9a14.449,14.449,0,0,0,7.66-2.275,14.031,14.031,0,0,0,1.56-1.153c.3-.255.591-.523.87-.8l5.485-5.484a14.432,14.432,0,0,1,10.207-4.228h21.384a49.584,49.584,0,0,1,2.407,13.856c.015.511.023,1.022.023,1.536Zm0,0" fill="#b6e337"/>
    <path id="Trazado_2106" data-name="Trazado 2106" d="M311.012,1037.112c0,.541-.008,1.081-.027,1.616q-.073,2.332-.359,4.611h-.678a2.047,2.047,0,0,0-2.049,2.048v.307a2.395,2.395,0,1,1-4.79,0v-.548a2.4,2.4,0,0,0-2.4-2.4,2.4,2.4,0,0,1-2.4-2.4,1.626,1.626,0,0,0-1.627-1.627,4.233,4.233,0,0,0-4.232,4.232,3.915,3.915,0,1,1-7.83,0,4.231,4.231,0,0,0-4.231-4.232H261.416v-.98a20.609,20.609,0,0,0,7.66-1.467,15.233,15.233,0,0,0,1.56-.743c.3-.163.591-.336.87-.517l5.485-3.536a19.173,19.173,0,0,1,10.207-2.725h23.115a49.972,49.972,0,0,1,.676,6.816c.015.511.023,1.022.023,1.536Zm0,0" fill="#6cdc2d"/>
    <rect id="Rect치ngulo_2974" data-name="Rect치ngulo 2974" width="18.79" height="43.825" transform="translate(251.846 1032.234)" fill="#fff"/>
    <rect id="Rect치ngulo_2975" data-name="Rect치ngulo 2975" width="18.79" height="6.493" transform="translate(251.846 1032.234)" fill="#d0f6ff"/>
    <path id="Trazado_2107" data-name="Trazado 2107" d="M253.225,1070.122v7.909a90.551,90.551,0,0,1-28.4-7.3l-.256-.113a49.565,49.565,0,0,1-11.582-21.713h8.778a11.554,11.554,0,0,1,9.242,4.622l3.847,5.13h4.721a11.552,11.552,0,0,1,9.739,5.339Zm0,0" fill="#ec771b"/>
    <path id="Trazado_2108" data-name="Trazado 2108" d="M249.918,1076.406v1.268a90.521,90.521,0,0,1-25.089-6.94l-.256-.113a49.7,49.7,0,0,1-9.6-15.429h3.488a11.557,11.557,0,0,1,9.242,4.622l3.846,5.13h4.722a11.555,11.555,0,0,1,9.739,5.34Zm0,0" fill="#c55732"/>
    <path id="Trazado_2109" data-name="Trazado 2109" d="M309.6,1048.908a49.528,49.528,0,0,1-11.582,21.713,90.573,90.573,0,0,1-28.652,7.41v-7.909l3.907-6.123a11.553,11.553,0,0,1,9.739-5.339h4.722l3.846-5.13a11.557,11.557,0,0,1,9.243-4.622Zm0,0" fill="#b15848"/>
    <path id="Trazado_2110" data-name="Trazado 2110" d="M307.622,1055.192a49.717,49.717,0,0,1-9.6,15.429,90.492,90.492,0,0,1-25.345,7.053v-1.268l3.908-6.122a11.553,11.553,0,0,1,9.739-5.34h4.721l3.847-5.13a11.554,11.554,0,0,1,9.241-4.622Zm0,0" fill="#a44e3e"/>
    <path id="Trazado_2111" data-name="Trazado 2111" d="M298.022,1070.621a49.714,49.714,0,0,1-73.449,0Zm0,0" fill="#92eaff"/>
    <path id="Trazado_2112" data-name="Trazado 2112" d="M285.313,1070.621v-.047a5.2,5.2,0,0,0-7.135-4.832,6.751,6.751,0,0,0-12.528,2.012,3.874,3.874,0,0,0-.543-.039,3.8,3.8,0,0,0-3.692,2.906Zm0,0" fill="#fff"/>
    <path id="Trazado_2113" data-name="Trazado 2113" d="M245.983,1009.819v-.037a4.065,4.065,0,0,0-5.575-3.775,5.274,5.274,0,0,0-9.787,1.572,2.845,2.845,0,0,0-.425-.031,2.968,2.968,0,0,0-2.884,2.271Zm0,0" fill="#9fddff"/>
    <path id="Trazado_2114" data-name="Trazado 2114" d="M242.016,1009.819" fill="#f9e073"/>
    <path id="Trazado_2115" data-name="Trazado 2115" d="M252.635,997.021v-.033a3.772,3.772,0,0,1,5.173-3.5,4.9,4.9,0,0,1,9.084,1.459,2.553,2.553,0,0,1,.394-.03,2.755,2.755,0,0,1,2.677,2.108Zm0,0" fill="#9fddff"/>
    <path id="Trazado_2116" data-name="Trazado 2116" d="M293.417,1009.542v-.041a4.5,4.5,0,0,0-6.171-4.178,5.837,5.837,0,0,0-10.832,1.74,3.183,3.183,0,0,0-.471-.035,3.285,3.285,0,0,0-3.192,2.514Zm0,0" fill="#9fddff"/>
    <path id="Trazado_2117" data-name="Trazado 2117" d="M289.026,1009.542" fill="#f9e073"/>
    <path id="Trazado_2118" data-name="Trazado 2118" d="M237.519,1070.621v-.047a5.2,5.2,0,0,1,7.135-4.832,6.751,6.751,0,0,1,12.528,2.012,3.885,3.885,0,0,1,.543-.039,3.8,3.8,0,0,1,3.692,2.906Zm0,0" fill="#fff"/>
    <path id="Trazado_2119" data-name="Trazado 2119" d="M245.983,1055.334a1.329,1.329,0,1,1-1.328-1.33,1.329,1.329,0,0,1,1.328,1.33Zm0,0" fill="#fff"/>
    <path id="Trazado_2120" data-name="Trazado 2120" d="M281.518,1062.131a1.134,1.134,0,1,1-1.133-1.134,1.133,1.133,0,0,1,1.133,1.134Zm0,0" fill="#fff"/>
    <path id="Trazado_2121" data-name="Trazado 2121" d="M240.783,1061.937a.712.712,0,1,1-.712-.712.712.712,0,0,1,.712.712Zm0,0" fill="#fff"/>
    <path id="Trazado_2122" data-name="Trazado 2122" d="M274.967,1057.244a.712.712,0,1,1-.712-.712.712.712,0,0,1,.712.712Zm0,0" fill="#fff"/>
    <path id="Trazado_2123" data-name="Trazado 2123" d="M282.231,1054.954a.712.712,0,1,1-.713-.712.712.712,0,0,1,.713.712Zm0,0" fill="#fff"/>
    <path id="Trazado_2124" data-name="Trazado 2124" d="M237.5,1055.665a.713.713,0,1,1-.713-.711.712.712,0,0,1,.713.711Zm0,0" fill="#fff"/>
  </g>
</svg>
